<?xml version="1.0" encoding="UTF-8" standalone="no"?>
<!-- Created with Inkscape (http://www.inkscape.org/) -->

<svg
   width="110mm"
   height="110mm"
   viewBox="0 0 110 110.00001"
   version="1.1"
   id="svg1"
   xml:space="preserve"
   inkscape:version="1.3 (0e150ed6c4, 2023-07-21)"
   sodipodi:docname="bigbusiness.svg"
   xmlns:inkscape="http://www.inkscape.org/namespaces/inkscape"
   xmlns:sodipodi="http://sodipodi.sourceforge.net/DTD/sodipodi-0.dtd"
   xmlns="http://www.w3.org/2000/svg"
   xmlns:svg="http://www.w3.org/2000/svg"><sodipodi:namedview
     id="namedview1"
     pagecolor="#ffffff"
     bordercolor="#000000"
     borderopacity="0.25"
     inkscape:showpageshadow="2"
     inkscape:pageopacity="0.0"
     inkscape:pagecheckerboard="0"
     inkscape:deskcolor="#d1d1d1"
     inkscape:document-units="mm"
     inkscape:zoom="0.69311897"
     inkscape:cx="249.5964"
     inkscape:cy="278.45147"
     inkscape:window-width="1436"
     inkscape:window-height="1040"
     inkscape:window-x="267"
     inkscape:window-y="20"
     inkscape:window-maximized="0"
     inkscape:current-layer="layer1" /><defs
     id="defs1" /><g
     inkscape:label="Warstwa 1"
     inkscape:groupmode="layer"
     id="layer1"><path
       style="fill:#000000"
       d="m 2.5195881,109.69148 c -0.483184,-0.2381 -1.197559,-0.8512 -1.58749998,-1.36244 -0.928237,-1.21698 -1.010033,-3.5714 -0.16347,-4.70528 1.18286698,-1.58432 1.77229798,-1.81449 4.89442998,-1.91118 l 2.8894936,-0.0895 0.06861,-40.967698 c 0.06852,-40.91137 0.06936,-40.9687 0.614128,-41.69833 0.300034,-0.40184 0.8740413,-0.97611 1.2755733,-1.27614 0.688224,-0.51425 1.137645,-0.55 7.842922,-0.62374 l 7.112865,-0.0782 0.07823,-7.1128681 C 25.61862,3.160827 25.654359,2.711406 26.168614,2.023182 c 0.300033,-0.401531 0.874279,-0.975539 1.276103,-1.27557203 0.725051,-0.541381 0.932105,-0.546045 27.320136,-0.615411 29.630225,-0.07789 27.671295,-0.194803 29.147655,1.73959403 l 0.71267,0.933771 0.0782,7.0867029 0.0782,7.0867051 7.0867,0.0782 7.086705,0.0782 0.93378,0.71267 c 1.940747,1.48121 1.801987,-1.38772 1.801987,37.25503 0,38.64383 0.13884,35.77425 -1.802577,37.25504 -1.33453,1.0179 -3.526985,1.0179 -4.861525,0 -1.93632,-1.47691 -1.80257,1.09898 -1.80257,-34.71533 v -32.17303 h -4.23333 -4.23334 v 38.1 38.099998 h 11.00637 c 12.261472,0 12.163872,-0.013 13.548672,1.80257 1.0179,1.33454 1.0179,3.52699 0,4.86152 -1.49746,1.96327 3.33237,1.80326 -54.228357,1.79655 -47.3136539,-0.006 -51.7603709,-0.0426 -52.5645679,-0.43894 z M 42.478142,94.544832 c 0.07382,-6.71744 0.109494,-7.1667 0.623808,-7.85501 0.300034,-0.40153 0.874135,-0.97554 1.275782,-1.27557 0.701621,-0.52412 1.108576,-0.54848 10.374812,-0.6211 10.780636,-0.0845 10.836175,-0.0766 12.226636,1.74528 l 0.71267,0.93378 0.07829,7.09878 0.07829,7.098788 h 4.221186 4.221186 V 55.103112 8.5364499 H 55.124142 33.957478 V 49.176152 c 0,45.24805 0.148361,41.69395 -1.802576,43.182 -0.760017,0.57969 -1.213571,0.71267 -2.430759,0.71267 -1.217187,0 -1.670741,-0.13298 -2.430757,-0.71267 -1.936327,-1.47691 -1.802576,1.09898 -1.802576,-34.71534 v -32.17303 h -4.233333 -4.233333 v 38.1 38.099998 h 12.687852 12.687853 z m -0.054,-22.50838 v -4.23334 h 4.233333 4.233333 v 4.23334 4.23333 h -4.233333 -4.233333 z m 16.933331,0 v -4.23334 h 4.233333 4.233333 v 4.23334 4.23333 H 63.590808 59.357475 Z M 42.424144,55.103112 v -4.23333 h 4.233333 4.233333 v 4.23333 4.23334 h -4.233333 -4.233333 z m 16.933331,0 v -4.23333 h 4.233333 4.233333 v 4.23333 4.23334 H 63.590808 59.357475 Z M 42.424144,38.169782 v -4.23333 h 4.233333 4.233333 v 4.23333 4.23333 h -4.233333 -4.233333 z m 16.933331,0 v -4.23333 h 4.233333 4.233333 v 4.23333 4.23333 H 63.590808 59.357475 Z M 42.424144,21.236452 v -4.23333 h 4.233333 4.233333 v 4.23333 4.23333 h -4.233333 -4.233333 z m 16.933331,0 v -4.23333 h 4.233333 4.233333 v 4.23333 4.23333 h -4.233333 -4.233333 z m 0,76.19999 v -4.23333 H 55.124142 50.89081 v 4.23333 4.233338 h 4.233332 4.233333 z"
       id="path1" /></g></svg>
