<?xml version="1.0" encoding="UTF-8" standalone="no"?>
<!-- Created with Inkscape (http://www.inkscape.org/) -->

<svg
   width="136mm"
   height="132mm"
   viewBox="0 0 136 132"
   version="1.1"
   id="svg1"
   xml:space="preserve"
   inkscape:version="1.3 (0e150ed6c4, 2023-07-21)"
   sodipodi:docname="brain.svg"
   xmlns:inkscape="http://www.inkscape.org/namespaces/inkscape"
   xmlns:sodipodi="http://sodipodi.sourceforge.net/DTD/sodipodi-0.dtd"
   xmlns="http://www.w3.org/2000/svg"
   xmlns:svg="http://www.w3.org/2000/svg"><sodipodi:namedview
     id="namedview1"
     pagecolor="#ffffff"
     bordercolor="#000000"
     borderopacity="0.25"
     inkscape:showpageshadow="2"
     inkscape:pageopacity="0.0"
     inkscape:pagecheckerboard="0"
     inkscape:deskcolor="#d1d1d1"
     inkscape:document-units="mm"
     inkscape:zoom="0.49010913"
     inkscape:cx="396.85039"
     inkscape:cy="562.11971"
     inkscape:window-width="1403"
     inkscape:window-height="763"
     inkscape:window-x="536"
     inkscape:window-y="194"
     inkscape:window-maximized="0"
     inkscape:current-layer="layer1" /><defs
     id="defs1" /><g
     inkscape:label="Warstwa 1"
     inkscape:groupmode="layer"
     id="layer1"><path
       style="fill:#000000"
       d="m 54.086907,131.08552 c -1.892966,-0.41148 -3.676995,-1.15818 -5.383519,-2.25325 l -1.203397,-0.77222 -1.577147,0.63544 c -9.383082,3.78052 -20.288559,-2.52641 -21.861354,-12.64302 l -0.299424,-1.92598 -1.746725,-0.32444 c -2.186988,-0.40622 -5.509012,-2.00022 -7.509454,-3.60324 -3.828554,-3.06796 -6.5403952,-8.77862 -6.5403952,-13.772908 0,-2.23292 0.715723,-5.3296 1.733894,-7.50194 0.5015662,-1.07013 0.9119392,-1.98589 0.9119392,-2.03501 0,-0.0491 -0.7441412,-0.48263 -1.6536462,-0.96336 -2.258943,-1.19397 -5.11239,-4.09368 -6.330409,-6.43303 -1.471537,-2.82626 -1.90321103,-4.60116 -1.89830803,-7.8052 0.0067,-4.38953 1.37895203,-7.79844 4.46542203,-11.09303 l 1.629399,-1.73927 -0.530949,-1.19062 c -2.100797,-4.71092 -1.98126,-10.72814 0.303018,-15.25327 2.015634,-3.99295 5.5360312,-7.26697 9.3288812,-8.67599 l 1.212367,-0.45038 -0.37297,-1.89924 c -1.197629,-6.09857 1.616493,-13.30532 6.659114,-17.05348 4.235949,-3.14857 9.609129,-4.40967 14.440163,-3.38915 0.945885,0.19981 1.728621,0.34616 1.739413,0.32521 2.732364,-5.30223 7.37697,-8.93374 12.879773,-10.07037 2.563011,-0.52941005 4.44253,-0.52949005 7.021654,-3.1e-4 5.461743,1.12063 10.168108,4.76965 12.49469,9.68762 l 0.78905,1.6679 2.09e-4,8.26823 2.09e-4,8.26823 h 4.107766 4.107765 l 1.018379,-1.61063 1.018378,-1.61063 -0.881324,-1.46358 c -2.962503,-4.91972 0.231804,-10.98063 6.00562,-11.39511 3.24546,-0.23298 6.05506,1.35372 7.48768,4.2286 0.97314,1.95284 0.97314,4.81653 0,6.76937 -1.41757,2.84468 -4.21464,4.44231 -7.42007,4.23821 l -1.70541,-0.10859 -1.45308,2.30289 c -0.799193,1.26659 -1.637969,2.37384 -1.863947,2.46056 -0.225979,0.0867 -2.665947,0.15766 -5.422152,0.15766 h -5.011281 l 0.07198,4.96094 0.07198,4.96094 12.86954,0.0686 12.86954,0.0687 3.200431,-3.77282 3.20044,-3.77281 0.003,-3.75793 0.003,-3.75793 -1.14813,-0.50787 c -1.39189,-0.6157 -2.874,-2.05074 -3.67555,-3.55882 -0.481291,-0.90552 -0.593931,-1.54396 -0.593931,-3.36641 0,-1.82244 0.11264,-2.46088 0.593931,-3.36641 3.62813,-6.82615 13.61055,-4.99126 14.51065,2.66724 0.34503,2.93562 -1.52209,6.25148 -4.26885,7.58117 l -1.18479,0.57354 v 4.06022 c 0,2.23311 -0.1069,4.33585 -0.23757,4.67275 -0.30274,0.78058 -7.83401,9.6522 -8.49357,10.00519 -0.31139,0.16665 -5.546311,0.26464 -14.137921,0.26464 H 72.787477 v 3.83645 3.83646 l 13.956772,-0.0198 13.956771,-0.0198 4.10104,-4.76537 c 2.25557,-2.62096 4.7962,-5.52909 5.64583,-6.46252 l 1.5448,-1.69714 h 4.45395 4.45396 l 0.3026,-0.91689 c 0.16643,-0.50429 0.827,-1.50015 1.46794,-2.21302 3.0864,-3.43283 8.39348,-3.37881 11.47039,0.11673 3.30499,3.75467 2.10813,9.58411 -2.45163,11.94097 -1.83311,0.9475 -4.71597,0.98942 -6.5651,0.0955 -1.50392,-0.72706 -3.45625,-2.75031 -3.93713,-4.08015 l -0.35233,-0.97436 h -3.49201 -3.492 l -5.33126,6.15156 c -2.9322,3.38336 -5.71242,6.35973 -6.17828,6.61417 -0.77691,0.42431 -2.03521,0.46264 -15.200671,0.46302 l -14.353642,4.1e-4 v 7.27604 7.27604 h 14.760462 14.760471 l 1.20794,1.25677 c 0.66437,0.69123 3.25303,3.60826 5.75257,6.4823 l 4.54463,5.22552 h 3.54352 3.54353 l 0.29826,-0.90374 c 0.43957,-1.33189 2.20239,-3.18947 3.76642,-3.96886 1.0602,-0.52832 1.77023,-0.68365 3.12493,-0.68365 3.25248,0 5.51032,1.28939 7.01506,4.00611 0.6891,1.24412 0.7847,1.6772 0.78021,3.53451 -0.004,1.77161 -0.11904,2.33233 -0.70398,3.43958 -1.47496,2.79204 -3.87301,4.23772 -6.96382,4.19822 -1.11529,-0.0143 -2.25767,-0.20214 -2.87162,-0.47228 -1.50568,-0.6625 -3.51493,-2.6638 -4.03096,-4.015 l -0.44535,-1.16614 h -4.46197 c -3.90922,0 -4.51933,-0.0577 -4.92499,-0.46613 -0.25467,-0.25637 -2.82486,-3.1734 -5.71154,-6.48229 l -5.24852,-6.01617 H 86.656039 72.788405 v 3.83646 3.83646 h 13.604404 c 7.48242,0 13.803011,0.0762 14.045761,0.16937 0.80784,0.31 8.52546,9.58947 8.6996,10.46019 0.0895,0.44752 0.16273,2.52359 0.16273,4.613498 v 3.79984 l 0.92044,0.38458 c 0.50625,0.21152 1.5145,0.94025 2.24056,1.6194 3.05294,2.85567 3.22527,7.51695 0.39432,10.66565 -2.673,2.97302 -6.90659,3.44555 -10.20995,1.13958 -1.89158,-1.32045 -3.170761,-3.71841 -3.211691,-6.02066 -0.0563,-3.16436 1.502971,-5.82292 4.184601,-7.13492 l 1.44839,-0.70863 v -3.67977 -3.679768 l -3.10885,-3.67584 -3.108861,-3.67585 -13.03073,-0.0217 -13.030724,-0.0217 v 4.7625 4.7625 h 4.75005 c 3.101511,0 4.989223,0.10898 5.439196,0.314 0.428115,0.19506 1.227992,1.212828 2.111758,2.686998 l 1.42261,2.37301 1.99135,-0.0581 c 2.36591,-0.0691 3.95568,0.51514 5.54947,2.03938 2.03723,1.94831 2.83471,5.1633 1.9846,8.00074 -0.50303,1.67896 -2.05949,3.46524 -3.791,4.35077 -2.07107,1.05918 -4.90502,1.12983 -6.75803,0.16848 -3.5073,-1.8196 -5.177292,-5.49662 -4.131007,-9.09571 0.237263,-0.81616 0.74052,-1.8513 1.118349,-2.30033 l 0.686962,-0.81641 -1.11719,-1.71473 -1.11719,-1.71472 h -4.069964 -4.069964 v 8.89099 8.891 l -0.988047,1.89077 c -3.241922,6.2039 -10.833714,9.73547 -17.713451,8.23998 z m 7.035766,-4.33693 c 3.015686,-0.93859 5.665242,-3.15412 7.063082,-5.90608 l 0.6339,-1.24798 V 94.841362 70.088202 l -1.22366,-0.77602 c -2.338765,-1.4832 -4.950755,-1.57506 -7.519765,-0.26445 -0.563792,0.28763 -1.217572,0.52296 -1.452845,0.52296 -0.68421,0 -1.974563,-1.46462 -1.974563,-2.24124 0,-1.52856 2.916173,-3.0103 6.35,-3.22649 1.849557,-0.11645 2.515707,-0.009 5.225521,0.84414 l 0.595312,0.18739 v -9.64203 -9.64203 l -0.595312,-0.54434 c -1.271275,-1.16242 -2.357349,-1.52494 -4.564063,-1.52346 -1.790421,10e-4 -2.329409,0.11277 -3.496933,0.7239 -1.702001,0.8909 -2.297925,0.90481 -3.129676,0.0731 -2.11464,-2.11464 0.965672,-4.61681 5.965151,-4.84557 2.042217,-0.0934 2.810755,-0.0144 4.098564,0.42147 0.871762,0.29506 1.613025,0.50847 1.647251,0.47425 0.03423,-0.0342 0.07117,-6.22135 0.0821,-13.74915 l 0.01987,-13.68693 -0.852607,-1.4902 c -1.282249,-2.24113 -3.563547,-4.375 -5.85615,-5.4777 -4.705678,-2.26334 -10.019788,-1.7712 -14.213916,1.31634 -1.519595,1.11866 -3.975111,4.0423 -3.975111,4.73294 0,0.17891 0.324908,0.47333 0.722017,0.65427 2.605742,1.18725 5.178491,4.13258 6.199939,7.09779 0.812015,2.35724 0.902347,7.46204 0.152301,8.60676 -0.801941,1.22391 -2.778269,1.29683 -3.405079,0.12562 -0.186387,-0.34827 -0.324442,-1.83132 -0.338366,-3.63489 -0.02118,-2.74307 -0.09441,-3.19159 -0.735036,-4.50181 -1.365808,-2.79339 -2.661919,-3.73717 -6.754502,-4.91839 -6.214316,-1.7936 -10.826762,-0.93355 -14.674084,2.73617 -3.094811,2.95195 -4.250284,5.60728 -4.288482,9.85513 -0.03725,4.14211 1.116578,7.15948 3.205976,8.38395 1.153512,0.676 2.29379,0.72366 5.09865,0.21311 1.708727,-0.31103 2.950451,1.62265 1.927422,3.00149 -0.735063,0.99073 -2.243774,1.46489 -4.706789,1.47927 -1.80011,0.0105 -2.346142,-0.0993 -3.638933,-0.7318 -0.836563,-0.40929 -2.086161,-1.32988 -2.776883,-2.04575 -0.690722,-0.71587 -1.4452,-1.30222 -1.676619,-1.30301 -0.799891,-0.003 -3.659907,1.61921 -5.038144,2.85714 -1.75935,1.58025 -3.2602022,3.89777 -3.9622102,6.11818 -0.773162,2.44547 -0.76407,5.90797 0.02159,8.22117 0.7879492,2.31995 0.8613532,2.38957 2.0775532,1.97055 2.661547,-0.91697 6.20894,-0.63494 8.829555,0.702 1.319289,0.67305 3.815182,2.97887 4.355578,4.02389 0.738052,1.42723 -0.186939,3.09314 -1.717457,3.09314 -0.415194,0 -1.142362,-0.51262 -2.123941,-1.49729 -2.113259,-2.1199 -3.782182,-2.83698 -6.236222,-2.67949 -2.326392,0.1493 -4.130559,1.03564 -6.0934802,2.99358 -2.574992,2.56846 -3.751061,5.76533 -3.514701,9.55389 0.180389,2.89142 1.386697,5.55392 3.452125,7.61935 1.515062,1.51506 3.9244992,2.89388 5.6092612,3.20994 1.292651,0.24251 2.247713,1.1693 2.247713,2.1812 0,0.46389 -0.351782,1.22844 -0.888876,1.93185 -3.448541,4.51642 -4.030437,9.99692 -1.594432,15.016908 0.950832,1.95942 3.998121,5.00671 5.957542,5.95754 3.273267,1.58839 5.504873,1.81964 8.319528,0.86211 3.968275,-1.34999 6.013388,-2.74413 7.125965,-4.85773 0.630525,-1.19783 0.9766,-1.56361 1.666599,-1.7615 0.713811,-0.20472 0.999687,-0.15395 1.58548,0.28154 1.527465,1.13557 0.850801,3.76949 -1.584156,6.16634 -1.418749,1.39654 -4.930875,3.34534 -7.433191,4.1245 l -1.529915,0.47638 0.171744,1.20576 c 0.697962,4.90014 3.931302,8.67113 8.673067,10.11526 1.473292,0.4487 2.263166,0.52766 4.18324,0.41818 2.048971,-0.11683 2.635999,-0.2679 4.368968,-1.12438 2.43825,-1.20505 3.886071,-2.47078 4.729009,-4.13424 0.960935,-1.89631 1.086749,-3.73137 0.387824,-5.65657 -0.909011,-2.50389 -0.928961,-2.86432 -0.205116,-3.70584 0.872143,-1.01392 2.157407,-1.02813 3.013123,-0.0333 1.073888,1.24847 1.76196,4.09793 1.634302,6.76801 -0.09275,1.93989 -0.250366,2.61218 -0.941579,4.01615 -0.456602,0.92742 -1.244143,2.16981 -1.750091,2.76084 l -0.919906,1.07462 0.573247,0.3611 c 2.105281,1.32616 6.550441,1.7157 9.412723,0.82486 z M 33.705755,90.088932 c -2.691052,-0.84102 -5.649937,-3.46277 -6.838804,-6.0596 -1.262335,-2.7573 -1.509531,-6.74281 -0.488211,-7.87136 0.652111,-0.72057 2.240014,-0.67027 2.950082,0.0935 0.455908,0.49036 0.550956,0.92184 0.539123,2.4474 -0.01058,1.36406 0.144065,2.22014 0.586897,3.24893 0.749164,1.74045 2.71976,3.56871 4.474905,4.15168 0.706159,0.23455 1.496366,0.66119 1.756015,0.9481 0.662699,0.73228 0.596566,1.97414 -0.147295,2.76594 -0.690668,0.73518 -1.202464,0.78495 -2.832712,0.27546 z m 19.051906,-2.00012 c -1.949831,-0.28489 -4.598674,-1.60235 -6.162347,-3.06499 -1.544968,-1.44513 -3.022372,-4.21448 -3.476365,-6.51632 -0.25774,-1.3068 -0.237581,-1.60744 0.147157,-2.19462 0.567486,-0.8661 1.542439,-1.24836 2.375809,-0.93151 0.772921,0.29387 1.481908,1.25372 1.481908,2.00627 0,1.33306 0.922123,3.19385 2.231703,4.50343 1.596638,1.59664 3.199497,2.2317 5.632664,2.2317 1.435901,0 1.78059,0.0959 2.334117,0.64943 1.186716,1.18672 0.622761,2.8168 -1.144306,3.30756 -1.087038,0.3019 -1.410116,0.30276 -3.42034,0.009 z M 43.88746,55.436962 c -1.340292,-1.32717 -2.022974,-1.78974 -3.123853,-2.11667 -1.97323,-0.58598 -3.566057,-0.51297 -5.413742,0.24816 -1.980929,0.81603 -2.531963,0.82025 -3.278941,0.0251 -0.447581,-0.47642 -0.572474,-0.88206 -0.509142,-1.65364 0.07973,-0.97141 0.171854,-1.06654 1.848152,-1.90855 4.8612,-2.44179 11.082192,-0.91551 14.288459,3.50557 0.919418,1.26777 0.947348,2.10046 0.09891,2.94889 -1.111944,1.11194 -1.956445,0.88539 -3.909848,-1.04888 z m 47.334329,58.794648 c 2.36197,-2.36196 0.7721,-6.02808 -2.61532,-6.03076 -1.01789,-8.1e-4 -1.41907,0.14959 -2.17913,0.81693 -2.718538,2.38691 -0.98896,6.55363 2.59213,6.24467 1.03121,-0.089 1.46217,-0.29069 2.20232,-1.03084 z m 17.734011,0.59447 c 1.71578,-1.04618 2.27562,-2.84015 1.43088,-4.58515 -0.66667,-1.37716 -1.72264,-2.04139 -3.24327,-2.04008 -2.28114,0.002 -3.8801,1.81285 -3.5795,4.05396 0.14319,1.06758 1.17959,2.4246 2.16512,2.83493 0.92557,0.38537 2.35372,0.26868 3.22677,-0.26366 z m 21.80748,-23.793008 c 0.91234,-0.91234 1.02709,-1.17123 1.02622,-2.31511 -0.002,-2.2774 -1.4572,-3.80345 -3.6239,-3.79969 -2.60802,0.005 -4.3316,2.9508 -3.10914,5.31476 0.59032,1.14155 1.85976,1.82508 3.39172,1.82625 1.14387,8.8e-4 1.40276,-0.11388 2.3151,-1.02621 z m -0.87726,-44.05717 c 2.38681,-1.23426 2.73257,-4.17225 0.70094,-5.95604 -2.2888,-2.00959 -5.94022,-0.27878 -5.94022,2.81573 0,2.48837 3.01055,4.29283 5.23928,3.14031 z M 90.579139,23.622852 c 1.60462,-0.80827 2.25133,-3.23483 1.27618,-4.78843 -0.66054,-1.05237 -2.01057,-1.91349 -3.00198,-1.91482 -3.27944,-0.004 -4.95585,3.89218 -2.66157,6.18646 1.19337,1.19337 2.69341,1.37006 4.38737,0.51679 z m 18.597691,-0.0947 c 1.05608,-0.6527 1.8199,-2.37724 1.59169,-3.5937 -0.4578,-2.44027 -3.28677,-3.75988 -5.35585,-2.49828 -3.22814,1.96832 -2.00569,6.62204 1.74034,6.62523 0.70276,6e-4 1.49985,-0.20942 2.02382,-0.53325 z"
       id="path1" /></g></svg>
