<?xml version="1.0" encoding="UTF-8" standalone="no"?>
<!-- Created with Inkscape (http://www.inkscape.org/) -->

<svg
   width="126mm"
   height="132mm"
   viewBox="0 0 126 132"
   version="1.1"
   id="svg1"
   xml:space="preserve"
   inkscape:version="1.3 (0e150ed6c4, 2023-07-21)"
   sodipodi:docname="business-model.svg"
   xmlns:inkscape="http://www.inkscape.org/namespaces/inkscape"
   xmlns:sodipodi="http://sodipodi.sourceforge.net/DTD/sodipodi-0.dtd"
   xmlns="http://www.w3.org/2000/svg"
   xmlns:svg="http://www.w3.org/2000/svg"><sodipodi:namedview
     id="namedview1"
     pagecolor="#ffffff"
     bordercolor="#000000"
     borderopacity="0.25"
     inkscape:showpageshadow="2"
     inkscape:pageopacity="0.0"
     inkscape:pagecheckerboard="0"
     inkscape:deskcolor="#d1d1d1"
     inkscape:document-units="mm"
     inkscape:zoom="0.49010913"
     inkscape:cx="506.00976"
     inkscape:cy="323.39736"
     inkscape:window-width="1920"
     inkscape:window-height="1017"
     inkscape:window-x="-8"
     inkscape:window-y="-8"
     inkscape:window-maximized="1"
     inkscape:current-layer="layer1" /><defs
     id="defs1" /><g
     inkscape:label="Warstwa 1"
     inkscape:groupmode="layer"
     id="layer1"><path
       style="fill:#000000"
       d="m 71.458982,130.92314 c -3.56775,-0.86357 -6.99698,-3.57005 -8.56842,-6.76254 -1.052255,-2.13773 -1.374372,-3.55558 -1.382461,-6.08515 -0.01773,-5.54338 3.512431,-10.43346 8.800761,-12.19107 0.9041,-0.30048 1.67015,-0.56556 1.70235,-0.58908 0.0322,-0.0235 -0.23456,-1.76265 -0.59277,-3.86476 -0.79188,-4.646934 -0.79953,-5.023814 -0.11692,-5.756514 0.69808,-0.7493 2.35865,-0.79438 3.00375,-0.0815 0.29613,0.32722 0.71498,2.00687 1.22367,4.907174 0.42538,2.42531 0.8339,4.50751 0.90782,4.62711 0.0739,0.1196 0.58946,0.29022 1.14564,0.37916 2.97409,0.47557 7.20897,3.85319 8.63583,6.88769 1.17192,2.49232 1.61433,5.18058 1.24562,7.56887 -1.19712,7.75425 -8.5234,12.77152 -16.00487,10.96065 z m 6.76698,-4.67047 c 1.82528,-0.83564 3.39978,-2.41928 4.3672,-4.39254 0.62077,-1.26618 0.73262,-1.82434 0.72421,-3.61412 -0.0113,-2.40549 -0.57194,-3.96808 -2.08716,-5.81721 -2.15821,-2.63381 -6.47549,-3.75613 -9.72776,-2.52883 -1.88121,0.70991 -3.98149,2.5656 -4.92202,4.34883 -0.6363,1.2064 -0.71279,1.63524 -0.71297,3.99721 -2.3e-4,2.96186 0.36927,3.98435 2.15349,5.95927 2.58078,2.85662 6.65291,3.67359 10.20501,2.04739 z M 48.537051,116.28318 C 39.92421,113.41447 32.744992,109.07974 26.310018,102.86275 17.785326,94.626826 12.266718,84.780706 9.6478009,73.134556 l -0.446235,-1.98438 -0.84613,1.66327 c -0.495301,0.97363 -1.108706,1.7829 -1.479412,1.95181 -1.15991,0.52849 -2.619591,-0.20226 -2.937978,-1.47081 -0.103501,-0.41238 0.598707,-2.22623 2.271904,-5.86848 1.331938,-2.89939 2.608248,-5.47998 2.836245,-5.73464 0.249942,-0.27918 0.7944045,-0.46302 1.3712351,-0.46302 1.00211,0 1.897825,0.80574 7.10716,6.39324 1.887704,2.02474 2.11382,2.95029 0.99428,4.06983 -1.131722,1.13172 -2.129532,0.90072 -3.766388,-0.87193 -1.616355,-1.75045 -1.660375,-1.66244 -0.893272,1.78594 4.229542,19.01315 18.737896,34.565834 37.475064,40.172574 2.118233,0.63384 2.847221,1.26641 2.847221,2.47063 0,0.96568 -1.091898,2.07839 -2.021178,2.05971 -0.319307,-0.006 -1.949777,-0.46772 -3.623266,-1.02512 z m 46.951511,-6.49181 c -0.35719,-0.35718 -0.64943,-0.94174 -0.64943,-1.299 0,-0.35727 0.66096,-2.83322 1.4688,-5.50213 1.64354,-5.429854 2.13779,-6.229604 3.667594,-5.934544 0.982774,0.18956 1.742784,1.03142 1.742784,1.93047 0,0.36166 -0.18961,1.309804 -0.42136,2.106974 -0.23174,0.79717 -0.36315,1.5076 -0.29202,1.57874 0.22259,0.22258 5.20395,-4.685844 7.28672,-7.180034 6.40976,-7.67591 10.78043,-17.64694 12.07965,-27.55791 0.45592,-3.47798 0.52231,-10.46489 0.12826,-13.499507 -0.14781,-1.138316 -0.58207,-3.535829 -0.96501,-5.327805 l -0.69627,-3.258139 0.52844,-0.710611 c 0.7355,-0.989038 2.37468,-1.123676 3.1652,-0.25998 0.66796,0.729802 1.49885,4.198066 2.09913,8.762109 0.58904,4.478643 0.39295,13.135553 -0.39154,17.285213 -2.00585,10.61025 -6.48829,20.04053 -13.31202,28.00621 -1.37125,1.600734 -3.3792,3.712774 -4.46212,4.693434 l -1.96894,1.783 2.03132,0.003 c 1.87764,0.003 2.0728,0.0557 2.57969,0.70007 0.71062,0.90341 0.6947,1.74907 -0.0492,2.61392 -0.57555,0.66913 -0.79255,0.71322 -5.88698,1.19627 -6.893098,0.65359 -6.899528,0.65348 -7.682678,-0.12968 z M 61.42269,92.118406 c -0.244567,-0.1819 -0.833319,-1.33155 -1.308338,-2.55478 -0.861044,-2.21728 -0.867693,-2.22542 -2.185591,-2.67625 -0.727055,-0.24871 -2.095825,-0.80402 -3.041711,-1.23401 l -1.719791,-0.78181 -1.852083,0.86041 c -3.108067,1.44389 -3.148321,1.42972 -7.066372,-2.48833 -2.639361,-2.63936 -3.38467,-3.5396 -3.38467,-4.08823 0,-0.38696 0.420117,-1.65907 0.933594,-2.82693 l 0.933593,-2.12338 -0.708221,-1.39517 c -0.389522,-0.76734 -0.958467,-2.09118 -1.264323,-2.94186 l -0.556101,-1.5467 -2.248958,-0.90363 c -1.236927,-0.49699 -2.397786,-1.10365 -2.579687,-1.34814 -0.487461,-0.65517 -0.449397,-9.822059 0.04348,-10.471755 0.19656,-0.259099 1.353633,-0.872771 2.571273,-1.363716 l 2.21389,-0.892628 0.556101,-1.5467 c 0.305856,-0.850685 0.874801,-2.174527 1.264323,-2.94187 l 0.708221,-1.395169 -0.933593,-2.123375 c -0.513477,-1.167856 -0.933594,-2.439975 -0.933594,-2.826932 0,-0.548632 0.745309,-1.448865 3.38467,-4.088226 3.918051,-3.918051 3.958305,-3.932225 7.066372,-2.488333 l 1.852083,0.860409 1.719791,-0.781808 c 0.945886,-0.429994 2.314656,-0.985299 3.041711,-1.234011 1.317898,-0.450828 1.324547,-0.458969 2.185591,-2.676252 0.475019,-1.223227 1.063771,-2.372877 1.308338,-2.554778 0.318474,-0.236872 1.845314,-0.330729 5.380174,-0.330729 5.75363,0 5.35332,-0.186119 6.59537,3.066481 l 0.81411,2.131923 1.516,0.47564 c 0.8338,0.261602 2.17084,0.803856 2.9712,1.205008 l 1.45521,0.729367 1.98438,-0.885833 c 3.13452,-1.399266 3.06224,-1.425106 6.9137,2.471684 1.8338,1.85539 3.41112,3.595339 3.50515,3.866553 0.10411,0.30027 -0.20887,1.377466 -0.80029,2.754449 -0.82496,1.920692 -0.92753,2.36454 -0.68091,2.946467 0.1597,0.376824 0.72999,1.760721 1.26731,3.075326 l 0.97695,2.390192 2.09323,0.776434 c 3.10305,1.150998 2.99673,0.916337 2.99673,6.614012 0,5.69768 0.10632,5.46302 -2.99673,6.61402 l -2.09323,0.77643 -0.97695,2.39019 c -0.53732,1.31461 -1.10761,2.69851 -1.26731,3.07533 -0.24662,0.58193 -0.14405,1.02577 0.68091,2.94647 0.59142,1.37698 0.9044,2.45418 0.80029,2.75445 -0.094,0.27121 -1.67135,2.01116 -3.50515,3.86655 -3.85146,3.89679 -3.77918,3.87095 -6.9137,2.47168 l -1.98438,-0.88583 -1.45521,0.72937 c -0.80036,0.40115 -2.1374,0.9434 -2.9712,1.205 l -1.516,0.47565 -0.81411,2.13192 c -1.24205,3.2526 -0.84174,3.06648 -6.59537,3.06648 -3.53486,0 -5.0617,-0.0939 -5.380174,-0.33073 z m 8.610822,-5.74148 c 0.41339,-1.08415 0.87211,-2.11636 1.01938,-2.29381 0.14727,-0.17745 1.12434,-0.58251 2.17127,-0.90013 1.04693,-0.31763 2.99065,-1.10603 4.31938,-1.752 l 2.41586,-1.17449 1.2883,0.50749 c 0.70857,0.27912 1.71488,0.69402 2.23626,0.92201 l 0.94795,0.41453 1.78436,-1.79813 1.78435,-1.79813 -0.81408,-1.79541 c -0.44774,-0.98748 -0.81408,-2.12432 -0.81408,-2.52631 0,-0.402 0.45478,-1.62017 1.01061,-2.70705 0.55584,-1.08687 1.28316,-2.85486 1.61627,-3.92885 0.33312,-1.074 0.74155,-2.09336 0.90762,-2.26526 0.16608,-0.17189 1.19493,-0.66461 2.28634,-1.09493 l 1.98437,-0.78239 v -2.57631 -2.57632 l -1.97172,-0.75731 c -1.08444,-0.41653 -2.11329,-0.90759 -2.28633,-1.09126 -0.17304,-0.183665 -0.58716,-1.212658 -0.92028,-2.286652 -0.33311,-1.073993 -1.06043,-2.841979 -1.61627,-3.928857 -0.55583,-1.086877 -1.01061,-2.305046 -1.01061,-2.707042 0,-0.401996 0.36634,-1.538836 0.81408,-2.52631 l 0.81408,-1.795409 -1.78435,-1.798131 -1.78436,-1.798131 -0.94795,0.414526 c -0.52138,0.227989 -1.52769,0.642895 -2.23626,0.922013 l -1.2883,0.507488 -2.41586,-1.17279 c -1.32873,-0.645034 -3.26526,-1.424777 -4.30342,-1.732761 -1.03815,-0.307984 -2.01522,-0.713811 -2.17127,-0.901838 -0.15605,-0.188028 -0.62195,-1.228895 -1.03534,-2.313038 l -0.75163,-1.97117 -2.52186,-0.07518 -2.52187,-0.07518 -0.7443,1.927263 c -0.40937,1.059995 -0.92504,2.136244 -1.145936,2.391665 -0.220896,0.255421 -1.201053,0.70248 -2.178127,0.993465 -0.977073,0.290986 -2.867136,1.071 -4.200138,1.733365 -2.648583,1.316073 -2.515204,1.313307 -5.201903,0.107867 l -1.63501,-0.73358 -1.807516,1.821474 -1.807516,1.821473 0.614603,1.393684 c 1.267894,2.875097 1.269631,3.015495 0.06546,5.291822 -0.595296,1.12533 -1.339036,2.911267 -1.652754,3.968749 -0.313719,1.057482 -0.764241,2.126816 -1.00116,2.376297 -0.236919,0.249481 -1.2642,0.794628 -2.282846,1.211448 l -1.852083,0.75784 v 2.60419 2.6042 l 1.852083,0.75784 c 1.018646,0.41681 2.045927,0.96196 2.282846,1.21144 0.236919,0.24948 0.687441,1.31882 1.00116,2.3763 0.313718,1.05748 1.057458,2.84342 1.652754,3.96875 1.204171,2.27633 1.202434,2.41672 -0.06546,5.29182 l -0.614603,1.39369 1.807516,1.82147 1.807516,1.82147 1.63501,-0.73358 c 2.694856,-1.2091 2.612863,-1.2081 4.854019,-0.0588 1.123874,0.57633 3.015785,1.36874 4.204246,1.76091 1.188461,0.39217 2.332445,0.91194 2.542185,1.15503 0.209741,0.2431 0.716284,1.30926 1.125654,2.36925 l 0.7443,1.92727 2.52187,-0.0752 2.52186,-0.0752 z m -7.20896,-9.93937 c -2.761063,-0.75519 -5.247108,-2.18962 -7.274264,-4.19719 -2.25731,-2.2355 -3.637947,-4.58804 -4.36816,-7.44314 -2.194261,-8.57948 3.087377,-17.366634 11.764154,-19.572235 3.31962,-0.843833 7.64974,-0.36045 10.80866,1.2066 10.00919,4.965276 12.10104,18.261975 4.08249,25.950085 -1.71388,1.64325 -3.79162,2.91368 -6.01705,3.6791 -2.24099,0.77078 -6.84963,0.96381 -8.99583,0.37678 z m 8.80576,-4.82908 c 3.52716,-1.63074 6.17171,-5.15751 6.78821,-9.05277 0.79465,-5.02085 -1.98581,-10.163286 -6.73043,-12.447853 -1.61276,-0.776554 -2.17688,-0.905485 -4.36563,-0.997771 -2.06295,-0.08698 -2.81371,-0.0046 -4.18801,0.459698 -10.903222,3.683388 -10.992152,18.664096 -0.13357,22.501446 1.25801,0.44457 2.03278,0.52893 4.18929,0.45614 2.29856,-0.0776 2.88134,-0.1982 4.44014,-0.91889 z m -5.97077,-0.4822 c -0.43961,-0.23839 -0.79627,-0.69653 -0.88409,-1.13563 -0.10611,-0.53055 -0.39148,-0.82437 -1.02219,-1.05243 -1.163723,-0.42081 -2.937452,-2.38203 -3.281622,-3.62851 -0.342617,-1.24086 0.05051,-2.20205 1.107916,-2.70886 1.079065,-0.51718 2.049916,-0.096 2.773216,1.20309 0.74828,1.34397 1.79142,1.78164 3.28668,1.37901 1.16102,-0.31263 1.53532,-0.89281 0.9522,-1.47593 -0.21487,-0.21488 -1.33248,-0.62383 -2.48358,-0.90878 -1.15109,-0.28496 -2.56915,-0.84566 -3.15123,-1.246 -1.232983,-0.848 -2.2515,-2.67241 -2.243148,-4.01802 0.01164,-1.875461 1.491274,-4.077563 3.221288,-4.794157 0.40791,-0.168962 0.74165,-0.504391 0.74165,-0.745399 0,-0.739565 0.75284,-1.563241 1.59858,-1.748997 1.01071,-0.22199 2.043,0.405378 2.41288,1.466424 0.14636,0.41984 0.50744,0.839943 0.8024,0.933561 0.89968,0.285548 2.47752,1.886942 2.99933,3.044104 0.44387,0.984334 0.45436,1.164594 0.10403,1.788744 -0.93419,1.66438 -2.73052,1.74977 -3.75108,0.17832 -0.32684,-0.50328 -0.91503,-1.02816 -1.30707,-1.166403 -0.88116,-0.31071 -2.0624,-0.02004 -2.44195,0.600903 -0.38955,0.63729 0.53923,1.38361 2.03102,1.63201 4.77472,0.79506 7.13736,4.11566 5.49797,7.72718 -0.49205,1.08397 -2.51231,2.7153 -3.36266,2.7153 -0.18702,0 -0.41521,0.29954 -0.5071,0.66564 -0.1888,0.75224 -1.28494,1.72098 -1.92922,1.70501 -0.23503,-0.006 -0.75893,-0.19041 -1.16422,-0.41018 z M 9.9966204,51.591485 C 6.9042109,50.841509 4.0757529,48.840717 2.2563999,46.116214 -0.62904507,41.795225 -0.62905107,35.94681 2.2563869,31.625833 c 1.382388,-2.070142 2.829561,-3.316521 5.137957,-4.425071 5.2211841,-2.507342 10.8476341,-1.586598 14.8854921,2.435946 2.942704,2.931544 4.393894,7.166147 3.777696,11.023396 -0.15411,0.964686 -0.346103,1.925717 -0.426652,2.135626 -0.107477,0.28008 0.438977,0.603279 2.053296,1.214416 1.209863,0.458021 2.989614,1.13133 3.955003,1.496243 2.04655,0.773586 2.698567,1.386817 2.698567,2.538038 0,0.918195 -1.07154,2.071378 -1.924728,2.071378 -0.26626,0 -2.362724,-0.709137 -4.658809,-1.57586 l -4.1747,-1.575861 -1.491785,1.377423 c -3.400049,3.139395 -7.738594,4.305556 -12.0911036,3.249978 z m 6.9979056,-4.746842 c 3.843461,-1.967395 5.728304,-5.969214 4.70257,-9.9843 -0.721612,-2.824646 -2.313602,-4.777378 -4.910044,-6.02265 -1.952899,-0.936625 -5.298062,-0.994132 -7.1902291,-0.123609 -1.665702,0.766335 -3.551691,2.553417 -4.408766,4.177558 -0.626089,1.186427 -0.703722,1.625419 -0.703722,3.979372 0,2.358597 0.07655,2.789451 0.705127,3.96875 0.97699,1.832972 2.753524,3.473271 4.6078405,4.254485 2.1579046,0.909115 5.1352946,0.805856 7.1972236,-0.249606 z M 93.636482,38.88304 c -0.77098,-0.770979 -0.85304,-1.971556 -0.18641,-2.727227 0.35296,-0.400113 6.513334,-5.561052 6.886578,-5.769326 0.0404,-0.02257 -0.049,-0.363508 -0.1989,-0.757633 -0.595598,-1.566506 -0.832118,-4.250049 -0.539518,-6.121231 1.370598,-8.764926 10.627328,-13.6646379 18.584288,-9.836904 2.37994,1.144886 3.81758,2.375899 5.2102,4.461365 4.29297,6.428776 1.93043,15.520575 -4.9025,18.866334 -4.96768,2.432434 -10.64951,1.719686 -14.59913,-1.831367 l -1.32471,-1.191024 -3.367728,2.778223 c -3.71041,3.060916 -4.3755,3.315464 -5.56217,2.12879 z m 22.415808,-5.367535 c 1.65031,-0.734324 3.54454,-2.521184 4.40876,-4.158869 0.62609,-1.186427 0.70372,-1.625419 0.70372,-3.979372 0,-2.353953 -0.0776,-2.792945 -0.70372,-3.979371 -0.85707,-1.624142 -2.74306,-3.411224 -4.40876,-4.177559 -1.87882,-0.864383 -5.23088,-0.812124 -7.19023,0.112096 -1.84318,0.869417 -3.48123,2.510211 -4.42227,4.429658 -0.62341,1.271567 -0.73242,1.819071 -0.71981,3.615176 0.0277,3.946394 1.89276,6.672879 5.6502,8.259869 1.85985,0.785525 4.7621,0.732698 6.68211,-0.121628 z M 25.520325,22.469002 c -0.383197,-0.407895 -0.619384,-0.982323 -0.619384,-1.506397 0,-0.715924 0.33171,-1.161886 2.142202,-2.880051 C 34.48637,11.018901 44.720636,5.7355244 54.88705,3.7083074 c 10.030972,-2.000209 19.420252,-1.55824 29.168582,1.373015 l 2.57797,0.775175 -0.91681,-1.276127 c -1.17281,-1.632468 -1.347,-2.353799 -0.81625,-3.38015 0.47539,-0.91931097 1.46333,-1.29160097 2.46853,-0.93023397 0.43233,0.155419 1.82497,1.90104697 4.06389,5.09395697 4.87274,6.9489796 4.87729,6.9333786 -2.52573,8.6625296 -2.74168,0.640383 -5.25097,1.164333 -5.57622,1.164333 -1.01663,0 -1.98563,-0.977761 -1.98563,-2.003578 0,-1.113751 0.67718,-1.84515 2.03656,-2.199618 0.55338,-0.144298 1.42287,-0.370714 1.93219,-0.503148 0.90374,-0.23499 0.85483,-0.263571 -2.03129,-1.1868806 -14.69784,-4.702041 -30.76964,-2.907588 -44.07089,4.9206136 -3.065057,1.803883 -5.944755,3.928533 -9.140848,6.744146 -2.736643,2.410859 -3.472465,2.654473 -4.550779,1.506661 z"
       id="path1" /></g></svg>
