<?xml version="1.0" encoding="UTF-8" standalone="no"?>
<!-- Created with Inkscape (http://www.inkscape.org/) -->

<svg
   width="177.10001mm"
   height="177.5mm"
   viewBox="0 0 177.10001 177.50001"
   version="1.1"
   id="svg1"
   xml:space="preserve"
   inkscape:version="1.3 (0e150ed6c4, 2023-07-21)"
   sodipodi:docname="facebook.svg"
   xmlns:inkscape="http://www.inkscape.org/namespaces/inkscape"
   xmlns:sodipodi="http://sodipodi.sourceforge.net/DTD/sodipodi-0.dtd"
   xmlns="http://www.w3.org/2000/svg"
   xmlns:svg="http://www.w3.org/2000/svg"><sodipodi:namedview
     id="namedview1"
     pagecolor="#ffffff"
     bordercolor="#000000"
     borderopacity="0.25"
     inkscape:showpageshadow="2"
     inkscape:pageopacity="0.0"
     inkscape:pagecheckerboard="0"
     inkscape:deskcolor="#d1d1d1"
     inkscape:document-units="mm"
     inkscape:zoom="0.73139029"
     inkscape:cx="381.46528"
     inkscape:cy="296.01159"
     inkscape:window-width="1920"
     inkscape:window-height="1017"
     inkscape:window-x="-8"
     inkscape:window-y="-8"
     inkscape:window-maximized="1"
     inkscape:current-layer="layer1" /><defs
     id="defs1" /><g
     inkscape:label="Warstwa 1"
     inkscape:groupmode="layer"
     id="layer1"><path
       style="fill:#000000;stroke-width:1.61533"
       d="M 40.431236,176.75351 C 23.084601,174.4718 8.3098311,162.37544 2.6907732,145.85478 0.29346068,138.80637 0.4102168,141.72761 0.4102168,88.798985 0.4102168,35.870342 0.29342838,38.791603 2.6907732,31.743187 8.4166206,14.908516 23.41563,2.8520088 41.186338,0.79966621 43.426221,0.54098712 60.412185,0.45508382 91.02382,0.54760997 c 42.18127,0.12744961 46.68182,0.19941261 49.08238,0.78425933 9.8301,2.3949542 16.77725,6.2210109 23.40851,12.8919397 6.3425,6.380428 10.18678,13.453316 12.52211,23.038689 0.58486,2.40056 0.65678,6.901098 0.78427,49.082364 0.1449,47.913718 0.0834,50.403958 -1.38624,56.149968 -3.84946,15.0513 -15.55146,27.56575 -30.23164,32.3306 -5.57549,1.80969 -7.28288,2.00854 -18.9761,2.20998 -12.08002,0.20814 -12.45845,0.15863 -13.48867,-1.76641 -0.27159,-0.50746 -0.39516,-10.94427 -0.38692,-32.67793 0.0129,-35.20042 -0.1197,-33.26968 2.35085,-34.13089 0.69219,-0.2413 4.49633,-0.4058 9.38401,-0.4058 h 8.2199 l 0.21273,-1.03829 c 0.22018,-1.07468 2.49017,-15.123584 2.49017,-15.41163 0,-0.08949 -4.57784,-0.162583 -10.17298,-0.162583 h -10.17298 l -1.05933,-0.910368 -1.05934,-0.910385 -0.18877,-9.189262 c -0.10386,-5.054096 -0.0711,-10.342092 0.0729,-11.751096 0.45953,-4.500425 2.60043,-7.942679 6.1061,-9.817739 1.45659,-0.779075 2.1355,-0.842929 10.1504,-0.954823 l 8.58943,-0.119857 v -7.688943 c 0,-8.855486 0.53871,-7.887273 -4.71947,-8.48199 -18.1805,-2.056267 -32.905532,3.643234 -37.065332,14.346562 -0.57215,1.47218 -0.681718,3.71917 -0.861698,17.67164 l -0.206181,15.985008 -1.059334,0.910658 c -1.058414,0.909852 -1.067653,0.910643 -10.477198,0.910643 h -9.417864 v 8.287795 8.28779 l 9.470491,0.11292 9.470492,0.11291 1.10109,1.23301 1.10109,1.23302 v 32.11541 32.1154 l -1.103626,1.10363 -1.103626,1.10363 -24.853385,-0.0478 c -13.669367,-0.0263 -25.872804,-0.18196 -27.118741,-0.34586 z m 46.628239,-34.1527 V 115.6055 H 77.59152 68.123564 l -1.103626,-1.10363 -1.103626,-1.10362 V 99.952668 c 0,-14.822778 0.0016,-14.838931 2.346591,-15.656111 0.701086,-0.244415 4.659034,-0.405819 9.951101,-0.405819 H 87.001 l 0.141018,-13.497641 c 0.140696,-13.472425 0.142957,-13.503359 1.15787,-16.547708 1.837713,-5.512204 5.28344,-9.844618 10.579496,-13.301911 9.700656,-6.332663 24.727436,-8.37197 40.460956,-5.491027 2.72301,0.498604 3.59298,0.825951 4.4363,1.669267 l 1.04902,1.049028 v 12.513226 c 0,7.860329 -0.14457,12.783341 -0.38874,13.239624 -0.91105,1.702316 -2.00219,1.86687 -12.37851,1.86687 -9.22706,0 -9.83922,0.04313 -10.74856,0.758478 -0.95779,0.753391 -1.78048,3.319909 -1.78048,5.554445 0,0.544496 -0.29733,1.343148 -0.66073,1.774813 -0.66006,0.784049 -0.65987,0.784114 0.18878,0.06558 l 0.8495,-0.719242 v 5.53309 5.53309 h 9.82861 c 11.10594,0 12.08702,0.178316 12.9997,2.36268 0.47846,1.145108 0.34609,2.387539 -1.48465,13.93485 -1.10547,6.97269 -2.19877,13.03048 -2.42959,13.46173 -0.9926,1.85471 -1.53396,1.9555 -10.50304,1.9555 h -8.41103 v 26.99532 26.99529 h 6.76871 c 8.03727,0 11.50482,-0.41813 16.07348,-1.93821 13.6272,-4.53404 23.61419,-16.04974 26.05432,-30.04256 0.84236,-4.83044 0.84236,-92.802282 0,-97.632703 C 166.02598,24.055488 153.31321,11.342721 137.38608,8.5652566 132.56007,7.7236691 44.584235,7.7228292 39.758773,8.5643197 23.76102,11.354093 11.137726,23.998628 8.3267598,40.049219 c -0.8338823,4.761414 -0.8255311,92.779121 0.00969,97.566101 1.1266772,6.46084 4.2352522,13.10213 8.5937862,18.36009 5.489896,6.62281 15.025905,11.97965 23.501434,13.20192 1.245937,0.17967 12.247003,0.34739 24.446806,0.37272 l 22.181449,0.046 z"
       id="path2" /></g></svg>
