<?xml version="1.0" encoding="UTF-8" standalone="no"?>
<!-- Created with Inkscape (http://www.inkscape.org/) -->

<svg
   width="5000"
   height="1000"
   viewBox="0 0 1322.9166 264.58333"
   version="1.1"
   id="svg1"
   xml:space="preserve"
   inkscape:version="1.3 (0e150ed6c4, 2023-07-21)"
   sodipodi:docname="FULL_Fakturniak_z_mniejszym_logo.svg"
   xmlns:inkscape="http://www.inkscape.org/namespaces/inkscape"
   xmlns:sodipodi="http://sodipodi.sourceforge.net/DTD/sodipodi-0.dtd"
   xmlns="http://www.w3.org/2000/svg"
   xmlns:svg="http://www.w3.org/2000/svg"
   xmlns:rdf="http://www.w3.org/1999/02/22-rdf-syntax-ns#"
   xmlns:cc="http://creativecommons.org/ns#"
   xmlns:dc="http://purl.org/dc/elements/1.1/"><title
     id="title1">Fakturniak</title><sodipodi:namedview
     id="namedview1"
     pagecolor="#141414"
     bordercolor="#000000"
     borderopacity="0.25"
     inkscape:showpageshadow="2"
     inkscape:pageopacity="0.0"
     inkscape:pagecheckerboard="0"
     inkscape:deskcolor="#d1d1d1"
     inkscape:document-units="mm"
     inkscape:zoom="0.12929276"
     inkscape:cx="2277.7765"
     inkscape:cy="831.44642"
     inkscape:window-width="1920"
     inkscape:window-height="1017"
     inkscape:window-x="-8"
     inkscape:window-y="-8"
     inkscape:window-maximized="1"
     inkscape:current-layer="layer1"
     showborder="true" /><defs
     id="defs1"><clipPath
       clipPathUnits="userSpaceOnUse"
       id="clipPath2"><rect
         style="fill:#000000;fill-opacity:1;stroke-width:1.53953;-inkscape-stroke:none"
         id="rect2"
         width="914.51392"
         height="417.4176"
         x="438.24042"
         y="-49.62307"
         transform="matrix(1,0,0.13052619,0.99144486,0,0)" /></clipPath></defs><g
     inkscape:label="Warstwa 1"
     inkscape:groupmode="layer"
     id="layer1"
     transform="matrix(1,0,-0.1316525,1,11.781531,0)"><path
       style="fill:#000000;stroke-width:8.7999"
       d="m 246.71558,264.12078 c -5.1418,-0.47519 -9.07767,-2.14998 -12.49834,-5.31697 -3.86736,-3.58052 -5.84493,-7.88112 -6.42122,-13.96422 -0.23769,-2.50912 -0.31355,-37.82223 -0.24762,-115.3247 l 0.0951,-111.708147 0.69933,-2.45005 c 2.11021,-7.3926194 7.07696,-12.3733707 14.42561,-14.46629469 l 2.50468,-0.71331985 81.50865,-0.08447904 81.50859,-0.08447902 3.1137,0.63605671 c 4.49073,0.91738939 7.34269,2.41650499 10.33709,5.43361229 2.73006,2.7507427 4.14059,5.1631826 5.20587,8.9035796 l 0.71328,2.504679 0.0888,114.593012 0.0888,114.59303 -0.50091,2.27635 c -1.60482,7.29354 -7.16281,13.01593 -14.45252,14.88037 l -2.47587,0.63359 -80.48435,-0.044 c -44.26628,-0.0263 -81.71033,-0.1584 -83.20884,-0.29654 z m 167.22698,-8.48618 c 1.93299,-0.96332 4.372,-3.46162 5.23472,-5.36212 l 0.61572,-1.35651 0.006,-116.53342 0.006,-116.533441 -0.81179,-1.628976 c -0.96984,-1.946414 -3.77588,-4.6935753 -5.67414,-5.5551825 l -1.36726,-0.6205688 -83.72903,-0.00706 -83.72902,-0.00703 -1.85514,0.6931678 c -2.56275,0.9582707 -5.49174,3.8889105 -6.4512,6.4567215 l -0.69537,1.860967 0.0827,115.136092 0.0826,115.13608 0.99193,2.08356 c 1.59676,3.3539 4.66158,5.90244 8.06202,6.70384 0.67969,0.16015 37.40907,0.29744 84.40065,0.31592 l 83.19729,0.0352 z m -167.40184,-13.11484 -0.78679,-0.78671 v -5.31804 -5.31805 l 0.78679,-0.78671 0.78681,-0.78671 h 34.16663 34.16665 l 0.78681,0.78671 0.78679,0.78671 v 5.31805 5.31804 l -0.78679,0.78671 -0.78681,0.78671 h -34.16665 -34.16663 z m 91.99496,-0.32033 -0.78678,-0.7867 v -5.31804 -5.31803 l 0.78678,-0.78673 0.78681,-0.78671 h 34.16665 34.16662 l 0.78682,0.78671 0.7868,0.78673 v 5.31803 5.31804 l -0.7868,0.7867 -0.78682,0.78673 h -34.16662 -34.16668 z m -91.99496,-24.04043 -0.78679,-0.78671 v -13.97266 -13.97256 l 0.78679,-0.78672 0.78681,-0.78671 h 34.00637 34.00637 l 0.7868,0.78671 0.7868,0.78672 v 13.97256 13.97266 l -0.7868,0.78671 -0.7868,0.78672 H 281.3339 247.32753 Z m 92.3155,0 -0.7868,-0.78671 v -13.97257 -13.97265 l 0.7868,-0.78672 0.78682,-0.78671 h 34.00636 34.00636 l 0.78682,0.78671 0.7868,0.78672 v 13.97265 13.97257 l -0.7868,0.78671 -0.78682,0.78672 H 373.6494 339.64301 Z m -92.06933,-47.15206 -0.71243,-0.49896 v -27.85066 -27.85061 l 0.71243,-0.49895 0.71244,-0.49896 h 80.07823 80.07823 l 0.78679,0.7868 0.7868,0.7868 v 27.27503 27.27504 l -0.7868,0.78671 -0.78679,0.78671 h -80.07827 -80.07823 z m 81.02529,-19.20305 v -1.11063 l -3.25949,-0.0916 c -1.95952,-0.0528 -3.30503,-0.22879 -3.3736,-0.4356 -0.0624,-0.18919 1.40404,-2.33425 3.25948,-4.76646 1.85548,-2.43218 3.37361,-4.69332 3.37361,-5.02476 v -0.60262 h -5.25464 -5.2546 l -0.19457,0.50706 c -0.10698,0.27886 -0.19455,0.78371 -0.19455,1.12188 v 0.61485 h 2.89492 c 2.21932,0 2.93611,0.10736 3.07143,0.45998 0.10505,0.27385 -1.19609,2.23537 -3.21545,4.84744 -1.86559,2.41303 -3.39199,4.65823 -3.39199,4.9892 v 0.60191 h 5.76973 5.76972 z m 6.73134,-4.28415 v -5.39485 l 1.52255,-1.07155 c 0.83741,-0.58933 1.5818,-1.11777 1.65416,-1.17426 0.0721,-0.0563 -0.1313,-0.39335 -0.45285,-0.74852 l -0.58439,-0.64573 -0.66907,0.43375 c -1.28889,0.83554 -1.4704,0.39881 -1.4704,-3.53753 v -3.69689 l -0.72125,0.19325 c -0.3967,0.10631 -1.04577,0.19526 -1.44245,0.19765 l -0.72121,0.004 -0.006,4.88823 c -0.003,2.68853 -0.11084,5.0401 -0.24031,5.22572 -0.12945,0.18558 -0.77638,0.74367 -1.43751,1.24007 -1.34778,1.01204 -1.38158,1.09942 -0.7559,1.95514 l 0.44616,0.60982 0.51145,-0.42414 c 0.28122,-0.2332 0.72959,-0.34056 0.99629,-0.23848 l 0.48489,0.18568 v 3.6963 3.69623 h 1.44244 1.44241 z m -37.99856,-39.62673 -0.78679,-0.78679 v -3.71534 -3.715334 l 0.78679,-0.7868 0.7868,-0.786797 h 29.35853 29.35854 l 0.78681,0.786797 0.78681,0.7868 v 3.715334 3.71536 l -0.78681,0.7868 -0.78681,0.78681 H 326.69029 297.33176 Z M 246.78689,82.217089 246.07446,81.718132 V 66.689111 51.660089 l 0.71243,-0.498954 0.71244,-0.498955 h 38.72857 38.72859 l 0.78681,0.786798 0.78679,0.786799 v 14.453429 14.453442 l -0.78679,0.786796 -0.78681,0.7868 H 286.2279 247.49933 Z m 82.45313,-0.287755 -0.78678,-0.7868 V 66.689096 52.235668 l 0.78678,-0.786801 0.78682,-0.7868 h 38.81446 38.81446 l 0.78682,0.7868 0.7868,0.786801 v 14.453428 14.453438 l -0.7868,0.7868 -0.78682,0.786799 H 368.8413 330.02684 Z M 246.84369,44.006005 c -0.98478,-0.657526 -1.08974,-1.760163 -1.08974,-11.447886 v -9.812141 l 0.78679,-0.786799 0.7868,-0.786799 h 38.96018 38.96017 l 0.64107,0.641073 0.6411,0.641072 V 32.82239 43.190256 l -0.58618,0.530456 -0.58616,0.530459 -39.08063,-0.0048 c -21.49436,-0.0027 -39.23935,-0.11087 -39.43333,-0.240426 z m 82.6425,-0.253708 -0.71243,-0.498957 V 32.711889 22.17042 l 0.71243,-0.498954 0.71246,-0.498954 h 38.8184 38.81838 l 0.69694,0.741919 0.69698,0.741831 v 10.100605 10.100612 l -0.74192,0.69695 -0.74192,0.696953 H 368.97203 330.19859 Z M 159.84926,240.74227 V 224.3947 h 7.3724 7.37243 v 8.33403 8.33403 h 8.33403 8.33405 v -8.33403 -8.33403 l 4.08687,0.004 4.0869,0.004 7.98481,8.19623 7.98482,8.19622 -8.14273,8.14749 -8.14273,8.14738 h -19.63543 -19.63542 z m -63.146374,12.18046 c 0,-0.49895 0.213648,-0.64062 0.961618,-0.64062 h 0.961627 v -2.43881 -2.43881 l -0.781695,0.19625 c -0.429965,0.10825 -0.865382,0.0615 -0.96762,-0.10473 -0.232854,-0.37663 1.783581,-1.9453 2.500799,-1.9453 h 0.530722 v 3.3657 3.36569 h 0.801323 c 0.58765,0 0.80131,0.17071 0.80131,0.64152 v 0.64151 h -2.404038 -2.404055 z m 40.067484,0 c 0,-0.49895 0.21366,-0.64062 0.96163,-0.64062 h 0.96161 v -2.43881 -2.43881 l -0.78168,0.19625 c -0.42997,0.10825 -0.86539,0.0615 -0.96764,-0.10473 -0.23284,-0.37663 1.78359,-1.9453 2.50081,-1.9453 h 0.53071 v 3.3657 3.36569 h 0.80132 c 0.58766,0 0.80132,0.17071 0.80132,0.64152 v 0.64151 h -2.40404 -2.40406 z m -31.71017,-0.52446 c -0.51066,-0.64945 -0.66439,-1.30662 -0.66439,-2.84158 0,-2.54203 0.75995,-3.68629 2.44838,-3.68629 1.52077,0 2.22627,0.43825 2.64654,1.64383 0.74772,2.14481 0.17019,5.04111 -1.10253,5.52951 -1.24281,0.47695 -2.66165,0.20152 -3.32805,-0.64592 z m 2.79748,-0.5016 c 0.21508,-0.21472 0.38464,-1.24651 0.38464,-2.33989 0,-2.01765 -0.34645,-2.72463 -1.33499,-2.72463 -0.78785,0 -1.22933,0.97837 -1.22933,2.72463 0,0.81663 0.14934,1.76349 0.33185,2.10458 0.37399,0.69872 1.27028,0.81312 1.84784,0.23584 z m 5.21601,0.5016 c -0.51066,-0.64945 -0.6643,-1.30662 -0.6643,-2.84158 0,-2.54203 0.75996,-3.68629 2.44839,-3.68629 1.52075,0 2.22628,0.43825 2.64652,1.64383 0.74773,2.14481 0.17021,5.04111 -1.10253,5.52951 -1.24279,0.47695 -2.66164,0.20152 -3.32803,-0.64592 z m 2.79749,-0.5016 c 0.21505,-0.21472 0.38464,-1.24651 0.38464,-2.33989 0,-2.01765 -0.34645,-2.72463 -1.33499,-2.72463 -0.78785,0 -1.22932,0.97837 -1.22932,2.72463 0,0.81663 0.14934,1.76349 0.33184,2.10458 0.374,0.69872 1.27028,0.81312 1.84786,0.23584 z m 5.21601,0.5016 c -0.51067,-0.64945 -0.66431,-1.30662 -0.66431,-2.84158 0,-2.54203 0.75996,-3.68629 2.4484,-3.68629 1.52075,0 2.22626,0.43825 2.64653,1.64383 0.74773,2.14481 0.1702,5.04111 -1.10254,5.52951 -1.2428,0.47695 -2.66164,0.20152 -3.32804,-0.64592 z m 2.79748,-0.5016 c 0.21508,-0.21472 0.38464,-1.24651 0.38464,-2.33989 0,-2.01765 -0.34645,-2.72463 -1.33497,-2.72463 -0.78786,0 -1.22934,0.97837 -1.22934,2.72463 0,0.81663 0.14934,1.76349 0.33185,2.10458 0.37398,0.69872 1.27027,0.81312 1.84785,0.23584 z m 5.21602,0.5016 c -0.51067,-0.64945 -0.66431,-1.30662 -0.66431,-2.84158 0,-2.54203 0.75996,-3.68629 2.44837,-3.68629 1.52077,0 2.22628,0.43825 2.64655,1.64383 0.74772,2.14481 0.1702,5.04111 -1.10254,5.52951 -1.2428,0.47695 -2.66163,0.20152 -3.32804,-0.64592 z m 2.79748,-0.5016 c 0.21509,-0.21472 0.38464,-1.24651 0.38464,-2.33989 0,-2.01765 -0.34645,-2.72463 -1.335,-2.72463 -0.78785,0 -1.22932,0.97837 -1.22932,2.72463 0,0.81663 0.14934,1.76349 0.33184,2.10458 0.37399,0.69872 1.27029,0.81312 1.84786,0.23584 z m 13.22951,0.5016 c -0.51066,-0.64945 -0.66439,-1.30662 -0.66439,-2.84158 0,-2.54203 0.75996,-3.68629 2.44838,-3.68629 1.52077,0 2.22628,0.43825 2.64654,1.64383 0.74773,2.14481 0.1702,5.04111 -1.10253,5.52951 -1.24281,0.47695 -2.66164,0.20152 -3.32804,-0.64592 z m 2.79749,-0.5016 c 0.21508,-0.21472 0.38465,-1.24651 0.38465,-2.33989 0,-2.01765 -0.34646,-2.72463 -1.335,-2.72463 -0.78785,0 -1.22932,0.97837 -1.22932,2.72463 0,0.81663 0.14934,1.76349 0.33184,2.10458 0.374,0.69872 1.27028,0.81312 1.84786,0.23584 z m 5.21601,0.5016 c -0.51066,-0.64945 -0.6643,-1.30662 -0.6643,-2.84158 0,-2.54203 0.75995,-3.68629 2.44838,-3.68629 1.52076,0 2.22628,0.43825 2.64655,1.64383 0.74772,2.14481 0.17019,5.04111 -1.10254,5.52951 -1.2428,0.47695 -2.66165,0.20152 -3.32804,-0.64592 z m 2.79749,-0.5016 c 0.21508,-0.21472 0.38464,-1.24651 0.38464,-2.33989 0,-2.01765 -0.34646,-2.72463 -1.33499,-2.72463 -0.78784,0 -1.22932,0.97837 -1.22932,2.72463 0,0.81663 0.14933,1.76349 0.33184,2.10458 0.37399,0.69872 1.27027,0.81312 1.84786,0.23584 z m -29.10503,-18.66125 c 0,-4.30483 0.0872,-8.05515 0.19456,-8.33402 l 0.19456,-0.50688 h 7.81895 7.81893 v 8.33404 8.33403 h -8.0135 -8.0135 z m -38.464786,3.01891 c 0,-0.49896 0.213647,-0.64065 0.96162,-0.64065 h 0.961618 v -2.4388 -2.4388 l -0.781697,0.19625 c -0.429962,0.10824 -0.865382,0.0616 -0.967629,-0.10474 -0.232853,-0.37663 1.78359,-1.94531 2.500801,-1.94531 h 0.530721 v 3.3657 3.36561 h 0.801319 c 0.587659,0 0.801318,0.17072 0.801318,0.64063 v 0.64151 h -2.404051 -2.404045 z m 64.107986,0 c 0,-0.49896 0.21364,-0.64065 0.96162,-0.64065 h 0.96161 v -2.4388 -2.4388 l -0.78169,0.19625 c -0.42996,0.10824 -0.86539,0.0616 -0.96763,-0.10474 -0.23284,-0.37663 1.78358,-1.94531 2.50079,-1.94531 h 0.53073 v 3.3657 3.36561 h 0.80133 c 0.58764,0 0.8013,0.17072 0.8013,0.64063 v 0.64151 h -2.40403 -2.40405 z m -55.750686,-0.5236 c -0.510657,-0.64944 -0.664394,-1.30661 -0.664394,-2.84158 0,-2.54203 0.75996,-3.68628 2.448387,-3.68628 1.520763,0 2.226283,0.43823 2.646543,1.64382 0.74773,2.14481 0.1702,5.04112 -1.10254,5.52951 -1.242798,0.47695 -2.661642,0.20153 -3.328042,-0.64502 z m 2.797489,-0.50159 c 0.215051,-0.21472 0.384641,-1.24652 0.384641,-2.33991 0,-2.01763 -0.346449,-2.72461 -1.334986,-2.72461 -0.787857,0 -1.22933,0.97837 -1.22933,2.72461 0,0.81665 0.149343,1.76351 0.331843,2.1046 0.373997,0.6987 1.270285,0.8131 1.847856,0.23584 z m 5.216007,0.50159 c -0.51066,-0.64944 -0.6643,-1.30661 -0.6643,-2.84158 0,-2.54203 0.75996,-3.68628 2.44838,-3.68628 1.52076,0 2.22627,0.43823 2.64654,1.64382 0.74773,2.14481 0.1702,5.04112 -1.10254,5.52951 -1.2428,0.47695 -2.66164,0.20153 -3.32804,-0.64502 z m 2.79749,-0.50159 c 0.21508,-0.21472 0.38464,-1.24652 0.38464,-2.33991 0,-2.01763 -0.34645,-2.72461 -1.33499,-2.72461 -0.78786,0 -1.22933,0.97837 -1.22933,2.72461 0,0.81665 0.14934,1.76351 0.33184,2.1046 0.374,0.6987 1.27028,0.8131 1.84786,0.23584 z m 5.21601,0.50159 c -0.51066,-0.64944 -0.66431,-1.30661 -0.66431,-2.84158 0,-2.54203 0.75996,-3.68628 2.44839,-3.68628 1.52075,0 2.22627,0.43823 2.64653,1.64382 0.74773,2.14481 0.1702,5.04112 -1.10254,5.52951 -1.24279,0.47695 -2.66163,0.20153 -3.32804,-0.64502 z m 2.79749,-0.50159 c 0.21505,-0.21472 0.38464,-1.24652 0.38464,-2.33991 0,-2.01763 -0.34645,-2.72461 -1.33499,-2.72461 -0.78785,0 -1.22934,0.97837 -1.22934,2.72461 0,0.81665 0.14935,1.76351 0.33185,2.1046 0.37399,0.6987 1.27029,0.8131 1.84785,0.23584 z m 5.21601,0.50159 c -0.51066,-0.64944 -0.66431,-1.30661 -0.66431,-2.84158 0,-2.54203 0.75996,-3.68628 2.4484,-3.68628 1.52076,0 2.22627,0.43823 2.64652,1.64382 0.74774,2.14481 0.1702,5.04112 -1.10253,5.52951 -1.24281,0.47695 -2.66164,0.20153 -3.32804,-0.64502 z m 2.79748,-0.50159 c 0.21508,-0.21472 0.38463,-1.24652 0.38463,-2.33991 0,-2.01763 -0.34644,-2.72461 -1.33497,-2.72461 -0.78786,0 -1.22934,0.97837 -1.22934,2.72461 0,0.81665 0.14934,1.76351 0.33185,2.1046 0.37399,0.6987 1.27028,0.8131 1.84784,0.23584 z m 21.24301,0.50159 c -0.51066,-0.64944 -0.66431,-1.30661 -0.66431,-2.84158 0,-2.54203 0.75996,-3.68628 2.44839,-3.68628 1.52075,0 2.22627,0.43823 2.64653,1.64382 0.74773,2.14481 0.1702,5.04112 -1.10254,5.52951 -1.2428,0.47695 -2.66163,0.20153 -3.32804,-0.64502 z m 2.79748,-0.50159 c 0.21509,-0.21472 0.38465,-1.24652 0.38465,-2.33991 0,-2.01763 -0.34645,-2.72461 -1.33499,-2.72461 -0.78786,0 -1.22934,0.97837 -1.22934,2.72461 0,0.81665 0.14934,1.76351 0.33184,2.1046 0.374,0.6987 1.27031,0.8131 1.84786,0.23584 z m 29.25651,0.50159 c -0.51065,-0.64944 -0.6643,-1.30661 -0.6643,-2.84158 0,-2.54203 0.75995,-3.68628 2.44839,-3.68628 1.52075,0 2.22626,0.43823 2.64653,1.64382 0.74772,2.14481 0.17019,5.04112 -1.10254,5.52951 -1.2428,0.47695 -2.66164,0.20153 -3.32804,-0.64502 z m 2.79749,-0.50159 c 0.21508,-0.21472 0.38463,-1.24652 0.38463,-2.33991 0,-2.01763 -0.34645,-2.72461 -1.33498,-2.72461 -0.78786,0 -1.22933,0.97837 -1.22933,2.72461 0,0.81665 0.14934,1.76351 0.33184,2.1046 0.37399,0.6987 1.27028,0.8131 1.84786,0.23584 z m 5.21601,0.50159 c -0.51066,-0.64944 -0.6643,-1.30661 -0.6643,-2.84158 0,-2.54203 0.75995,-3.68628 2.44838,-3.68628 1.52075,0 2.22627,0.43823 2.64654,1.64382 0.74772,2.14481 0.17019,5.04112 -1.10253,5.52951 -1.24281,0.47695 -2.66165,0.20153 -3.32805,-0.64502 z m 2.79749,-0.50159 c 0.21505,-0.21472 0.38464,-1.24652 0.38464,-2.33991 0,-2.01763 -0.34646,-2.72461 -1.33499,-2.72461 -0.78786,0 -1.22933,0.97837 -1.22933,2.72461 0,0.81665 0.14934,1.76351 0.33184,2.1046 0.37399,0.6987 1.27029,0.8131 1.84785,0.23584 z M 111.12719,194.2641 v -8.33403 h -8.33404 -8.334044 v -8.01345 -8.01354 h 24.361034 24.36102 v 8.01354 8.01345 h 8.17379 8.17376 v -8.01345 -8.01354 h 19.7957 19.7957 l 8.16905,8.17379 8.16905,8.17378 -8.16905,8.17379 -8.16905,8.1737 h -11.62193 -11.62193 v -8.3394 -8.3395 l -8.25391,0.088 -8.2539,0.088 -0.0853,8.25396 -0.0854,8.25387 h -8.00808 -8.00809 v -8.33404 -8.33404 h -8.17378 -8.17376 v 8.33404 8.33404 h -7.85361 -7.85322 z m -30.451295,4.16702 c 0,-0.49895 0.213648,-0.64151 0.961618,-0.64151 h 0.961617 v -2.43881 -2.43881 l -0.781694,0.19625 c -0.429965,0.10824 -0.865383,0.0616 -0.96763,-0.10472 -0.232854,-0.37665 1.783592,-1.94531 2.500808,-1.94531 h 0.530724 v 3.36569 3.3657 h 0.80132 c 0.587655,0 0.801319,0.17072 0.801319,0.64151 v 0.64151 h -2.404055 -2.404045 z m 16.026991,0 c 0,-0.49895 0.213648,-0.64151 0.961618,-0.64151 h 0.961627 v -2.43881 -2.43881 l -0.781695,0.19625 c -0.429965,0.10824 -0.865382,0.0616 -0.96762,-0.10472 -0.232854,-0.37665 1.783581,-1.94531 2.500799,-1.94531 h 0.530722 v 3.36569 3.3657 h 0.801323 c 0.58765,0 0.80131,0.17072 0.80131,0.64151 v 0.64151 h -2.404038 -2.404055 z m 40.067484,0 c 0,-0.49895 0.21366,-0.64151 0.96163,-0.64151 h 0.96161 v -2.43881 -2.43881 l -0.78168,0.19625 c -0.42997,0.10824 -0.86539,0.0616 -0.96764,-0.10472 -0.23284,-0.37665 1.78359,-1.94531 2.50081,-1.94531 h 0.53071 v 3.36569 3.3657 h 0.80132 c 0.58766,0 0.80132,0.17072 0.80132,0.64151 v 0.64151 h -2.40404 -2.40406 z m 24.0405,0 c 0,-0.49895 0.21364,-0.64151 0.96162,-0.64151 h 0.96161 v -2.43881 -2.43881 l -0.78168,0.19625 c -0.42997,0.10824 -0.86539,0.0616 -0.96763,-0.10472 -0.23285,-0.37665 1.78359,-1.94531 2.5008,-1.94531 h 0.53072 v 3.36569 3.3657 h 0.80132 c 0.58766,0 0.80132,0.17072 0.80132,0.64151 v 0.64151 h -2.40404 -2.40405 z m -71.777674,-0.52446 c -0.510661,-0.64944 -0.664306,-1.30663 -0.664306,-2.84159 0,-2.54202 0.759961,-3.68627 2.448388,-3.68627 1.520753,0 2.226268,0.43823 2.646535,1.64382 0.747725,2.1448 0.170197,5.0411 -1.102543,5.5295 -1.242801,0.47696 -2.661634,0.20152 -3.328041,-0.64591 z m 2.797488,-0.50161 c 0.215052,-0.21471 0.384642,-1.24651 0.384642,-2.33989 0,-2.01764 -0.346453,-2.72463 -1.33499,-2.72463 -0.787853,0 -1.229325,0.97839 -1.229325,2.72463 0,0.81663 0.149342,1.76359 0.331843,2.10458 0.373995,0.69871 1.270281,0.81312 1.847854,0.23497 z m 13.229516,0.50161 c -0.51066,-0.64944 -0.66439,-1.30663 -0.66439,-2.84159 0,-2.54202 0.75995,-3.68627 2.44838,-3.68627 1.52077,0 2.22627,0.43823 2.64654,1.64382 0.74772,2.1448 0.17019,5.0411 -1.10253,5.5295 -1.24281,0.47696 -2.66165,0.20152 -3.32805,-0.64591 z m 2.79748,-0.50161 c 0.21508,-0.21471 0.38464,-1.24651 0.38464,-2.33989 0,-2.01764 -0.34645,-2.72463 -1.33499,-2.72463 -0.78785,0 -1.22933,0.97839 -1.22933,2.72463 0,0.81663 0.14934,1.76359 0.33185,2.10458 0.37399,0.69871 1.27028,0.81312 1.84784,0.23497 z m 21.24301,0.50161 c -0.51067,-0.64944 -0.66431,-1.30663 -0.66431,-2.84159 0,-2.54202 0.75996,-3.68627 2.44837,-3.68627 1.52077,0 2.22628,0.43823 2.64655,1.64382 0.74772,2.1448 0.1702,5.0411 -1.10254,5.5295 -1.2428,0.47696 -2.66163,0.20152 -3.32804,-0.64591 z m 2.79748,-0.50161 c 0.21509,-0.21471 0.38464,-1.24651 0.38464,-2.33989 0,-2.01764 -0.34645,-2.72463 -1.335,-2.72463 -0.78785,0 -1.22932,0.97839 -1.22932,2.72463 0,0.81663 0.14934,1.76359 0.33184,2.10458 0.37399,0.69871 1.27029,0.81312 1.84786,0.23497 z m 37.27,0.50161 c -0.51066,-0.64944 -0.6643,-1.30663 -0.6643,-2.84159 0,-2.54202 0.75995,-3.68627 2.44838,-3.68627 1.52075,0 2.22628,0.43823 2.64654,1.64382 0.74772,2.1448 0.17019,5.0411 -1.10254,5.5295 -1.2428,0.47696 -2.66164,0.20152 -3.32804,-0.64591 z m 2.79749,-0.50161 c 0.21508,-0.21471 0.38465,-1.24651 0.38465,-2.33989 0,-2.01764 -0.34647,-2.72463 -1.335,-2.72463 -0.78785,0 -1.22933,0.97839 -1.22933,2.72463 0,0.81663 0.14934,1.76359 0.33184,2.10458 0.374,0.69871 1.27029,0.81312 1.84786,0.23497 z m 403.57967,0.99334 c -9.89224,-0.82015 -17.52685,-6.28199 -20.34084,-14.55213 -0.68789,-2.0217 -0.90357,-3.34906 -1.01927,-6.27284 l -0.14686,-3.70845 0.668,-2.64164 c 2.15452,-8.52007 8.13217,-14.10694 19.76117,-18.46923 6.59584,-2.47435 16.4161,-4.39977 25.01079,-4.90383 l 3.83782,-0.22528 -0.0616,-3.45238 c -0.12671,-6.90941 -1.94176,-10.22162 -6.31576,-11.52506 -2.01676,-0.60094 -8.55105,-0.49032 -11.57115,0.19589 -4.76752,1.08327 -11.32619,3.85435 -16.35869,6.9117 l -1.96668,1.19478 -4.24182,-6.71036 c -2.33303,-3.6907 -4.30798,-6.8826 -4.38877,-7.09311 -0.17496,-0.45618 6.4513,-4.38782 10.60838,-6.29437 6.01586,-2.75901 12.631,-4.66525 18.86917,-5.43739 4.29998,-0.53222 13.34655,-0.43911 17.24042,0.1775 7.80331,1.23569 13.85067,4.2203 17.01978,8.40001 1.51139,1.99323 3.19914,5.65112 3.95303,8.56746 l 0.5799,2.24378 0.10993,30.69625 0.10992,30.69634 -10.0024,-0.088 -10.0025,-0.088 -0.9519,-2.88486 c -0.5236,-1.58672 -0.99774,-2.93838 -1.05362,-3.00368 -0.0528,-0.0615 -1.14994,0.572 -2.43123,1.41591 -5.70461,3.75817 -13.26003,6.3926 -19.32305,6.73747 -1.59405,0.0907 -3.33087,0.20326 -3.85984,0.25081 -0.52888,0.044 -2.20753,-0.0177 -3.73037,-0.14345 z m 19.11637,-17.75952 c 1.58662,-0.46112 4.21911,-1.47002 5.84981,-2.24133 l 2.96506,-1.40226 v -7.75923 -7.75931 l -2.96506,0.21472 c -9.04515,0.65471 -15.8047,2.81649 -19.31156,6.17655 -1.8798,1.80116 -2.70991,3.59828 -2.71669,5.88142 -0.009,4.17555 1.86461,6.71987 5.6703,7.68583 2.08399,0.52887 7.31429,0.13289 10.50814,-0.79639 z m 179.24234,17.75547 c -11.04826,-0.91378 -19.02811,-8.05728 -20.88304,-18.69442 l -0.49368,-2.82927 v -20.4726 -20.47253 h -7.21215 -7.21212 v -9.29565 -9.29567 h 7.21212 7.21215 v -8.78937 -8.789379 l 0.88147,-0.178625 c 1.33013,-0.269556 21.40296,-3.077729 21.99923,-3.077729 h 0.51832 v 10.417553 10.41753 h 10.89832 10.89842 v 0.4928 c 0,0.27106 -0.50512,4.33498 -1.12192,9.031 -0.61685,4.69603 -1.12189,8.65732 -1.12189,8.80287 0,0.14555 -4.40673,0.26469 -9.79278,0.26469 h -9.79272 l 0.11358,19.15227 0.1136,19.15229 0.46108,1.27959 c 0.65121,1.80627 2.44647,3.48669 4.26991,3.99718 2.64893,0.74183 7.17439,-0.0177 12.06334,-2.03427 0.37753,-0.15488 1.13802,1.43165 3.52594,7.35284 1.6749,4.15303 3.09094,7.68011 3.14687,7.83806 0.15571,0.43912 -3.46277,2.15132 -7.09864,3.35875 -4.10364,1.36285 -7.62662,2.08601 -11.11356,2.28121 -1.49854,0.0881 -3.15732,0.19095 -3.6862,0.23846 -0.52888,0.044 -2.23262,-0.0177 -3.78597,-0.14784 z m 63.18759,-0.005 c -10.6676,-0.69872 -18.39092,-7.23897 -20.4751,-17.33888 l -0.61333,-2.97375 -0.003,-29.97572 -0.003,-29.97566 11.29907,-1.04994 c 6.21451,-0.57746 11.47932,-1.04392 11.69974,-1.03655 0.31768,0.0107 0.40128,5.63667 0.40302,27.01888 10e-4,16.76931 0.12672,27.79523 0.32914,29.08899 0.17953,1.14593 0.75502,2.96549 1.27843,4.04348 1.18183,2.4344 2.69068,3.50895 5.87032,4.18074 4.26655,0.90146 9.22424,-0.1276 15.95862,-3.31396 l 3.80678,-1.8009 v -28.56646 -28.56637 l 11.13872,-1.0459 c 6.1263,-0.57525 11.39117,-1.04127 11.69972,-1.03559 l 0.56054,0.0107 v 40.06731 40.06753 H 880.00855 869.9758 l -0.68727,-2.33488 c -0.37753,-1.28426 -0.83423,-2.72189 -1.01386,-3.1948 l -0.32647,-0.85976 -2.81675,1.65826 c -8.98507,5.28953 -18.23012,7.57574 -28.03764,6.93335 z m 315.42557,0.009 c -9.8922,-0.82014 -17.5268,-6.28207 -20.3408,-14.55221 -0.6881,-2.02161 -0.9036,-3.34907 -1.0192,-6.27275 l -0.1469,-3.70854 0.6679,-2.64155 c 2.1546,-8.52016 8.1322,-14.10695 19.7611,-18.46932 6.5961,-2.47426 16.4162,-4.39968 25.0108,-4.90374 l 3.8378,-0.22529 -0.061,-3.45247 c -0.1267,-6.90935 -1.9417,-10.22156 -6.3157,-11.52499 -2.0168,-0.60095 -8.551,-0.49033 -11.5712,0.19588 -4.7675,1.08327 -11.3262,3.85436 -16.3586,6.91171 l -1.9667,1.19478 -4.2419,-6.71036 c -2.333,-3.6907 -4.3079,-6.8826 -4.3887,-7.09311 -0.1753,-0.45619 6.4512,-4.38783 10.6083,-6.29437 6.016,-2.75901 12.6311,-4.66525 18.8693,-5.43739 4.3,-0.53222 13.3464,-0.43911 17.2404,0.17749 7.8033,1.23569 13.8506,4.22031 17.0198,8.40002 1.5114,1.99323 3.199,5.65111 3.9529,8.56745 l 0.5799,2.24379 0.11,30.69628 0.1099,30.69625 -10.0023,-0.088 -10.0025,-0.088 -0.952,-2.88488 c -0.5236,-1.58662 -0.9978,-2.93828 -1.0536,-3.00366 -0.052,-0.0615 -1.15,0.572 -2.4312,1.41591 -5.7046,3.75825 -13.2601,6.3926 -19.323,6.73746 -1.5939,0.0907 -3.3309,0.20326 -3.8598,0.25081 -0.5289,0.044 -2.2078,-0.0177 -3.7305,-0.14346 z m 19.1164,-17.75951 c 1.5866,-0.46112 4.219,-1.47011 5.8498,-2.24133 l 2.965,-1.40226 v -7.75932 -7.75922 l -2.965,0.21472 c -9.045,0.65471 -15.8047,2.8164 -19.3115,6.17655 -1.8798,1.80116 -2.7099,3.59828 -2.7167,5.88133 -0.01,4.17564 1.8645,6.71987 5.6702,7.68591 2.084,0.52888 7.3145,0.1329 10.5082,-0.79638 z M 472.69621,139.45163 V 82.716076 h 37.82372 37.82371 v 9.936729 9.936735 H 522.8607 497.37779 v 14.26403 14.26402 h 21.97665 21.9766 l -0.20121,1.36229 c -0.11054,0.74931 -0.7335,5.18473 -1.38409,9.85661 l -1.18293,8.4943 -20.59256,0.0792 -20.59256,0.0792 v 22.59568 22.59577 h -12.34077 -12.34077 z m 179.26111,-3.43992 0.079,-60.175467 10.57783,-1.028646 c 5.81777,-0.565744 11.11814,-1.037198 11.77857,-1.047644 l 1.20082,-0.01924 0.079,39.594927 0.0791,39.59494 14.2824,-17.7181 14.28243,-17.71807 12.40249,-0.0836 12.40257,-0.0836 v 0.64988 c 0,0.47854 -21.31537,26.70843 -28.40413,34.95287 l -0.42682,0.49631 15.21663,20.65952 c 9.44377,12.82172 15.2166,20.93312 15.21669,21.38068 l 9e-5,0.72159 -13.70312,-0.009 -13.70303,-0.009 -13.78326,-19.72657 -13.78321,-19.72663 -0.0791,19.73764 -0.079,19.73764 h -11.85836 -11.85832 z m 264.12446,21.14973 0.079,-39.02571 10.57782,-1.02162 c 5.81778,-0.56186 11.11876,-1.03067 11.77989,-1.04175 l 1.20198,-0.0202 v 5.35868 5.35868 l 2.59721,-2.80165 c 4.06097,-4.38055 8.23848,-7.02569 13.06328,-8.27148 3.30408,-0.85315 9.14592,-0.85834 12.63945,-0.0113 1.37308,0.33291 2.55472,0.6636 2.62598,0.73479 0.11695,0.11722 -2.80072,20.75008 -3.21758,22.75133 l -0.17525,0.84153 -2.46748,-0.78706 c -3.31257,-1.05657 -8.90534,-1.34308 -11.9983,-0.61468 -3.89739,0.91785 -6.16135,2.2668 -9.78174,5.82834 l -3.28527,3.23188 v 24.25781 24.2578 h -11.86116 -11.86129 z m 72.12152,0 0.079,-39.02571 10.57782,-1.02162 c 5.81778,-0.56186 11.11878,-1.03067 11.77978,-1.04175 l 1.2021,-0.0202 v 3.68619 c 0,2.02741 0.062,3.68621 0.1435,3.68621 0.079,0 1.0436,-0.52773 2.1443,-1.17283 5.2975,-3.10477 12.0472,-5.71477 17.2657,-6.67623 3.1251,-0.57577 10.1169,-0.67337 13.1803,-0.18385 6.2299,0.99542 10.8743,3.60852 13.8665,7.80163 1.7259,2.41847 2.5714,4.29913 3.4908,7.76399 l 0.6802,2.56431 0.1137,31.33276 0.1135,31.33284 h -11.8677 -11.8676 l -0.091,-28.28773 -0.09,-28.28761 -0.5764,-1.7005 c -1.29,-3.80701 -4.2015,-5.35236 -9.9968,-5.30595 l -3.5259,0.0281 -2.885,0.86 c -1.5867,0.47299 -4.5075,1.6639 -6.491,2.64641 l -3.606,1.78641 v 29.13032 29.13039 h -11.86131 -11.8612 z m 99.6879,0 0.079,-39.02571 10.5778,-1.02162 c 5.8177,-0.56186 11.1187,-1.03067 11.7798,-1.04175 l 1.2021,-0.0202 v 40.0675 40.06744 h -11.8613 -11.8613 z m 141.038,-21.14973 0.078,-60.175467 10.5778,-1.028646 c 5.8179,-0.565744 11.1182,-1.037198 11.7786,-1.047644 l 1.2008,-0.01924 0.078,39.594927 0.078,39.59494 14.2825,-17.7181 14.2824,-17.71807 12.4025,-0.0836 12.4024,-0.0836 v 0.64988 c 0,0.47854 -21.3152,26.70843 -28.404,34.95287 l -0.4268,0.49631 15.2166,20.65952 c 9.4437,12.82172 15.2167,20.93312 15.2167,21.38068 l 10e-5,0.72159 -13.7032,-0.009 -13.703,-0.009 -13.7832,-19.72657 -13.7832,-19.72663 -0.078,19.73764 -0.078,19.73764 h -11.8584 -11.8584 z M 72.341853,181.76288 c 0,-0.49896 0.213648,-0.64151 0.961617,-0.64151 h 0.961627 v -2.43881 -2.4388 L 73.483402,176.44 c -0.429962,0.10825 -0.865383,0.0615 -0.967618,-0.10473 -0.232854,-0.37664 1.783581,-1.94531 2.5008,-1.94531 h 0.530721 v 3.36571 3.36569 h 0.801319 c 0.587656,0 0.801319,0.17071 0.801319,0.64152 v 0.64151 h -2.404045 -2.404054 z m 16.027001,0 c 0,-0.49896 0.213647,-0.64151 0.96162,-0.64151 h 0.961618 v -2.43881 -2.4388 L 89.510395,176.44 c -0.429962,0.10825 -0.865382,0.0615 -0.967629,-0.10473 -0.232853,-0.37664 1.78359,-1.94531 2.500801,-1.94531 h 0.530721 v 3.36571 3.36569 h 0.801319 c 0.587659,0 0.801318,0.17071 0.801318,0.64152 v 0.64151 h -2.404051 -2.404045 z m 64.107986,0 c 0,-0.49896 0.21364,-0.64151 0.96162,-0.64151 h 0.96161 v -2.43881 -2.4388 l -0.78169,0.19624 c -0.42996,0.10825 -0.86539,0.0615 -0.96763,-0.10473 -0.23284,-0.37664 1.78358,-1.94531 2.50079,-1.94531 h 0.53073 v 3.36571 3.36569 h 0.80133 c 0.58764,0 0.8013,0.17071 0.8013,0.64152 v 0.64151 h -2.40403 -2.40405 z M 80.699162,181.2384 c -0.510658,-0.64942 -0.664394,-1.3066 -0.664394,-2.84157 0,-2.54202 0.75996,-3.68628 2.448391,-3.68628 1.520763,0 2.226268,0.43823 2.646532,1.64382 0.747728,2.1448 0.170197,5.04111 -1.10253,5.52951 -1.24281,0.47695 -2.661645,0.20153 -3.328045,-0.64591 z m 2.797479,-0.50158 c 0.215083,-0.21472 0.384643,-1.24651 0.384643,-2.3399 0,-2.01763 -0.346451,-2.72463 -1.334987,-2.72463 -0.787856,0 -1.22933,0.97838 -1.22933,2.72463 0,0.81663 0.149344,1.7635 0.331843,2.10458 0.373999,0.69872 1.270285,0.81311 1.847849,0.23497 z m 61.310499,0.50158 c -0.51066,-0.64942 -0.66431,-1.3066 -0.66431,-2.84157 0,-2.54202 0.75996,-3.68628 2.44839,-3.68628 1.52075,0 2.22627,0.43823 2.64653,1.64382 0.74773,2.1448 0.1702,5.04111 -1.10254,5.52951 -1.2428,0.47695 -2.66163,0.20153 -3.32804,-0.64591 z m 2.79748,-0.50158 c 0.21509,-0.21472 0.38465,-1.24651 0.38465,-2.3399 0,-2.01763 -0.34645,-2.72463 -1.33499,-2.72463 -0.78786,0 -1.22934,0.97838 -1.22934,2.72463 0,0.81663 0.14934,1.7635 0.33184,2.10458 0.374,0.69872 1.27031,0.81311 1.84786,0.23497 z M 94.672803,147.89217 c -0.117556,-0.11793 -0.213647,-3.79573 -0.213647,-8.17378 v -7.96007 h 8.013504 8.0135 v -8.17375 -8.17377 h 8.33403 8.33403 v 8.17377 8.17375 h -8.33403 -8.33403 v 8.17377 8.17382 h -7.79981 c -4.289895,0 -7.895968,-0.0959 -8.013501,-0.21384 z m 32.481377,-7.75145 v -7.96517 l 3.12527,-0.20696 c 1.71888,-0.11377 9.07528,-0.20769 16.34753,-0.20863 l 13.22228,-0.002 v -8.17376 -8.17378 h 19.63542 19.63543 l 8.16905,8.17378 8.16905,8.17376 -8.16905,8.17376 -8.16905,8.17379 h -11.46166 -11.46166 v -8.01347 -8.01349 h -8.17377 -8.17376 v 8.01349 8.01347 h -16.34755 -16.34753 z m -62.505286,3.79812 c 0,-0.4986 0.213648,-0.64106 0.961627,-0.64106 h 0.961617 v -2.43881 -2.4388 l -0.781695,0.19616 c -0.429965,0.10787 -0.865382,0.0607 -0.967629,-0.10464 -0.232854,-0.37682 1.783581,-1.94532 2.500799,-1.94532 h 0.530721 v 3.36567 3.36568 h 0.80132 c 0.587658,0 0.801318,0.17099 0.801318,0.64106 v 0.64108 H 67.05293 64.648876 Z m 16.027001,0 c 0,-0.4986 0.213648,-0.64106 0.961618,-0.64106 h 0.961617 v -2.43881 -2.4388 l -0.781694,0.19616 c -0.429965,0.10787 -0.865383,0.0607 -0.96763,-0.10464 -0.232854,-0.37682 1.783592,-1.94532 2.500808,-1.94532 h 0.530724 v 3.36567 3.36568 h 0.80132 c 0.587655,0 0.801319,0.17099 0.801319,0.64106 v 0.64108 h -2.404055 -2.404045 z m 80.134975,0 c 0,-0.4986 0.21364,-0.64106 0.96162,-0.64106 h 0.96161 v -2.43881 -2.4388 l -0.78168,0.19616 c -0.42997,0.10787 -0.86539,0.0607 -0.96763,-0.10464 -0.23285,-0.37682 1.78359,-1.94532 2.5008,-1.94532 h 0.53072 v 3.36567 3.36568 h 0.80132 c 0.58766,0 0.80132,0.17099 0.80132,0.64106 v 0.64108 h -2.40404 -2.40405 z M 56.9792,143.41481 c -0.510658,-0.64917 -0.664302,-1.30663 -0.664302,-2.84163 0,-2.54201 0.759956,-3.6862 2.448387,-3.6862 1.520753,0 2.226269,0.43823 2.646532,1.64376 0.747728,2.14485 0.170198,5.04115 -1.102539,5.52954 -1.242802,0.47686 -2.661636,0.20168 -3.328041,-0.64548 z m 2.797488,-0.50168 c 0.215083,-0.21508 0.384645,-1.24655 0.384645,-2.33994 0,-2.01759 -0.346453,-2.72459 -1.334999,-2.72459 -0.787853,0 -1.229329,0.97841 -1.229329,2.72459 0,0.81654 0.149343,1.76358 0.331846,2.10459 0.373995,0.69879 1.270291,0.81293 1.847855,0.23538 z m 13.229513,0.50168 c -0.510659,-0.64917 -0.664392,-1.30663 -0.664392,-2.84163 0,-2.54201 0.759961,-3.6862 2.448388,-3.6862 1.520763,0 2.226268,0.43823 2.646536,1.64376 0.747725,2.14485 0.170197,5.04115 -1.102534,5.52954 -1.24281,0.47686 -2.661643,0.20168 -3.328041,-0.64548 z m 2.797487,-0.50168 c 0.215084,-0.21508 0.384646,-1.24655 0.384646,-2.33994 0,-2.01759 -0.346454,-2.72459 -1.33499,-2.72459 -0.787853,0 -1.229328,0.97841 -1.229328,2.72459 0,0.81654 0.149342,1.76358 0.331845,2.10459 0.373995,0.69879 1.270282,0.81293 1.847855,0.23538 z m 13.229508,0.50168 c -0.510661,-0.64917 -0.664306,-1.30663 -0.664306,-2.84163 0,-2.54201 0.759961,-3.6862 2.448388,-3.6862 1.520753,0 2.226268,0.43823 2.646535,1.64376 0.747725,2.14485 0.170197,5.04115 -1.102543,5.52954 -1.242801,0.47686 -2.661634,0.20168 -3.328041,-0.64548 z m 2.797488,-0.50168 c 0.215052,-0.21508 0.384642,-1.24655 0.384642,-2.33994 0,-2.01759 -0.346453,-2.72459 -1.33499,-2.72459 -0.787853,0 -1.229325,0.97841 -1.229325,2.72459 0,0.81654 0.149342,1.76358 0.331843,2.10459 0.373995,0.69879 1.270281,0.81293 1.847854,0.23538 z m 21.243006,0.50168 c -0.51066,-0.64917 -0.6643,-1.30663 -0.6643,-2.84163 0,-2.54201 0.75996,-3.6862 2.44839,-3.6862 1.52075,0 2.22628,0.43823 2.64652,1.64376 0.74773,2.14485 0.17021,5.04115 -1.10253,5.52954 -1.24279,0.47686 -2.66164,0.20168 -3.32803,-0.64548 z m 2.79749,-0.50168 c 0.21505,-0.21508 0.38464,-1.24655 0.38464,-2.33994 0,-2.01759 -0.34645,-2.72459 -1.33499,-2.72459 -0.78785,0 -1.22932,0.97841 -1.22932,2.72459 0,0.81654 0.14934,1.76358 0.33184,2.10459 0.374,0.69879 1.27028,0.81293 1.84786,0.23538 z m 5.21601,0.50168 c -0.51067,-0.64917 -0.66431,-1.30663 -0.66431,-2.84163 0,-2.54201 0.75996,-3.6862 2.4484,-3.6862 1.52075,0 2.22626,0.43823 2.64653,1.64376 0.74773,2.14485 0.1702,5.04115 -1.10254,5.52954 -1.2428,0.47686 -2.66164,0.20168 -3.32804,-0.64548 z m 2.79748,-0.50168 c 0.21508,-0.21508 0.38464,-1.24655 0.38464,-2.33994 0,-2.01759 -0.34645,-2.72459 -1.33497,-2.72459 -0.78786,0 -1.22934,0.97841 -1.22934,2.72459 0,0.81654 0.14934,1.76358 0.33185,2.10459 0.37398,0.69879 1.27027,0.81293 1.84785,0.23538 z m 45.2835,0.50168 c -0.51066,-0.64917 -0.6643,-1.30663 -0.6643,-2.84163 0,-2.54201 0.75995,-3.6862 2.44838,-3.6862 1.52075,0 2.22628,0.43823 2.64654,1.64376 0.74772,2.14485 0.17019,5.04115 -1.10254,5.52954 -1.2428,0.47686 -2.66164,0.20168 -3.32804,-0.64548 z m 2.79749,-0.50168 c 0.21508,-0.21508 0.38465,-1.24655 0.38465,-2.33994 0,-2.01759 -0.34647,-2.72459 -1.335,-2.72459 -0.78785,0 -1.22933,0.97841 -1.22933,2.72459 0,0.81654 0.14934,1.76358 0.33184,2.10459 0.374,0.69879 1.27029,0.81293 1.84786,0.23538 z M 56.31486,127.27112 c 0,-0.49861 0.213649,-0.64108 0.961618,-0.64108 h 0.961618 v -2.43879 -2.43881 l -0.781695,0.19616 c -0.429962,0.10788 -0.865383,0.0607 -0.967627,-0.10465 -0.232854,-0.37681 1.78359,-1.94531 2.500808,-1.94531 h 0.530723 v 3.36567 3.36567 h 0.801317 c 0.587657,0 0.80132,0.171 0.80132,0.64108 v 0.64107 h -2.404054 -2.404046 z m 16.026993,0 c 0,-0.49861 0.213648,-0.64108 0.961617,-0.64108 h 0.961627 v -2.43879 -2.43881 l -0.781695,0.19616 c -0.429962,0.10788 -0.865383,0.0607 -0.967618,-0.10465 -0.232854,-0.37681 1.783581,-1.94531 2.5008,-1.94531 h 0.530721 v 3.36567 3.36567 h 0.801319 c 0.587656,0 0.801319,0.171 0.801319,0.64108 v 0.64107 h -2.404045 -2.404054 z m 16.027001,0 c 0,-0.49861 0.213647,-0.64108 0.96162,-0.64108 h 0.961618 v -2.43879 -2.43881 l -0.781697,0.19616 c -0.429962,0.10788 -0.865382,0.0607 -0.967629,-0.10465 -0.232853,-0.37681 1.78359,-1.94531 2.500801,-1.94531 h 0.530721 v 3.36567 3.36567 h 0.801319 c 0.587659,0 0.801318,0.171 0.801318,0.64108 v 0.64107 h -2.404051 -2.404045 z m 40.067496,0 c 0,-0.49861 0.21364,-0.64108 0.96161,-0.64108 h 0.96161 v -2.43879 -2.43881 l -0.78169,0.19616 c -0.42996,0.10788 -0.86539,0.0607 -0.96763,-0.10465 -0.23285,-0.37681 1.78359,-1.94531 2.50081,-1.94531 h 0.53072 v 3.36567 3.36567 h 0.80133 c 0.58764,0 0.80132,0.171 0.80132,0.64108 v 0.64107 h -2.40405 -2.40405 z m 24.04049,0 c 0,-0.49861 0.21364,-0.64108 0.96162,-0.64108 h 0.96161 v -2.43879 -2.43881 l -0.78169,0.19616 c -0.42996,0.10788 -0.86539,0.0607 -0.96763,-0.10465 -0.23284,-0.37681 1.78358,-1.94531 2.50079,-1.94531 h 0.53073 v 3.36567 3.36567 h 0.80133 c 0.58764,0 0.8013,0.171 0.8013,0.64108 v 0.64107 h -2.40403 -2.40405 z M 48.645169,126.74708 c -0.51066,-0.64916 -0.664394,-1.30662 -0.664394,-2.84162 0,-2.54203 0.75996,-3.68622 2.448387,-3.68622 1.520763,0 2.226269,0.43815 2.646535,1.64377 0.747725,2.14485 0.170199,5.04113 -1.102528,5.52953 -1.242811,0.47688 -2.661646,0.20169 -3.328045,-0.64547 z m 2.79748,-0.50168 c 0.215051,-0.21509 0.384642,-1.24654 0.384642,-2.33993 0,-2.01759 -0.346453,-2.72459 -1.33499,-2.72459 -0.787853,0 -1.229327,0.9784 -1.229327,2.72459 0,0.81653 0.149344,1.76357 0.331843,2.10457 0.373997,0.69881 1.270285,0.81293 1.847847,0.23534 z m 13.229512,0.50168 c -0.510657,-0.64916 -0.664394,-1.30662 -0.664394,-2.84162 0,-2.54203 0.759961,-3.68622 2.448387,-3.68622 1.520764,0 2.226278,0.43815 2.646545,1.64377 0.747729,2.14485 0.170198,5.04113 -1.102539,5.52953 -1.2428,0.47688 -2.661644,0.20169 -3.328045,-0.64547 z m 2.797488,-0.50168 c 0.215053,-0.21509 0.384643,-1.24654 0.384643,-2.33993 0,-2.01759 -0.346451,-2.72459 -1.334987,-2.72459 -0.787856,0 -1.22933,0.9784 -1.22933,2.72459 0,0.81653 0.149344,1.76357 0.331843,2.10457 0.373996,0.69881 1.270285,0.81293 1.847856,0.23534 z m 13.229513,0.50168 c -0.510658,-0.64916 -0.664394,-1.30662 -0.664394,-2.84162 0,-2.54203 0.75996,-3.68622 2.448391,-3.68622 1.520763,0 2.226268,0.43815 2.646532,1.64377 0.747728,2.14485 0.170197,5.04113 -1.10253,5.52953 -1.24281,0.47688 -2.661645,0.20169 -3.328045,-0.64547 z m 2.797479,-0.50168 c 0.215083,-0.21509 0.384643,-1.24654 0.384643,-2.33993 0,-2.01759 -0.346451,-2.72459 -1.334987,-2.72459 -0.787856,0 -1.22933,0.9784 -1.22933,2.72459 0,0.81653 0.149344,1.76357 0.331843,2.10457 0.373999,0.69881 1.270285,0.81293 1.847849,0.23534 z m 13.229513,0.50168 c -0.510657,-0.64916 -0.664394,-1.30662 -0.664394,-2.84162 0,-2.54203 0.75996,-3.68622 2.448387,-3.68622 1.520763,0 2.226283,0.43815 2.646543,1.64377 0.74773,2.14485 0.1702,5.04113 -1.10254,5.52953 -1.242798,0.47688 -2.661642,0.20169 -3.328042,-0.64547 z m 2.797489,-0.50168 c 0.215051,-0.21509 0.384641,-1.24654 0.384641,-2.33993 0,-2.01759 -0.346449,-2.72459 -1.334986,-2.72459 -0.787857,0 -1.22933,0.9784 -1.22933,2.72459 0,0.81653 0.149343,1.76357 0.331843,2.10457 0.373997,0.69881 1.270285,0.81293 1.847856,0.23534 z m 5.216007,0.50168 c -0.51066,-0.64916 -0.6643,-1.30662 -0.6643,-2.84162 0,-2.54203 0.75996,-3.68622 2.44838,-3.68622 1.52076,0 2.22627,0.43815 2.64654,1.64377 0.74773,2.14485 0.1702,5.04113 -1.10254,5.52953 -1.2428,0.47688 -2.66164,0.20169 -3.32804,-0.64547 z m 2.79749,-0.50168 c 0.21508,-0.21509 0.38464,-1.24654 0.38464,-2.33993 0,-2.01759 -0.34645,-2.72459 -1.33499,-2.72459 -0.78786,0 -1.22933,0.9784 -1.22933,2.72459 0,0.81653 0.14934,1.76357 0.33184,2.10457 0.374,0.69881 1.27028,0.81293 1.84786,0.23534 z m 29.2565,0.50168 c -0.51066,-0.64916 -0.6643,-1.30662 -0.6643,-2.84162 0,-2.54203 0.75996,-3.68622 2.44838,-3.68622 1.52075,0 2.22628,0.43815 2.64653,1.64377 0.74773,2.14485 0.17021,5.04113 -1.10253,5.52953 -1.24281,0.47688 -2.66164,0.20169 -3.32804,-0.64547 z m 2.79749,-0.50168 c 0.21508,-0.21509 0.38464,-1.24654 0.38464,-2.33993 0,-2.01759 -0.34644,-2.72459 -1.33498,-2.72459 -0.78786,0 -1.22934,0.9784 -1.22934,2.72459 0,0.81653 0.14934,1.76357 0.33185,2.10457 0.37399,0.69881 1.27029,0.81293 1.84786,0.23534 z m 5.21601,0.50168 c -0.51066,-0.64916 -0.66431,-1.30662 -0.66431,-2.84162 0,-2.54203 0.75996,-3.68622 2.44839,-3.68622 1.52075,0 2.22627,0.43815 2.64653,1.64377 0.74773,2.14485 0.1702,5.04113 -1.10254,5.52953 -1.2428,0.47688 -2.66163,0.20169 -3.32804,-0.64547 z m 2.79748,-0.50168 c 0.21509,-0.21509 0.38465,-1.24654 0.38465,-2.33993 0,-2.01759 -0.34645,-2.72459 -1.33499,-2.72459 -0.78786,0 -1.22934,0.9784 -1.22934,2.72459 0,0.81653 0.14934,1.76357 0.33184,2.10457 0.374,0.69881 1.27031,0.81293 1.84786,0.23534 z m 949.82388,-20.80724 c -3.5532,-0.43841 -6.5035,-2.0099 -9.2751,-4.94039 -1.9416,-2.053056 -3.1498,-4.501223 -3.6434,-7.382502 -1.5891,-9.276571 7.5441,-18.073073 17.1644,-16.531852 5.1277,0.821472 9.3853,3.950585 11.6733,8.578998 l 1.2297,2.488029 v 3.382661 3.38267 l -1.0261,2.16638 c -2.8966,6.114716 -9.3978,9.685806 -16.1228,8.856006 z M 95.420733,85.280392 v -8.33404 H 87.246965 79.073197 V 68.932854 60.91936 h 15.866719 15.866724 v 16.347538 16.347524 h -7.69296 -7.692947 z M 127.47472,77.266898 V 60.91936 h 16.02699 16.027 v 8.173769 8.173769 h 8.36212 8.36213 l -0.0607,-4.086885 c -0.0334,-2.247786 -0.0457,-5.925984 -0.0281,-8.173769 l 0.0325,-4.086884 h 11.46305 11.46306 l 4.96586,5.048502 c 2.73123,2.776677 6.37337,6.495196 8.09361,8.263377 l 3.12775,3.214876 -8.09737,8.082401 -8.09736,8.082395 -19.79335,0.0017 -19.79333,0.0017 v -8.173766 -8.173759 h -8.17366 -8.17379 v 8.173759 8.173766 h -7.85321 -7.85323 z m -64.749061,8.013494 v -8.013494 h 8.013494 8.013498 v 8.013494 8.013495 h -8.013498 -8.013494 z m -14.103756,4.167015 c 0,-0.498603 0.213647,-0.641072 0.961617,-0.641072 h 0.961617 v -2.438796 -2.438793 l -0.781695,0.196152 c -0.429964,0.107877 -0.865382,0.0607 -0.96762,-0.104642 -0.232853,-0.37681 1.783581,-1.945304 2.500799,-1.945304 h 0.530722 v 3.365661 3.365667 h 0.801318 c 0.587659,0 0.801319,0.170991 0.801319,0.641072 v 0.641072 h -2.404051 -2.404046 z m 32.053992,0 c 0,-0.498603 0.213648,-0.641072 0.961618,-0.641072 h 0.961617 v -2.438796 -2.438793 l -0.781694,0.196152 c -0.429965,0.107877 -0.865383,0.0607 -0.96763,-0.104642 -0.232854,-0.37681 1.783592,-1.945304 2.500808,-1.945304 h 0.530724 v 3.365661 3.365667 h 0.80132 c 0.587655,0 0.801319,0.170991 0.801319,0.641072 v 0.641072 H 83.079922 80.675877 Z M 40.952208,88.923373 c -0.510659,-0.64917 -0.664393,-1.306627 -0.664393,-2.841634 0,-2.542009 0.759959,-3.686208 2.448387,-3.686208 1.520765,0 2.226278,0.438147 2.646536,1.64377 0.747727,2.14484 0.170191,5.041131 -1.102531,5.529534 -1.242801,0.476866 -2.661644,0.20171 -3.328042,-0.645471 z m 2.797488,-0.501684 c 0.215068,-0.215052 0.384644,-1.246548 0.384644,-2.339944 0,-2.017578 -0.346453,-2.724588 -1.334989,-2.724588 -0.787855,0 -1.229328,0.978408 -1.229328,2.724588 0,0.816544 0.149334,1.76358 0.331844,2.104583 0.373996,0.6988 1.270284,0.812934 1.847855,0.235388 z M 56.9792,88.923373 c -0.510658,-0.64917 -0.664302,-1.306627 -0.664302,-2.841634 0,-2.542009 0.759956,-3.686208 2.448387,-3.686208 1.520753,0 2.226269,0.438147 2.646532,1.64377 0.747728,2.14484 0.170198,5.041131 -1.102539,5.529534 -1.242802,0.476866 -2.661636,0.20171 -3.328041,-0.645471 z m 2.797488,-0.501684 c 0.215083,-0.215052 0.384645,-1.246548 0.384645,-2.339944 0,-2.017578 -0.346453,-2.724588 -1.334999,-2.724588 -0.787853,0 -1.229329,0.978408 -1.229329,2.724588 0,0.816544 0.149343,1.76358 0.331846,2.104583 0.373995,0.6988 1.270291,0.812934 1.847855,0.235388 z m 29.256508,0.501684 c -0.510661,-0.64917 -0.664306,-1.306627 -0.664306,-2.841634 0,-2.542009 0.759961,-3.686208 2.448388,-3.686208 1.520753,0 2.226268,0.438147 2.646535,1.64377 0.747725,2.14484 0.170197,5.041131 -1.102543,5.529534 -1.242801,0.476866 -2.661634,0.20171 -3.328041,-0.645471 z m 2.797488,-0.501684 c 0.215052,-0.215052 0.384642,-1.246548 0.384642,-2.339944 0,-2.017578 -0.346453,-2.724588 -1.33499,-2.724588 -0.787853,0 -1.229325,0.978408 -1.229325,2.724588 0,0.816544 0.149342,1.76358 0.331843,2.104583 0.373995,0.6988 1.270281,0.812934 1.847854,0.235388 z m 21.243006,0.501684 c -0.51066,-0.64917 -0.6643,-1.306627 -0.6643,-2.841634 0,-2.542009 0.75996,-3.686208 2.44839,-3.686208 1.52075,0 2.22628,0.438147 2.64652,1.64377 0.74773,2.14484 0.17021,5.041131 -1.10253,5.529534 -1.24279,0.476866 -2.66164,0.20171 -3.32803,-0.645471 z m 2.79749,-0.501684 c 0.21505,-0.215052 0.38464,-1.246548 0.38464,-2.339944 0,-2.017578 -0.34645,-2.724588 -1.33499,-2.724588 -0.78785,0 -1.22932,0.978408 -1.22932,2.724588 0,0.816544 0.14934,1.76358 0.33184,2.104583 0.374,0.6988 1.27028,0.812934 1.84786,0.235388 z m 5.21601,0.501684 c -0.51067,-0.64917 -0.66431,-1.306627 -0.66431,-2.841634 0,-2.542009 0.75996,-3.686208 2.4484,-3.686208 1.52075,0 2.22626,0.438147 2.64653,1.64377 0.74773,2.14484 0.1702,5.041131 -1.10254,5.529534 -1.2428,0.476866 -2.66164,0.20171 -3.32804,-0.645471 z m 2.79748,-0.501684 c 0.21508,-0.215052 0.38464,-1.246548 0.38464,-2.339944 0,-2.017578 -0.34645,-2.724588 -1.33497,-2.724588 -0.78786,0 -1.22934,0.978408 -1.22934,2.724588 0,0.816544 0.14934,1.76358 0.33185,2.104583 0.37398,0.6988 1.27027,0.812934 1.84785,0.235388 z m 21.24301,0.501684 c -0.51066,-0.64917 -0.66439,-1.306627 -0.66439,-2.841634 0,-2.542009 0.75996,-3.686208 2.44838,-3.686208 1.52077,0 2.22628,0.438147 2.64654,1.64377 0.74773,2.14484 0.1702,5.041131 -1.10253,5.529534 -1.24281,0.476866 -2.66164,0.20171 -3.32804,-0.645471 z m 2.79749,-0.501684 c 0.21508,-0.215052 0.38465,-1.246548 0.38465,-2.339944 0,-2.017578 -0.34646,-2.724588 -1.335,-2.724588 -0.78785,0 -1.22932,0.978408 -1.22932,2.724588 0,0.816544 0.14934,1.76358 0.33184,2.104583 0.374,0.6988 1.27028,0.812934 1.84786,0.235388 z m 5.21601,0.501684 c -0.51066,-0.64917 -0.6643,-1.306627 -0.6643,-2.841634 0,-2.542009 0.75995,-3.686208 2.44838,-3.686208 1.52076,0 2.22628,0.438147 2.64655,1.64377 0.74772,2.14484 0.17019,5.041131 -1.10254,5.529534 -1.2428,0.476866 -2.66165,0.20171 -3.32804,-0.645471 z m 2.79749,-0.501684 c 0.21508,-0.215052 0.38464,-1.246548 0.38464,-2.339944 0,-2.017578 -0.34646,-2.724588 -1.33499,-2.724588 -0.78784,0 -1.22932,0.978408 -1.22932,2.724588 0,0.816544 0.14933,1.76358 0.33184,2.104583 0.37399,0.6988 1.27027,0.812934 1.84786,0.235388 z M 40.28786,72.779343 c 0,-0.498599 0.213661,-0.641073 0.961618,-0.641073 h 0.961627 v -2.438792 -2.438796 l -0.781695,0.196152 c -0.429964,0.107877 -0.865384,0.06073 -0.96763,-0.104642 -0.232844,-0.376725 1.783582,-1.945308 2.500801,-1.945308 h 0.530722 v 3.365673 3.365662 h 0.801318 c 0.587658,0 0.801319,0.170992 0.801319,0.641072 v 0.641082 h -2.404044 -2.404053 z m 16.027,0 c 0,-0.498599 0.213649,-0.641073 0.961618,-0.641073 h 0.961618 v -2.438792 -2.438796 l -0.781695,0.196152 c -0.429962,0.107877 -0.865383,0.06073 -0.967627,-0.104642 -0.232854,-0.376725 1.78359,-1.945308 2.500808,-1.945308 h 0.530723 v 3.365673 3.365662 h 0.801317 c 0.587657,0 0.80132,0.170992 0.80132,0.641072 v 0.641073 h -2.404054 -2.404046 z m 16.026993,0 c 0,-0.498599 0.213648,-0.641073 0.961617,-0.641073 h 0.961627 v -2.438792 -2.438796 l -0.781695,0.196152 c -0.429962,0.107877 -0.865383,0.06073 -0.967618,-0.104642 -0.232854,-0.376725 1.783581,-1.945308 2.5008,-1.945308 h 0.530721 v 3.365673 3.365662 h 0.801319 c 0.587656,0 0.801319,0.170992 0.801319,0.641072 v 0.641082 H 74.745898 72.341844 Z M 32.618166,72.255312 c -0.510658,-0.649171 -0.664304,-1.306627 -0.664304,-2.841638 0,-2.542012 0.75996,-3.686208 2.448388,-3.686208 1.520754,0 2.226269,0.438148 2.646533,1.643768 0.747728,2.144842 0.170189,5.041137 -1.102538,5.529541 -1.242801,0.476865 -2.661635,0.201678 -3.328044,-0.645472 z m 2.797489,-0.501683 c 0.215071,-0.215084 0.384644,-1.246551 0.384644,-2.339945 0,-2.01758 -0.346453,-2.724591 -1.334998,-2.724591 -0.787855,0 -1.229328,0.978408 -1.229328,2.724591 0,0.81654 0.149333,1.763576 0.331844,2.104584 0.373995,0.698799 1.270283,0.812933 1.847856,0.235388 z m 13.229514,0.501683 c -0.51066,-0.649171 -0.664394,-1.306627 -0.664394,-2.841638 0,-2.542012 0.75996,-3.686208 2.448387,-3.686208 1.520763,0 2.226269,0.438148 2.646535,1.643768 0.747725,2.144842 0.170199,5.041137 -1.102528,5.529541 -1.242811,0.476865 -2.661646,0.201678 -3.328045,-0.645472 z m 2.79748,-0.501683 c 0.215051,-0.215084 0.384642,-1.246551 0.384642,-2.339945 0,-2.01758 -0.346453,-2.724591 -1.33499,-2.724591 -0.787853,0 -1.229327,0.978408 -1.229327,2.724591 0,0.81654 0.149344,1.763576 0.331843,2.104584 0.373997,0.698799 1.270285,0.812933 1.847847,0.235388 z m 13.229512,0.501683 c -0.510657,-0.649171 -0.664394,-1.306627 -0.664394,-2.841638 0,-2.542012 0.759961,-3.686208 2.448387,-3.686208 1.520764,0 2.226278,0.438148 2.646545,1.643768 0.747729,2.144842 0.170198,5.041137 -1.102539,5.529541 -1.2428,0.476865 -2.661644,0.201678 -3.328045,-0.645472 z m 2.797488,-0.501683 c 0.215053,-0.215084 0.384643,-1.246551 0.384643,-2.339945 0,-2.01758 -0.346451,-2.724591 -1.334987,-2.724591 -0.787856,0 -1.22933,0.978408 -1.22933,2.724591 0,0.81654 0.149344,1.763576 0.331843,2.104584 0.373996,0.698799 1.270285,0.812933 1.847856,0.235388 z m 45.283501,0.501683 c -0.51066,-0.649171 -0.66431,-1.306627 -0.66431,-2.841638 0,-2.542012 0.75996,-3.686208 2.44839,-3.686208 1.52075,0 2.22627,0.438148 2.64653,1.643768 0.74773,2.144842 0.1702,5.041137 -1.10254,5.529541 -1.24279,0.476865 -2.66163,0.201678 -3.32804,-0.645472 z m 2.79749,-0.501683 c 0.21505,-0.215084 0.38464,-1.246551 0.38464,-2.339945 0,-2.01758 -0.34645,-2.724591 -1.33499,-2.724591 -0.78785,0 -1.22934,0.978408 -1.22934,2.724591 0,0.81654 0.14935,1.763576 0.33185,2.104584 0.37399,0.698799 1.27029,0.812933 1.84785,0.235388 z m 5.21601,0.501683 c -0.51066,-0.649171 -0.66431,-1.306627 -0.66431,-2.841638 0,-2.542012 0.75996,-3.686208 2.4484,-3.686208 1.52076,0 2.22627,0.438148 2.64652,1.643768 0.74774,2.144842 0.1702,5.041137 -1.10253,5.529541 -1.24281,0.476865 -2.66164,0.201678 -3.32804,-0.645472 z m 2.79748,-0.501683 c 0.21508,-0.215084 0.38463,-1.246551 0.38463,-2.339945 0,-2.01758 -0.34644,-2.724591 -1.33497,-2.724591 -0.78786,0 -1.22934,0.978408 -1.22934,2.724591 0,0.81654 0.14934,1.763576 0.33185,2.104584 0.37399,0.698799 1.27028,0.812933 1.84784,0.235388 z m 37.27001,0.501683 c -0.51066,-0.649171 -0.6643,-1.306627 -0.6643,-2.841638 0,-2.542012 0.75995,-3.686208 2.44838,-3.686208 1.52076,0 2.22627,0.438148 2.64653,1.643768 0.74773,2.144842 0.1702,5.041137 -1.10252,5.529541 -1.2428,0.476865 -2.66165,0.201678 -3.32804,-0.645472 z m 2.79749,-0.501683 c 0.21505,-0.215084 0.38464,-1.246551 0.38464,-2.339945 0,-2.01758 -0.34644,-2.724591 -1.33499,-2.724591 -0.78786,0 -1.22933,0.978408 -1.22933,2.724591 0,0.81654 0.14935,1.763576 0.33185,2.104584 0.37399,0.698799 1.27029,0.812933 1.84786,0.235388 z m 5.216,0.501683 c -0.51065,-0.649171 -0.6643,-1.306627 -0.6643,-2.841638 0,-2.542012 0.75995,-3.686208 2.44839,-3.686208 1.52075,0 2.22628,0.438148 2.64653,1.643768 0.74773,2.144842 0.17021,5.041137 -1.10253,5.529541 -1.2428,0.476865 -2.66165,0.201678 -3.32804,-0.645472 z m 2.79749,-0.501683 c 0.21506,-0.215084 0.38465,-1.246551 0.38465,-2.339945 0,-2.01758 -0.34647,-2.724591 -1.33499,-2.724591 -0.78785,0 -1.22933,0.978408 -1.22933,2.724591 0,0.81654 0.14934,1.763576 0.33185,2.104584 0.37399,0.698799 1.27028,0.812933 1.84785,0.235388 z M 70.739153,31.114567 v -8.008093 l 8.253903,-0.08536 8.253909,-0.08536 0.08535,-8.253902 0.08538,-8.2538998 h 15.540785 15.54076 v 8.1737598 8.173769 h -7.69295 -7.69296 v 7.961497 7.961506 L 91.333493,38.9103 c -6.478917,0.116518 -13.763184,0.211999 -16.187276,0.212243 l -4.40742,4.77e-4 z m 48.080987,-0.165708 v -8.173763 h 8.0135 8.01351 v 8.173769 8.173769 h -8.01351 -8.0135 z m 32.69507,-0.160245 v -8.334028 h -8.17376 -8.17378 V 14.44109 6.4275941 l 32.13413,0.017588 32.13414,0.017588 7.98913,8.1785119 7.98914,8.178503 -8.14706,8.151751 -8.14704,8.151759 h -23.80244 -23.80246 z m -112.509504,0 v -8.013492 h 7.692952 7.692958 V 14.601354 6.4275941 h 8.173769 8.173768 v 8.1737599 8.173768 H 62.88593 55.032698 v 8.013495 8.013498 h -8.013494 -8.013498 z m -6.410806,4.16702 c 0,-0.498603 0.21366,-0.641073 0.961627,-0.641073 h 0.961617 V 31.875759 29.436963 L 33.736449,29.6332 c -0.429963,0.107888 -0.865381,0.06072 -0.967628,-0.10463 -0.232845,-0.376724 1.783582,-1.945305 2.500799,-1.945305 h 0.530722 v 3.365669 3.365673 h 0.80132 c 0.587657,0 0.801318,0.170991 0.801318,0.641072 v 0.641072 h -2.404053 -2.404053 z m 32.053994,0 c 0,-0.498603 0.213648,-0.641073 0.961627,-0.641073 h 0.961617 V 31.875759 29.436963 L 65.790443,29.6332 c -0.429965,0.107888 -0.865382,0.06072 -0.967629,-0.104631 -0.232854,-0.376724 1.783581,-1.945306 2.500799,-1.945306 h 0.530721 v 3.365671 3.365673 h 0.80132 c 0.587658,0 0.801318,0.170991 0.801318,0.641072 v 0.641072 H 67.05293 64.648876 Z m 72.121476,0 c 0,-0.498603 0.21366,-0.641073 0.96163,-0.641073 h 0.96161 v -2.438802 -2.438796 l -0.78168,0.196237 c -0.42997,0.107888 -0.86539,0.06072 -0.96764,-0.10463 -0.23284,-0.376724 1.78359,-1.945305 2.50081,-1.945305 h 0.53071 v 3.365669 3.365673 h 0.80132 c 0.58766,0 0.80132,0.170991 0.80132,0.641072 v 0.641072 h -2.40404 -2.40406 z M 24.925207,34.431602 c -0.510658,-0.649171 -0.664304,-1.306628 -0.664304,-2.841629 0,-2.542018 0.759959,-3.686208 2.448387,-3.686208 1.520754,0 2.226269,0.438147 2.646534,1.64376 0.747727,2.144845 0.170189,5.041145 -1.102539,5.529541 -1.242801,0.476867 -2.661635,0.201708 -3.328043,-0.645474 z m 2.797488,-0.501685 c 0.215068,-0.215051 0.384643,-1.246541 0.384643,-2.339935 0,-2.017588 -0.346452,-2.724589 -1.334989,-2.724589 -0.787854,0 -1.229336,0.978398 -1.229336,2.724589 0,0.816544 0.149334,1.763578 0.331844,2.104576 0.373996,0.6988 1.270292,0.812934 1.847855,0.235388 z M 56.9792,34.431602 c -0.510658,-0.649171 -0.664302,-1.306628 -0.664302,-2.841629 0,-2.542018 0.759956,-3.686208 2.448387,-3.686208 1.520753,0 2.226269,0.438147 2.646532,1.64376 0.747728,2.144845 0.170198,5.041145 -1.102539,5.529541 -1.242802,0.476867 -2.661636,0.201708 -3.328041,-0.645474 z m 2.797488,-0.501685 c 0.215083,-0.215051 0.384645,-1.246541 0.384645,-2.339935 0,-2.017588 -0.346453,-2.724589 -1.334999,-2.724589 -0.787853,0 -1.229329,0.978398 -1.229329,2.724589 0,0.816544 0.149343,1.763578 0.331846,2.104576 0.373995,0.6988 1.270291,0.812934 1.847855,0.235388 z m 45.283512,0.501685 c -0.51066,-0.649171 -0.66439,-1.306628 -0.66439,-2.841629 0,-2.542018 0.75995,-3.686208 2.44838,-3.686208 1.52077,0 2.22627,0.438147 2.64654,1.64376 0.74772,2.144845 0.17019,5.041145 -1.10253,5.529541 -1.24281,0.476867 -2.66165,0.201708 -3.32805,-0.645474 z m 2.79748,-0.501685 c 0.21508,-0.215051 0.38464,-1.246541 0.38464,-2.339935 0,-2.017588 -0.34645,-2.724589 -1.33499,-2.724589 -0.78785,0 -1.22933,0.978398 -1.22933,2.724589 0,0.816544 0.14934,1.763578 0.33185,2.104576 0.37399,0.6988 1.27028,0.812934 1.84784,0.235388 z m 5.21601,0.501685 c -0.51066,-0.649171 -0.6643,-1.306628 -0.6643,-2.841629 0,-2.542018 0.75996,-3.686208 2.44839,-3.686208 1.52075,0 2.22628,0.438147 2.64652,1.64376 0.74773,2.144845 0.17021,5.041145 -1.10253,5.529541 -1.24279,0.476867 -2.66164,0.201708 -3.32803,-0.645474 z m 2.79749,-0.501685 c 0.21505,-0.215051 0.38464,-1.246541 0.38464,-2.339935 0,-2.017588 -0.34645,-2.724589 -1.33499,-2.724589 -0.78785,0 -1.22932,0.978398 -1.22932,2.724589 0,0.816544 0.14934,1.763578 0.33184,2.104576 0.374,0.6988 1.27028,0.812934 1.84786,0.235388 z m 29.2565,0.501685 c -0.51066,-0.649171 -0.66439,-1.306628 -0.66439,-2.841629 0,-2.542018 0.75996,-3.686208 2.44838,-3.686208 1.52077,0 2.22628,0.438147 2.64654,1.64376 0.74773,2.144845 0.1702,5.041145 -1.10253,5.529541 -1.24281,0.476867 -2.66164,0.201708 -3.32804,-0.645474 z m 2.79749,-0.501685 c 0.21508,-0.215051 0.38465,-1.246541 0.38465,-2.339935 0,-2.017588 -0.34646,-2.724589 -1.335,-2.724589 -0.78785,0 -1.22932,0.978398 -1.22932,2.724589 0,0.816544 0.14934,1.763578 0.33184,2.104576 0.374,0.6988 1.27028,0.812934 1.84786,0.235388 z M 24.260868,18.28757 c 0,-0.498602 0.21366,-0.641073 0.961617,-0.641073 h 0.961618 v -2.438804 -2.438795 l -0.781695,0.19615 c -0.429963,0.107887 -0.865382,0.06072 -0.967628,-0.104631 -0.232846,-0.376724 1.78359,-1.945305 2.500808,-1.945305 h 0.530722 v 3.36567 3.365672 h 0.801318 c 0.587658,0 0.80132,0.170982 0.80132,0.641073 v 0.641071 H 26.664895 24.26085 Z m 16.026992,0 c 0,-0.498602 0.213661,-0.641073 0.961618,-0.641073 h 0.961627 v -2.438804 -2.438795 l -0.781695,0.19615 c -0.429964,0.107887 -0.865384,0.06072 -0.96763,-0.104631 -0.232845,-0.376724 1.783582,-1.945305 2.500801,-1.945305 h 0.530722 v 3.36567 3.365672 h 0.801318 c 0.587658,0 0.801319,0.170982 0.801319,0.641073 v 0.641071 h -2.404044 -2.404053 z m 32.053993,0 c 0,-0.498602 0.213648,-0.641073 0.961617,-0.641073 h 0.961627 v -2.438804 -2.438795 l -0.781695,0.196149 c -0.429962,0.107886 -0.865383,0.06072 -0.967618,-0.104632 -0.232854,-0.376723 1.783581,-1.945305 2.5008,-1.945305 h 0.530721 v 3.36567 3.365672 h 0.801319 c 0.587656,0 0.801319,0.170983 0.801319,0.641073 v 0.641072 h -2.404045 -2.404054 z m 56.094497,0 c 0,-0.498602 0.21364,-0.641073 0.96161,-0.641073 h 0.96161 v -2.438804 -2.438795 l -0.78169,0.196149 c -0.42996,0.107886 -0.86539,0.06072 -0.96763,-0.104632 -0.23285,-0.376723 1.78359,-1.945305 2.50081,-1.945305 h 0.53072 v 3.36567 3.365672 h 0.80133 c 0.58764,0 0.80132,0.170983 0.80132,0.641073 v 0.641072 h -2.40405 -2.40405 z M 16.591174,17.763535 c -0.510658,-0.649167 -0.664392,-1.306626 -0.664392,-2.841628 0,-2.542016 0.759959,-3.686206 2.448387,-3.686206 1.520763,0 2.226269,0.438147 2.646534,1.643759 0.747728,2.144843 0.17019,5.041145 -1.10253,5.52954 -1.242801,0.476867 -2.661644,0.201693 -3.328043,-0.645473 z m 2.797488,-0.501681 c 0.215071,-0.215068 0.384644,-1.246541 0.384644,-2.339937 0,-2.017588 -0.346452,-2.724589 -1.334989,-2.724589 -0.787855,0 -1.229328,0.978399 -1.229328,2.724589 0,0.816542 0.149334,1.763579 0.331844,2.104574 0.373996,0.698801 1.270283,0.812935 1.847856,0.235399 z m 13.229504,0.501681 c -0.510658,-0.649167 -0.664304,-1.306626 -0.664304,-2.841628 0,-2.542016 0.75996,-3.686206 2.448388,-3.686206 1.520754,0 2.226269,0.438147 2.646533,1.643759 0.747728,2.144843 0.170192,5.041145 -1.102538,5.52954 -1.242801,0.476867 -2.661635,0.201693 -3.328044,-0.645473 z m 2.797489,-0.501681 c 0.215071,-0.215068 0.384644,-1.246541 0.384644,-2.339937 0,-2.017588 -0.346453,-2.724589 -1.334998,-2.724589 -0.787855,0 -1.229328,0.978399 -1.229328,2.724589 0,0.816542 0.149333,1.763579 0.331844,2.104574 0.373995,0.698801 1.270283,0.812935 1.847856,0.235399 z m 13.229514,0.501681 c -0.51066,-0.649167 -0.664394,-1.306626 -0.664394,-2.841628 0,-2.542016 0.75996,-3.686206 2.448387,-3.686206 1.520763,0 2.226269,0.438147 2.646535,1.643759 0.747725,2.144843 0.170199,5.041145 -1.102528,5.52954 -1.242811,0.476867 -2.661646,0.201693 -3.328045,-0.645473 z m 2.79748,-0.501681 c 0.215051,-0.215068 0.384642,-1.246541 0.384642,-2.339937 0,-2.017588 -0.346453,-2.724589 -1.33499,-2.724589 -0.787853,0 -1.229327,0.978399 -1.229327,2.724589 0,0.816542 0.149344,1.763579 0.331843,2.104574 0.373997,0.698801 1.270285,0.812935 1.847847,0.235399 z m 29.256513,0.501681 c -0.510658,-0.649167 -0.664394,-1.306626 -0.664394,-2.841628 0,-2.542016 0.75996,-3.686206 2.448391,-3.686206 1.520763,0 2.226268,0.438147 2.646532,1.643759 0.747728,2.144843 0.170197,5.041145 -1.10253,5.52954 -1.24281,0.476867 -2.661645,0.201693 -3.328045,-0.645473 z m 2.797479,-0.501681 c 0.215083,-0.215068 0.384643,-1.246541 0.384643,-2.339937 0,-2.017588 -0.346451,-2.724589 -1.334987,-2.724589 -0.787856,0 -1.22933,0.978399 -1.22933,2.724589 0,0.816542 0.149344,1.763579 0.331843,2.104574 0.373999,0.698801 1.270285,0.812935 1.847849,0.235399 z m 37.270009,0.501681 c -0.51066,-0.649167 -0.66431,-1.306626 -0.66431,-2.841628 0,-2.542016 0.75996,-3.686206 2.4484,-3.686206 1.52076,0 2.22627,0.438147 2.64652,1.643759 0.74774,2.144843 0.1702,5.041145 -1.10253,5.52954 -1.24281,0.476867 -2.66164,0.201693 -3.32804,-0.645473 z m 2.79748,-0.501681 c 0.21508,-0.215068 0.38463,-1.246541 0.38463,-2.339937 0,-2.017588 -0.34644,-2.724589 -1.33497,-2.724589 -0.78786,0 -1.22934,0.978399 -1.22934,2.724589 0,0.816542 0.14934,1.763579 0.33185,2.104574 0.37399,0.698801 1.27028,0.812935 1.84784,0.235399 z"
       id="path1"
       clip-path="url(#clipPath2)" /><path
       style="fill:#000000;stroke-width:3.76748"
       d="m 211.51139,263.67374 c -9.35251,-0.83008 -15.84146,-6.60246 -17.55685,-15.61801 -0.43361,-2.27939 -0.19011,-8.39593 4.62247,-116.1229 4.80496,-107.554696 5.11562,-113.829083 5.73434,-115.790119 2.29386,-7.2710852 7.62204,-12.4246167 15.08232,-14.5878242 1.82641,-0.5296114 6.71229,-0.56721517 84.15772,-0.64753464 91.12492,-0.0945659 84.43489,-0.24728153 89.08565,2.03030294 1.85528,0.9084579 2.95716,1.7631785 4.84885,3.7612756 2.7974,2.9547335 4.08611,5.3413253 4.85746,8.9959263 0.51335,2.431095 0.45215,3.982551 -4.59763,117.019473 -5.6737,127.00071 -4.98625,115.96844 -7.5234,120.7503 -1.75231,3.3027 -5.39814,6.79265 -8.77255,8.39744 -4.85679,2.30969 2.4708,2.13392 -86.84323,2.08309 -44.30435,-0.0257 -81.69719,-0.14726 -83.09515,-0.27125 z m 166.32514,-8.28885 c 1.92734,-0.8574 4.84181,-3.59121 5.89358,-5.52811 l 0.88022,-1.62111 5.14819,-115.23707 5.14815,-115.237052 -0.60734,-1.84612 c -0.83865,-2.549274 -3.62601,-5.46698 -6.13275,-6.4194952 L 386.3513,8.806131 h -82.59214 -82.59218 l -1.87682,0.6885573 c -2.61656,0.9598607 -5.96593,4.1660947 -7.04079,6.7397487 l -0.77105,1.846085 -5.06956,113.478298 c -4.5328,101.46213 -5.02619,113.67925 -4.66,115.37631 0.66153,3.06585 2.59601,5.79785 5.26032,7.42914 2.77368,1.69828 -1.99941,1.60912 86.98328,1.62424 80.88308,0.0161 82.48245,9.9e-4 83.84417,-0.60362 z M 212.30679,242.30031 c -0.56307,-0.58937 -0.59053,-1.06328 -0.36014,-6.22018 0.23034,-5.15682 0.30031,-5.63076 0.91588,-6.2201 0.65815,-0.63003 1.09174,-0.63794 34.95693,-0.63794 33.86513,0 34.298,0.006 34.89991,0.63794 0.56301,0.58934 0.59044,1.06328 0.36005,6.2201 -0.23033,5.1569 -0.29999,5.63081 -0.91579,6.22018 -0.65825,0.63003 -1.0918,0.63793 -34.95695,0.63793 -33.86516,0 -34.29809,-0.006 -34.89989,-0.63793 z m 91.56179,-0.31918 c -0.56299,-0.58936 -0.59045,-1.06327 -0.36008,-6.22013 0.23036,-5.15682 0.30001,-5.63073 0.91582,-6.22012 0.65819,-0.63004 1.09177,-0.63795 34.95697,-0.63795 33.86518,0 34.29804,0.006 34.8999,0.63795 0.56299,0.58939 0.59047,1.0633 0.36005,6.22012 -0.23032,5.15686 -0.29998,5.63077 -0.91579,6.22013 -0.65821,0.63009 -1.0918,0.63797 -34.95694,0.63797 -33.86515,0 -34.29809,-0.006 -34.89993,-0.63797 z M 213.3898,218.0576 c -0.5912,-0.61882 -0.59049,-1.06324 0.0257,-14.83264 0.61514,-13.76928 0.65388,-14.21375 1.30064,-14.83262 0.65815,-0.62997 1.09179,-0.63793 34.79741,-0.63793 33.70569,0 34.13861,0.006 34.74046,0.63793 0.59121,0.61887 0.59044,1.06334 -0.0257,14.83262 -0.61511,13.7694 -0.6538,14.21382 -1.30057,14.83264 -0.65813,0.63006 -1.09175,0.63802 -34.79745,0.63802 -33.70566,0 -34.13858,-0.006 -34.74038,-0.63802 z m 91.86656,0 c -0.59122,-0.61882 -0.59049,-1.06324 0.0257,-14.83264 0.61508,-13.76928 0.65411,-14.21375 1.30057,-14.83262 0.65814,-0.62997 1.09175,-0.63793 34.79742,-0.63793 33.70571,0 34.13861,0.006 34.74045,0.63793 0.59122,0.61887 0.59045,1.06334 -0.0255,14.83262 -0.61519,13.7694 -0.65419,14.21382 -1.3006,14.83264 -0.65815,0.63006 -1.09177,0.63802 -34.79748,0.63802 -33.70562,0 -34.13856,-0.006 -34.74037,-0.63802 z m -89.32867,-46.81532 c -1.0226,-0.70382 -1.01738,-1.50165 0.18722,-28.4642 1.20452,-26.96254 1.27055,-27.76036 2.35604,-28.46417 0.19874,-0.12874 36.35461,-0.23673 80.3462,-0.23929 79.56264,-0.003 79.98794,-9.9e-4 80.59424,0.63307 0.59995,0.62807 0.59037,1.06326 -0.61614,28.0703 -1.20649,27.00713 -1.23556,27.44228 -1.89196,28.07037 -0.66297,0.6346 -1.0885,0.63791 -80.65075,0.63309 -43.99137,-0.003 -80.13753,-0.11018 -80.32482,-0.23929 z m 81.44022,-19.37324 0.0498,-1.1164 h -3.19983 c -2.47976,0 -3.23465,-0.10257 -3.35446,-0.45598 -0.0909,-0.26838 1.31643,-2.29817 3.42024,-4.93293 1.96615,-2.46235 3.58463,-4.69738 3.59664,-4.96676 0.0192,-0.42039 -0.71801,-0.48975 -5.20411,-0.48975 -5.14988,0 -5.22923,0.0127 -5.45036,0.71773 -0.46434,1.48502 -0.41242,1.51516 2.61209,1.51516 2.29865,0 2.91449,0.0991 3.04725,0.4908 0.10666,0.31501 -1.11859,2.07972 -3.41987,4.92521 -1.97241,2.43894 -3.59621,4.65825 -3.60847,4.9319 -0.0192,0.43223 0.73086,0.49743 5.71945,0.49743 h 5.74166 z m 6.89126,-4.31281 0.2425,-5.42924 1.4806,-1.01179 c 1.52838,-1.04438 1.7605,-1.45841 1.1664,-2.08029 -0.25782,-0.26998 -0.53948,-0.23897 -1.10791,0.12333 -0.41917,0.26677 -0.90785,0.39254 -1.08593,0.27921 -0.19298,-0.12299 -0.26071,-1.61517 -0.16805,-3.69574 l 0.15591,-3.48997 h -1.43543 -1.43543 l -0.22714,5.08387 -0.22716,5.08386 -1.48148,1.03089 c -1.67943,1.16857 -1.60723,1.05032 -1.13687,1.86159 0.27667,0.47717 0.48922,0.54082 0.96896,0.29008 1.33436,-0.69748 1.51593,-0.19584 1.34168,3.70519 l -0.16422,3.6783 h 1.43541 1.43542 z m -36.20623,-39.2281 c -0.54449,-0.56989 -0.59051,-1.06325 -0.43136,-4.62522 0.15909,-3.56198 0.24951,-4.055341 0.84461,-4.625227 0.65684,-0.628774 1.09175,-0.638014 30.17222,-0.638014 29.08044,0 29.5146,0.0071 30.11521,0.638014 0.54446,0.569886 0.59044,1.063247 0.43125,4.625227 -0.15909,3.56197 -0.24949,4.05533 -0.84455,4.62522 -0.65686,0.62876 -1.09177,0.63795 -30.17221,0.63795 -29.08044,0 -29.51459,-0.006 -30.1152,-0.63795 z M 219.87501,82.884507 c -0.98382,-0.67715 -1.00867,-1.695735 -0.3828,-15.704971 0.62582,-14.00917 0.74184,-15.027755 1.78603,-15.704937 0.19871,-0.128751 17.83775,-0.236741 39.19761,-0.239297 38.41412,-0.0031 38.84283,0.0021 39.44562,0.633095 0.59178,0.619483 0.59046,1.063281 -0.046,15.311108 -0.63653,14.247826 -0.67518,14.691626 -1.32193,15.311076 -0.65924,0.631018 -1.08845,0.637916 -39.50219,0.633092 -21.35967,-0.0027 -38.98899,-0.11022 -39.17629,-0.239292 z m 81.86827,-0.393861 c -0.5918,-0.619454 -0.59052,-1.063249 0.046,-15.31111 0.63653,-14.247826 0.67524,-14.691592 1.32205,-15.311075 0.65915,-0.630985 1.09174,-0.637951 39.58209,-0.637951 38.49044,0 38.92238,0.0066 39.5252,0.637951 0.59175,0.619483 0.59047,1.063249 -0.046,15.311075 -0.63649,14.247861 -0.67552,14.691656 -1.32193,15.31111 -0.65918,0.630984 -1.09177,0.637947 -39.58218,0.637947 -38.49035,0 -38.92227,-0.0066 -39.52512,-0.637947 z M 221.01796,44.141947 c -0.39708,-0.605521 -0.39886,-2.187391 -0.0122,-10.845334 0.43386,-9.711127 0.48028,-10.163197 1.11932,-10.774406 0.65921,-0.631018 1.0918,-0.637949 39.6922,-0.637949 37.40242,0 39.04672,0.02236 39.52763,0.583317 0.44531,0.517693 0.44939,1.753593 0.0373,10.982074 -0.40329,9.028065 -0.53345,10.464794 -0.98817,10.899996 -0.47037,0.450252 -4.51203,0.501274 -39.71743,0.501274 h -39.19442 z m 82.566,0.0377 c -0.54254,-0.630666 -0.55008,-1.287655 -0.12454,-10.81185 0.42548,-9.52423 0.49253,-10.181221 1.09066,-10.811886 l 0.63763,-0.671432 h 38.86628 c 38.44098,0 38.87295,0.0066 39.47574,0.63795 0.58406,0.611399 0.59041,1.063249 0.15334,10.845368 -0.43697,9.782082 -0.48272,10.233932 -1.12242,10.845332 -0.6592,0.630983 -1.09179,0.637981 -39.53275,0.637981 h -38.86631 z m -193.10448,212.235873 -8.52874,-0.0904 0.71942,-16.1033 0.71938,-16.10337 h 11.00488 11.00483 l -0.72677,16.26802 -0.72675,16.26805 -2.46878,-0.0742 c -1.35782,-0.0412 -6.30674,-0.11509 -10.99749,-0.16457 z m 36.19959,-15.95955 0.72368,-16.19863 9.52192,-0.0478 9.52186,-0.0478 7.51235,7.88778 c 4.13178,4.33827 7.50616,8.02578 7.49862,8.19443 -0.006,0.16869 -3.80106,3.93003 -8.42998,8.35862 l -8.41632,8.0519 h -9.32786 -9.32791 z m -57.516746,10.40917 c -1.870463,-0.43817 -3.804184,-2.48823 -4.495392,-4.76573 -0.404916,-1.33428 -0.483219,-2.6315 -0.345237,-5.71985 0.173483,-3.88199 0.211501,-4.0548 1.337945,-6.15327 1.339796,-2.49493 2.657451,-3.51082 5.27075,-4.06382 3.242656,-0.68617 6.260359,0.72073 7.567058,3.52795 0.822451,1.76673 1.155261,5.16883 0.809196,8.27181 -0.502777,4.50777 -1.881424,7.0432 -4.490824,8.25824 -1.75548,0.81744 -3.881181,1.05982 -5.653465,0.64467 z m 4.201367,-4.17872 c 0.999705,-1.0323 1.486442,-2.86265 1.632894,-6.14043 0.215974,-4.83311 -0.634437,-6.85808 -2.879879,-6.85808 -2.245475,0 -3.276743,2.02497 -3.492652,6.85808 -0.215974,4.83312 0.634435,6.85812 2.87991,6.85812 0.798747,0 1.383089,-0.22557 1.859727,-0.71769 z m 39.297789,4.08729 c -1.14832,-0.32026 -1.87827,-0.79857 -2.69309,-1.7644 -1.73088,-2.05172 -2.15596,-3.93653 -1.94627,-8.62975 0.17349,-3.88199 0.2115,-4.0548 1.33791,-6.15327 1.33986,-2.49493 2.65749,-3.51082 5.27075,-4.06382 3.24272,-0.68617 6.2604,0.72073 7.56713,3.52795 0.82237,1.76673 1.15522,5.16883 0.80919,8.27181 -0.50278,4.50777 -1.88145,7.0432 -4.49082,8.25824 -1.90069,0.885 -3.96569,1.08012 -5.8548,0.55324 z m 4.40266,-4.08729 c 0.99426,-1.02671 1.48595,-2.8583 1.63189,-6.07891 0.22937,-5.06097 -0.66879,-7.0588 -3.08437,-6.86125 -1.085,0.0889 -1.32133,0.25813 -1.9223,1.37705 -0.84965,1.58201 -1.38886,7.04847 -0.92092,9.33605 0.47823,2.33788 0.97027,2.94475 2.38766,2.94475 0.84881,0 1.42166,-0.21566 1.90804,-0.71769 z m -75.35863,-44.49749 -6.455181,-0.0932 0.709961,-15.89214 0.709962,-15.89209 5.802216,-0.20988 c 3.191153,-0.11538 9.295891,-0.20992 13.566043,-0.20992 h 7.763893 l -0.726734,16.26804 -0.726765,16.26801 -7.094092,-0.0729 c -3.901756,-0.0399 -9.998918,-0.11506 -13.549303,-0.16615 z m 65.70854,-16.02919 0.72675,-16.26806 h 20.35453 20.35447 l 7.54981,7.96354 c 4.1524,4.37987 7.49382,8.1088 7.42535,8.28639 -0.0685,0.17732 -3.8667,3.91467 -8.44067,8.30452 l -8.31624,7.98163 h -20.19033 -20.19045 z m -14.13845,10.47855 c -1.87046,-0.43813 -3.80423,-2.48816 -4.49538,-4.76567 -0.40491,-1.33428 -0.48325,-2.63149 -0.34525,-5.71984 0.17347,-3.88199 0.2115,-4.05483 1.33791,-6.15328 1.33987,-2.49489 2.6575,-3.51082 5.27074,-4.06381 3.24272,-0.68614 6.26041,0.72073 7.56713,3.5279 0.82239,1.7668 1.15524,5.16888 0.8092,8.27186 -0.50274,4.50774 -1.88146,7.04319 -4.49082,8.25817 -1.7555,0.81745 -3.8812,1.05988 -5.65353,0.64467 z m 4.20139,-4.17872 c 0.99968,-1.0322 1.4864,-2.86258 1.63285,-6.14034 0.21596,-4.8331 -0.63439,-6.8581 -2.87985,-6.8581 -2.24549,0 -3.27671,2.025 -3.49263,6.8581 -0.21597,4.83312 0.63437,6.85807 2.87985,6.85807 0.79874,0 1.38313,-0.22554 1.85978,-0.71773 z m -30.327458,2.47211 0.07829,-1.75438 h 2.55183 2.551862 l 0.277953,-6.22012 c 0.152714,-3.42109 0.201278,-6.22016 0.107995,-6.22016 -0.09329,0 -0.894275,0.35871 -1.779412,0.79748 -0.885102,0.43861 -1.726662,0.79746 -1.870144,0.79746 -0.265173,0 -1.430272,-1.89161 -1.412349,-2.29301 0.0065,-0.12069 1.268294,-1.08971 2.80646,-2.15311 2.705183,-1.87027 2.861891,-1.93353 4.791363,-1.93353 h 1.99471 l -0.384755,8.61247 -0.384759,8.61252 h 1.913882 1.913882 l -0.0783,1.75438 -0.0783,1.75446 h -6.539147 -6.539077 z m -1.970335,-62.99876 0.726768,-16.26804 h 11.164369 11.164316 l -0.72677,16.26804 -0.72675,16.26805 H 95.616804 84.452431 Z m 44.010383,0.20319 0.71771,-16.0652 1.48893,-0.20254 c 0.81895,-0.1115 10.11857,-0.20257 20.66577,-0.20257 h 19.17672 l 6.70692,7.09735 c 3.68876,3.90356 7.10729,7.56795 7.59669,8.14307 l 0.88976,1.04576 -8.48324,8.12495 -8.48326,8.12495 h -20.49687 -20.49685 z m -79.839519,10.27575 c -1.87046,-0.43816 -3.804213,-2.48821 -4.495389,-4.76572 -0.404915,-1.33423 -0.483223,-2.63145 -0.34527,-5.71982 0.173483,-3.88201 0.2115,-4.05488 1.337945,-6.15331 1.33986,-2.49491 2.657484,-3.51081 5.27075,-4.0638 3.242717,-0.68617 6.260392,0.72073 7.567123,3.52792 0.822385,1.76679 1.155196,5.16886 0.809191,8.27188 -0.502743,4.50771 -1.881486,7.04317 -4.49082,8.25817 -1.755513,0.81744 -3.881245,1.05988 -5.65353,0.64468 z m 4.201402,-4.17874 c 0.99967,-1.03226 1.486407,-2.86267 1.632828,-6.14036 0.215975,-4.83313 -0.634402,-6.85811 -2.879878,-6.85811 -2.245441,0 -3.27668,2.02498 -3.492621,6.85811 -0.215972,4.8331 0.634404,6.85809 2.879878,6.85809 0.798748,0 1.383089,-0.22558 1.859793,-0.71773 z m 13.69192,2.47212 0.07828,-1.75439 h 2.551827 2.551865 l 0.277955,-6.22013 c 0.152713,-3.42109 0.201274,-6.22013 0.107977,-6.22013 -0.09329,0 -0.894275,0.35904 -1.77941,0.79747 -0.885135,0.43855 -1.726694,0.79742 -1.870142,0.79742 -0.265173,0 -1.430274,-1.89165 -1.412354,-2.29298 0.0066,-0.12076 1.268296,-1.08969 2.806461,-2.1531 2.705184,-1.8703 2.861891,-1.93354 4.791362,-1.93354 h 1.994713 l -0.384759,8.61249 -0.384755,8.6125 h 1.913879 1.913883 l -0.07829,1.75439 -0.07829,1.75435 h -6.539132 -6.53908 z m 44.019387,0 0.0784,-1.75439 h 2.55184 2.55188 l 0.27793,-6.22013 c 0.15271,-3.42109 0.20128,-6.22013 0.10798,-6.22013 -0.0933,0 -0.89432,0.35904 -1.7794,0.79747 -0.88515,0.43855 -1.72674,0.79742 -1.87014,0.79742 -0.26518,0 -1.43028,-1.89165 -1.41235,-2.29298 0.006,-0.12076 1.2683,-1.08969 2.80643,-2.1531 2.7052,-1.8703 2.86184,-1.93354 4.79135,-1.93354 h 1.99468 l -0.38475,8.61249 -0.38476,8.6125 h 1.91387 1.91391 l -0.0782,1.75439 -0.0784,1.75435 h -6.53908 -6.53913 z M 47.730716,93.735816 42.551593,93.639651 43.270882,77.539029 43.990176,61.438375 H 65.840331 87.690547 L 86.963813,77.706405 86.237048,93.974437 69.57346,93.903187 C 60.408494,93.863895 50.579251,93.788824 47.730716,93.735785 Z M 131.5055,80.338045 c 0.33613,-7.499996 0.75628,-14.820634 0.93362,-16.268034 l 0.3225,-2.631571 h 20.38775 20.38777 l 7.51659,8.011557 c 4.13415,4.406351 7.55137,8.191075 7.59376,8.410499 0.0425,0.219166 -3.71201,3.932645 -8.34318,8.25162 l -8.42028,7.852707 -20.49466,0.0031 -20.49469,0.0031 z M 28.472741,88.504042 c -1.870462,-0.438175 -3.804213,-2.48819 -4.495392,-4.765707 -0.404914,-1.334273 -0.483221,-2.631479 -0.345233,-5.719821 0.173481,-3.882011 0.211177,-4.054853 1.33791,-6.153269 1.339828,-2.494929 2.657483,-3.510862 5.270752,-4.063828 3.242719,-0.68616 6.260389,0.720727 7.56709,3.527892 0.82242,1.766786 1.155226,5.168899 0.809225,8.271874 -0.502679,4.507724 -1.881486,7.043163 -4.490823,8.258202 -1.755513,0.817402 -3.881212,1.059829 -5.653529,0.644657 z m 4.20137,-4.178747 c 0.999701,-1.032228 1.486437,-2.862596 1.632859,-6.140362 0.215974,-4.833089 -0.634401,-6.858086 -2.879845,-6.858086 -2.245476,0 -3.276743,2.024997 -3.492652,6.858086 -0.215974,4.833117 0.634436,6.858086 2.879879,6.858086 0.798745,0 1.383085,-0.225239 1.859759,-0.717724 z m 83.837429,4.178747 c -1.87045,-0.438175 -3.80417,-2.48819 -4.49539,-4.765707 -0.40492,-1.334273 -0.48322,-2.631479 -0.34524,-5.719821 0.17349,-3.882011 0.2115,-4.054853 1.33795,-6.153269 1.33981,-2.494929 2.65746,-3.510862 5.27075,-4.063828 3.24264,-0.68616 6.26037,0.720727 7.56706,3.527892 0.82245,1.766786 1.15527,5.168899 0.80923,8.271874 -0.50279,4.507724 -1.88146,7.043163 -4.49086,8.258202 -1.75546,0.817402 -3.88116,1.059829 -5.65346,0.644657 z m 4.20137,-4.178747 c 0.99971,-1.032228 1.48643,-2.862596 1.6329,-6.140362 0.21598,-4.833089 -0.63448,-6.858086 -2.87988,-6.858086 -2.24548,0 -3.27674,2.024997 -3.49264,6.858086 -0.21598,4.833117 0.63441,6.858086 2.87987,6.858086 0.79873,0 1.38313,-0.225239 1.85975,-0.717724 z m -30.327467,2.472118 0.07828,-1.754394 h 2.551893 2.551833 l 0.27795,-6.220107 c 0.152715,-3.421055 0.201276,-6.220134 0.107673,-6.220134 -0.0933,0 -0.894273,0.359071 -1.77941,0.797436 -0.885133,0.438625 -1.726693,0.79747 -1.870109,0.79747 -0.265175,0 -1.430308,-1.891611 -1.412353,-2.293014 0.0066,-0.120767 1.268297,-1.089701 2.806427,-2.15311 2.705217,-1.87027 2.861862,-1.933466 4.791333,-1.933466 h 1.99474 l -0.38475,8.612476 -0.384762,8.612449 h 1.913882 1.91387 l -0.0783,1.754394 -0.0783,1.754422 h -6.539045 -6.53911 z M 26.229695,39.509049 21.050541,39.412885 21.769831,23.312264 22.48912,7.2116082 h 11.483319 11.483344 l -0.726764,16.2680348 -0.726768,16.268031 -6.296714,-0.07124 c -3.463198,-0.03931 -8.627307,-0.114372 -11.475842,-0.16741 z m 65.072161,0 -5.179151,-0.09616 0.719288,-16.100647 0.71929,-16.1006247 h 11.483318 11.483319 l -0.72676,16.2680307 -0.72677,16.268031 -6.29673,-0.07123 C 99.314503,39.637141 94.150364,39.56207 91.301827,39.50903 Z M 134.36268,23.479708 135.08946,7.2116729 h 20.5417 20.54165 l 7.56555,8.1277861 7.56547,8.127753 -8.48603,8.140279 -8.48602,8.140249 H 153.98387 133.63594 Z M 8.2476514,34.277245 C 6.3771897,33.839104 4.4434365,31.789056 3.7522602,29.511535 3.3473446,28.177298 3.2690393,26.880093 3.4069933,23.791714 c 0.1734809,-3.882008 0.21086,-4.054816 1.3379418,-6.153299 1.3398291,-2.494894 2.6574534,-3.510797 5.2707519,-4.063795 3.242687,-0.686162 6.260393,0.720728 7.567089,3.527924 0.82242,1.766788 1.15523,5.168867 0.809194,8.271874 -0.502678,4.507723 -1.881453,7.043164 -4.490822,8.258167 -1.75548,0.817438 -3.881212,1.059864 -5.6534966,0.64466 z M 12.44902,30.098529 c 0.999702,-1.032227 1.486409,-2.86266 1.63286,-6.140362 0.215973,-4.833118 -0.634434,-6.858085 -2.879878,-6.858085 -2.2454421,0 -3.2767115,2.024967 -3.4926203,6.858085 -0.2159725,4.833089 0.634403,6.858085 2.8798473,6.858085 0.798778,0 1.383119,-0.225236 1.859791,-0.717723 z m 39.818013,4.178716 c -1.870461,-0.438141 -3.804216,-2.488189 -4.49539,-4.76571 -0.404918,-1.334237 -0.483223,-2.631442 -0.345269,-5.719821 0.17348,-3.882008 0.211499,-4.054816 1.337943,-6.153299 1.33986,-2.494894 2.657484,-3.510797 5.270751,-4.063795 3.242718,-0.686162 6.260392,0.720728 7.567119,3.527924 0.82239,1.766788 1.155199,5.168867 0.809194,8.271874 -0.502775,4.507723 -1.881485,7.043164 -4.490823,8.258167 -1.755508,0.817438 -3.881241,1.059864 -5.653525,0.64466 z m 4.2014,-4.178716 c 0.999641,-1.032227 1.486407,-2.86266 1.632829,-6.140362 0.21597,-4.833118 -0.634372,-6.858085 -2.879878,-6.858085 -2.245443,0 -3.276679,2.024967 -3.492621,6.858085 -0.215971,4.833089 0.634404,6.858085 2.879878,6.858085 0.798748,0 1.383088,-0.225236 1.859792,-0.717723 z m 13.691921,2.472118 0.07829,-1.754395 h 2.551827 2.551831 l 0.277951,-6.220134 c 0.152716,-3.421055 0.20128,-6.220136 0.107674,-6.220136 -0.09329,0 -0.894272,0.358656 -1.779407,0.797467 -0.885138,0.438623 -1.726694,0.797471 -1.870144,0.797471 -0.265174,0 -1.430275,-1.891645 -1.412352,-2.293016 0.0065,-0.120767 1.268296,-1.0897 2.806461,-2.15311 2.705182,-1.870304 2.861892,-1.933529 4.791363,-1.933529 h 1.994699 l -0.384757,8.612477 -0.384755,8.61251 h 1.913879 1.913881 l -0.07829,1.754395 -0.07828,1.754425 h -6.539112 -6.539108 z m 44.019396,0 0.0782,-1.754395 h 2.55181 2.55188 l 0.27794,-6.220134 c 0.15273,-3.421055 0.20127,-6.220136 0.10798,-6.220136 -0.0933,0 -0.89427,0.358656 -1.7794,0.797467 -0.88515,0.438623 -1.7267,0.797471 -1.87011,0.797471 -0.26516,0 -1.43031,-1.891645 -1.41237,-2.293016 0.006,-0.120767 1.26828,-1.0897 2.80645,-2.15311 2.70521,-1.870304 2.86184,-1.933529 4.79132,-1.933529 h 1.9947 l -0.38475,8.612477 -0.38476,8.61251 h 1.91387 1.91391 l -0.0785,1.754395 -0.0784,1.754425 h -6.53909 -6.53915 z"
       id="path6" /></g><metadata
     id="metadata1"><rdf:RDF><cc:Work
         rdf:about=""><dc:title>Fakturniak</dc:title><dc:date>09.11.2023</dc:date><dc:creator><cc:Agent><dc:title>Jacek Gauszka</dc:title></cc:Agent></dc:creator><cc:license
           rdf:resource="http://creativecommons.org/licenses/by-nc/4.0/" /></cc:Work><cc:License
         rdf:about="http://creativecommons.org/licenses/by-nc/4.0/"><cc:permits
           rdf:resource="http://creativecommons.org/ns#Reproduction" /><cc:permits
           rdf:resource="http://creativecommons.org/ns#Distribution" /><cc:requires
           rdf:resource="http://creativecommons.org/ns#Notice" /><cc:requires
           rdf:resource="http://creativecommons.org/ns#Attribution" /><cc:prohibits
           rdf:resource="http://creativecommons.org/ns#CommercialUse" /><cc:permits
           rdf:resource="http://creativecommons.org/ns#DerivativeWorks" /></cc:License></rdf:RDF></metadata></svg>
