<?xml version="1.0" encoding="UTF-8" standalone="no"?>
<!-- Created with Inkscape (http://www.inkscape.org/) -->

<svg
   width="136mm"
   height="136mm"
   viewBox="0 0 136 136"
   version="1.1"
   id="svg1"
   xml:space="preserve"
   inkscape:version="1.3 (0e150ed6c4, 2023-07-21)"
   sodipodi:docname="financial-profit.svg"
   xmlns:inkscape="http://www.inkscape.org/namespaces/inkscape"
   xmlns:sodipodi="http://sodipodi.sourceforge.net/DTD/sodipodi-0.dtd"
   xmlns="http://www.w3.org/2000/svg"
   xmlns:svg="http://www.w3.org/2000/svg"><sodipodi:namedview
     id="namedview1"
     pagecolor="#ffffff"
     bordercolor="#000000"
     borderopacity="0.25"
     inkscape:showpageshadow="2"
     inkscape:pageopacity="0.0"
     inkscape:pagecheckerboard="0"
     inkscape:deskcolor="#d1d1d1"
     inkscape:document-units="mm"
     inkscape:zoom="0.49010913"
     inkscape:cx="481.52541"
     inkscape:cy="41.827419"
     inkscape:window-width="1920"
     inkscape:window-height="1017"
     inkscape:window-x="-8"
     inkscape:window-y="-8"
     inkscape:window-maximized="1"
     inkscape:current-layer="layer1" /><defs
     id="defs1" /><g
     inkscape:label="Warstwa 1"
     inkscape:groupmode="layer"
     id="layer1"><path
       style="fill:#000000"
       d="m 6.958776,135.27166 c -4.4425,-1.59525 -5.82173,-7.56733 -2.55425,-11.05995 0.86967,-0.92959 3.08327,-2.01096 4.12371,-2.01447 0.7364402,-0.002 0.6979402,-0.0648 -1.00189,-1.62242 -1.92482,-1.76375 -3.65258,-4.03895 -4.79757,-6.31767 -6.55432,-13.04419 0.50289,-28.35892 14.82317,-32.16752 1.40006,-0.37235 2.72386,-0.48714 5.423959,-0.47032 3.07318,0.0192 3.90252,0.12161 5.94007,0.73386 12.51719,3.76121 19.28523,16.583734 15.21458,28.82504 -1.10476,3.32224 -2.87289,6.17442 -5.4437,8.78127 l -2.14843,2.17854 1.09009,0.17428 c 3.05691,0.48872 5.45572,3.40078 5.45572,6.62301 0,2.37046 -1.38865,4.67751 -3.52978,5.86424 l -1.36501,0.75656 -15.08125,0.0496 c -12.596969,0.0414 -15.257199,-0.0136 -16.149419,-0.33401 z m 30.854149,-4.85457 c 0.9868,-0.9868 1.03428,-2.16477 0.12397,-3.07509 l -0.64944,-0.64943 H 22.843615 8.399776 l -0.64944,0.64943 c -0.88357,0.88358 -0.88357,2.31548 0,3.19905 l 0.64944,0.64944 h 14.319869 14.31988 z m -9.65707,-9.13163 c 2.88899,-0.91623 5.19439,-2.32864 7.3837,-4.52365 5.01795,-5.03099 6.59577,-11.96527 4.25446,-18.69769 -0.92239,-2.65235 -2.13851,-4.56309 -4.25446,-6.68454 -3.52196,-3.53113 -7.47794,-5.20655 -12.43136,-5.26489 -3.522179,-0.0415 -5.027959,0.29734 -8.316519,1.87133 -4.41213,2.11176 -7.94076,6.34166 -9.4451,11.322174 -0.35409,1.172336 -0.47841,2.452426 -0.47536,4.894796 0.004,2.92239 0.0895,3.55362 0.73748,5.42395 2.29684,6.62932 7.86113,11.2731 14.85367,12.39639 1.790459,0.28763 5.617249,-0.0794 7.693489,-0.73787 z m -6.14383,-3.84538 c -0.73715,-0.30489 -1.417369,-1.28928 -1.417369,-2.05117 0,-0.33143 -0.12737,-0.60259 -0.28306,-0.60259 -0.56536,0 -2.5932,-1.60208 -3.13265,-2.47491 -0.72233,-1.16876 -0.69939,-2.08793 0.0745,-2.98769 0.4913,-0.57118 0.84414,-0.72347 1.62488,-0.70134 0.81173,0.023 1.18159,0.22987 1.98769,1.11173 1.291479,1.41287 2.501899,1.50494 3.541529,0.26941 1.41282,-1.67904 0.47016,-3.35748 -2.08002,-3.70355 -2.975689,-0.40381 -5.299769,-2.27445 -5.988469,-4.82009 -0.43984,-1.625756 -0.15524,-3.93905 0.65462,-5.32098 0.67632,-1.15404 2.59227,-2.80383 3.25618,-2.80383 0.18961,0 0.34475,-0.29102 0.34475,-0.6467 0,-0.80871 0.977589,-1.93153 1.852089,-2.12724 1.02268,-0.22887 2.31565,0.70002 2.52458,1.8137 0.12735,0.67885 0.36992,0.99904 0.93375,1.23259 0.94274,0.3905 2.81931,2.38996 3.02966,3.22807 0.23349,0.93027 -0.27807,1.97786 -1.19819,2.453664 -1.03888,0.53723 -1.68124,0.33806 -3.10108,-0.961514 -1.35042,-1.23603 -2.41249,-1.35328 -3.39138,-0.37439 -0.790269,0.79027 -0.866989,2.19826 -0.166909,3.06284 0.355079,0.4385 0.915339,0.65508 2.121189,0.81999 2.6593,0.36368 4.5731,1.67087 5.76021,3.93441 0.70923,1.35233 0.66585,4.28559 -0.0844,5.70658 -0.61806,1.17065 -2.34791,2.86987 -3.19544,3.13887 -0.33593,0.10661 -0.5913,0.49161 -0.69588,1.04912 -0.27059,1.44232 -1.69391,2.28315 -2.97084,1.75502 z m 30.5955,18.00534 c -2.20351,-0.68433 -3.98785,-2.44477 -4.61356,-4.55177 -0.2265,-0.76269 -0.41181,-1.64114 -0.41181,-1.95212 0,-0.92933 0.76318,-3.21092 1.29282,-3.865 0.48536,-0.59939 0.4833,-0.62706 -0.11501,-1.54765 -0.85227,-1.31135 -1.25772,-3.05409 -1.04326,-4.48421 0.18387,-1.22612 0.96814,-3.03268 1.44431,-3.32697 0.15557,-0.0962 -0.0819,-0.77497 -0.57986,-1.65722 -1.99319,-3.53174 -0.47487,-7.87259 3.30622,-9.45243 0.5332,-0.22279 1.27093,-0.40506 1.63941,-0.40506 0.36847,0 0.66995,-0.0484 0.66995,-0.10746 0,-0.0591 -0.84528,-0.9223 -1.8784,-1.91823 -8.87315,-8.55367 -9.18009,-22.77525 -0.68575,-31.77292 2.58205,-2.73505 6.53429,-5.09154 10.42453,-6.21553 2.99559,-0.8655 8.81684,-0.86049 11.83303,0.0102 4.38714,1.26643 8.83527,4.17969 11.60675,7.60172 1.49945,1.85142 3.71122,6.1966 4.30497,8.45744 0.59486,2.26503 0.78491,6.84331 0.38692,9.32097 -0.74836,4.65897 -2.84069,8.73179 -6.27307,12.21084 -1.21127,1.22774 -2.20231,2.27291 -2.20231,2.32262 0,0.0497 0.30148,0.0904 0.66995,0.0904 1.78341,0 3.93033,1.48782 5.01284,3.47391 0.63247,1.16038 0.7746,1.73881 0.7753,3.15505 7.2e-4,1.46151 -0.13174,1.96912 -0.84251,3.22853 -0.49792,0.88225 -0.73543,1.56107 -0.57986,1.65722 0.47618,0.29429 1.26045,2.10086 1.44431,3.32697 0.21446,1.43012 -0.19099,3.17286 -1.04326,4.48421 -0.59831,0.92059 -0.60036,0.94826 -0.11501,1.54765 0.52964,0.65408 1.29282,2.93567 1.29282,3.865 0,2.20364 -1.71194,4.9109 -3.81841,6.03843 -1.06631,0.57076 -1.21742,0.5766 -16.15763,0.62378 -8.29469,0.0262 -15.37968,-0.0451 -15.74442,-0.15832 z m 30.28203,-4.85025 c 0.37207,-0.32742 0.74983,-0.97749 0.83946,-1.4446 0.13626,-0.71014 0.0312,-0.9811 -0.64139,-1.65365 l -0.80435,-0.80435 h -14.3282 -14.32821 l -0.80435,0.80435 c -0.67255,0.67255 -0.77765,0.94351 -0.64139,1.65365 0.0896,0.46711 0.46739,1.11718 0.83946,1.4446 l 0.6765,0.59532 h 14.25799 14.25799 z m 0.13313,-9.06289 c 0.90611,-0.90637 0.96063,-2.02533 0.14585,-2.99364 l -0.70842,-0.84191 h -14.50504 -14.50505 l -0.70842,0.84191 c -0.54963,0.6532 -0.67316,1.0182 -0.55111,1.62843 0.18576,0.92879 0.59535,1.47446 1.3356,1.77932 0.29609,0.12194 6.93472,0.19792 14.75251,0.16884 13.833,-0.0515 14.22836,-0.0671 14.74408,-0.58295 z m -0.51553,-8.67583 c 1.37313,-0.69455 1.63562,-2.51993 0.52244,-3.63311 -0.50753,-0.50753 -0.93771,-0.52244 -15.07452,-0.52244 -14.13682,0 -14.567,0.0149 -15.07452,0.52244 -1.11319,1.11318 -0.8507,2.93856 0.52243,3.63311 0.50822,0.25705 3.87962,0.33457 14.55209,0.33457 10.67246,0 14.04387,-0.0775 14.55208,-0.33457 z m -10.18646,-9.33652 c 4.78807,-1.14002 9.60895,-4.99609 11.7282,-9.38102 1.37141,-2.83758 1.88899,-5.04672 1.89393,-8.0837 0.0137,-8.44473 -5.61931,-15.60694 -13.8213,-17.5733 -11.34246,-2.71926 -22.17324,5.87199 -22.15421,17.5733 0.005,3.06549 0.52569,5.27011 1.91163,8.09361 0.88091,1.79463 1.5606,2.70481 3.3645,4.50543 4.72755,4.71894 10.63012,6.40071 17.07725,4.86568 z m -5.907,-4.69181 c -0.31641,-0.3368 -0.57529,-0.86892 -0.57529,-1.18249 0,-0.39994 -0.42275,-0.84056 -1.41616,-1.47604 -2.4044,-1.53807 -3.19003,-3.52405 -1.90316,-4.81092 1.03228,-1.03228 2.26674,-0.89021 3.55293,0.4089 0.77744,0.78525 1.26108,1.05833 1.87433,1.05833 0.91317,0 2.10498,-0.98066 2.15586,-1.77391 0.11323,-1.76543 -0.66859,-2.57747 -2.72945,-2.83496 -1.68452,-0.21047 -3.89752,-1.39476 -4.6925,-2.51121 -1.47288,-2.06847 -1.82114,-4.81555 -0.87945,-6.93715 0.54344,-1.22435 2.30728,-2.99889 3.38997,-3.41053 0.44026,-0.16738 0.64763,-0.45073 0.64763,-0.88492 0,-1.11661 0.85675,-1.87591 2.11667,-1.87591 1.25525,0 2.11666,0.75858 2.11666,1.86399 0,0.45988 0.26899,0.764 1.01024,1.14215 0.55563,0.28346 1.4486,1.0006 1.98437,1.59364 1.20275,1.3313 1.34283,2.75479 0.36178,3.67644 -1.01018,0.94901 -2.25918,0.77608 -3.48868,-0.48304 -0.8298,-0.84979 -1.22231,-1.05834 -1.99195,-1.05834 -1.55542,0 -2.58104,1.44284 -2.06924,2.911 0.31163,0.89395 1.40158,1.58692 2.496,1.58692 1.93369,0 4.21741,1.39116 5.38499,3.28034 1.80426,2.91935 0.72476,7.31751 -2.23348,9.09976 -0.72631,0.43758 -1.25473,0.97443 -1.3566,1.37823 -0.45438,1.801114 -2.57151,2.49999 -3.75547,1.23972 z m 31.14356,36.495 c -2.25364,-0.80534 -3.67961,-2.2148 -4.42174,-4.37055 -0.61599,-1.78935 -0.28984,-4.07375 0.80636,-5.64787 l 0.50586,-0.72641 -0.84715,-1.72082 c -0.76223,-1.54829 -0.8334,-1.89219 -0.70994,-3.43024 0.0946,-1.17807 0.35129,-2.07472 0.8259,-2.88458 l 0.68868,-1.17515 -0.72352,-1.28278 c -0.60996,-1.08145 -0.72351,-1.59422 -0.72351,-3.26715 0,-1.69558 0.10752,-2.16728 0.73876,-3.24115 l 0.73875,-1.25677 -0.73875,-1.25677 c -0.63124,-1.07386 -0.73876,-1.54557 -0.73876,-3.24114 0,-1.68735 0.10869,-2.169266 0.72612,-3.21959 l 0.72612,-1.23521 -0.72612,-1.40115 c -0.59519,-1.14849 -0.72425,-1.73681 -0.71577,-3.2627 0.0196,-3.52897 1.9685,-5.76893 5.74772,-6.60619 0.729209,-0.16155 0.726739,-0.16592 -1.01709,-1.79718 -4.6695,-4.36809 -7.07957,-10.00571 -7.04386,-16.47694 0.0207,-3.75896 0.5926,-6.30994 2.14042,-9.54808 1.22729,-2.56758 2.20054,-3.96105 4.20943,-6.02693 4.632535,-4.76397 10.433845,-7.0272 17.193805,-6.70771 3.73349,0.17645 6.14222,0.81277 9.35188,2.47049 11.7293,6.05795 15.67326,21.14245 8.41756,32.1947 -0.74044,1.12789 -2.18425,2.8755 -3.20846,3.8836 l -1.86221,1.8329 0.75731,0.16629 c 4.7764,1.04883 7.01822,5.54244 4.87994,9.78159 l -0.77215,1.53081 0.70601,1.06684 c 0.62825,0.949364 0.706,1.318784 0.706,3.35446 0,2.06061 -0.0733,2.39829 -0.73822,3.40314 -0.73117,1.10486 -0.73358,1.1224 -0.25169,1.83276 0.85581,1.26155 1.12221,2.15909 1.12221,3.78088 0,1.57788 -0.47629,3.15846 -1.18912,3.94613 -0.32698,0.36131 -0.27469,0.61381 0.40697,1.9652 1.18691,2.35307 0.9987,5.47738 -0.42471,7.05023 -0.35064,0.38745 -0.30684,0.5978 0.40697,1.95478 1.98887,3.78091 0.16022,8.35912 -3.8122,9.54427 -1.80148,0.53746 -29.640906,0.55891 -31.137805,0.024 z m 30.602545,-4.78207 c 0.44838,-0.44838 0.64943,-0.94356 0.64943,-1.59952 0,-0.65597 -0.20105,-1.15115 -0.64943,-1.59953 l -0.64943,-0.64943 H 113.06652 98.622685 l -0.64943,0.64943 c -0.71368,0.71368 -0.86592,2.09208 -0.31029,2.80936 0.77826,1.00467 1.05356,1.02285 15.614025,1.03108 l 14.23338,0.008 z m -0.42783,-8.73349 c 0.85632,-0.44281 1.07726,-0.87944 1.07726,-2.12889 0,-0.64115 -0.1922,-1.03638 -0.69714,-1.43357 -0.68588,-0.53951 -0.92972,-0.54837 -15.09328,-0.54837 H 98.622685 l -0.64943,0.64944 c -0.91032,0.91032 -0.86284,2.08829 0.12396,3.07509 l 0.773399,0.77339 h 14.056406 c 11.81916,0 14.17554,-0.0616 14.80495,-0.38709 z m -0.16212,-8.91654 c 0.87068,-0.46373 1.22165,-1.05005 1.23096,-2.0564 0.005,-0.57796 -0.20108,-1.13199 -0.56687,-1.52135 l -0.57529,-0.61237 H 113.14067 98.622685 l -0.64943,0.64943 c -1.08322,1.08322 -0.67165,3.00519 0.76794,3.58613 0.909989,0.36723 28.134415,0.32431 28.828655,-0.0455 z m 0.55677,-9.46176 c 0.94064,-0.8839 0.94054,-2.33133 -2.2e-4,-3.21505 l -0.68283,-0.641426 H 113.0222 98.600835 l -0.63851,0.742356 c -0.35118,0.40829 -0.63851,1.07685 -0.63851,1.48567 0,0.90949 0.86047,2.06072 1.658919,2.21951 0.32452,0.0645 6.861066,0.10227 14.525656,0.0839 l 13.93562,-0.0335 z m 0.0702,-9.06198 c 1.19251,-1.1203 0.56304,-3.39934 -1.0486,-3.79656 -0.32339,-0.0797 -6.87891,-0.11091 -14.5678,-0.0693 l -13.979815,0.0756 -0.63841,0.74236 c -0.8343,0.97013 -0.82999,2.13282 0.011,2.97383 l 0.64943,0.64943 h 14.480905 14.48091 z M 117.4939,85.4356 c 9.31762,-2.38305 15.19881,-11.62595 13.31454,-20.9252 -1.73819,-8.57833 -9.0224,-14.55722 -17.71814,-14.54308 -3.03565,0.005 -5.24248,0.52169 -8.09361,1.89521 -1.81965,0.87662 -2.68418,1.51848 -4.52892,3.36247 -1.924155,1.92337 -2.468075,2.67129 -3.485385,4.79257 -1.41709,2.9549 -1.86497,4.86112 -1.86497,7.9375 0,3.07374 0.4474,4.98063 1.86233,7.9375 1.0252,2.14243 1.53979,2.84631 3.485385,4.76739 2.58449,2.55193 4.93148,3.94135 8.02817,4.75268 2.61187,0.6843 6.37721,0.69391 9.0006,0.023 z m -5.9914,-4.80083 c -0.37674,-0.44773 -0.68498,-1.03173 -0.68498,-1.29778 0,-0.293 -0.4659,-0.75676 -1.18166,-1.17622 -2.77347,-1.62537 -3.44414,-4.51347 -1.25835,-5.41886 0.98653,-0.40863 2.05743,-0.0134 2.9898,1.10343 0.55258,0.6619 0.89579,0.83015 1.69342,0.83015 1.92064,0 2.93095,-2.22612 1.6594,-3.65634 -0.44556,-0.50115 -1.01461,-0.73465 -2.26207,-0.92821 -3.15726,-0.48987 -5.2607,-2.3353 -5.89563,-5.17248 -0.63537,-2.83914 0.68348,-5.87543 3.14297,-7.23582 0.68345,-0.37803 1.11212,-0.80364 1.11212,-1.10418 0,-0.26897 0.30824,-0.85536 0.68498,-1.30309 0.52161,-0.61989 0.90311,-0.81405 1.59953,-0.81405 1.10637,0 2.21341,0.98307 2.21341,1.96556 0,0.48677 0.23206,0.78377 0.8599,1.10056 2.72697,1.37594 3.82009,3.90626 2.28694,5.29374 -0.91628,0.82922 -2.20954,0.61895 -3.41142,-0.55465 -0.8358,-0.81614 -1.25769,-1.03188 -2.01787,-1.03188 -1.35888,0 -2.33179,1.13315 -2.11833,2.46721 0.1932,1.20742 0.92751,1.79959 2.49395,2.01117 1.98584,0.26823 2.81241,0.60532 4.021,1.63983 2.29339,1.96306 3.01465,5.18942 1.76163,7.88018 -0.61804,1.32719 -2.06769,2.83106 -3.24691,3.36834 -0.40624,0.1851 -0.62889,0.50995 -0.62889,0.91756 0,0.95086 -1.12285,1.92988 -2.21341,1.92988 -0.69642,0 -1.07792,-0.19416 -1.59953,-0.81405 z M 5.247116,72.20578 c -1.82688,-0.55571 -3.47348,-1.9531 -4.38523999,-3.72154 -0.67272,-1.30479 -0.65303,-4.29638 0.0369,-5.60291 C 1.181266,62.34635 4.698976,58.58214 8.715896,54.51643 c 6.32359,-6.40038 7.53056,-7.50271 8.99583,-8.21592 2.44705,-1.19107 4.876129,-1.51935 7.360159,-0.9947 2.7319,0.577 4.22783,1.57969 8.00388,5.36482 l 3.25306,3.2609 17.33449,-17.29462 c 18.78804,-18.744819 18.3181,-18.337271 21.91613,-19.006393 1.20841,-0.224728 2.12793,-0.22871 3.5074,-0.01519 3.38769,0.524366 4.27862,1.148019 10.63663,7.445663 l 5.76109,5.706389 9.305655,-9.305666 9.30567,-9.305665 -1.35435,-1.43202 c -2.20218,-2.3284831 -2.48419,-4.8875591 -0.78313,-7.1064041 1.51183,-1.972009 1.9119,-2.073647 10.98278,-2.79014499 9.27888,-0.732926 9.7491,-0.691237 11.27685,0.99980299 1.55906,1.725689 1.58575,2.068534 0.86714,11.1365591 -0.71924,9.076034 -0.82099,9.476359 -2.79264,10.987912 -2.21688,1.699557 -4.77817,1.418813 -7.10138,-0.778385 l -1.42704,-1.349599 -10.77275,10.7271 c -9.94298,9.90083 -10.91542,10.79468 -12.62485,11.60456 -3.034915,1.43786 -6.650935,1.41254 -9.879385,-0.0692 -0.88164,-0.40463 -2.91277,-2.22863 -7.1262,-6.3995 l -5.89309,-5.83356 -17.12566,17.08743 c -9.41911,9.39809 -17.508,17.34725 -17.97532,17.66479 -2.47998,1.68518 -6.80294,2.15464 -9.75453,1.05932 -2.20079,-0.81671 -3.25809,-1.62072 -6.71556,-5.10674 l -3.03226,-3.0573 -6.095869,6.03693 c -5.25537,5.20455 -6.27564,6.09748 -7.3997698,6.47614 -1.3625802,0.45898 -2.9942202,0.53499 -4.1217602,0.192 z m 8.97563,-10.45217 c 3.43859,-3.4108 6.58437,-6.32783 6.990629,-6.48229 2.24033,-0.85177 3.76017,-0.0732 7.71566,3.95256 3.68317,3.7486 4.91407,4.49453 7.40833,4.48946 1.01793,-0.002 2.01467,-0.1951 2.77812,-0.53801 0.91388,-0.41048 5.21887,-4.55722 18.52084,-17.84003 9.59901,-9.58518 17.66248,-17.429306 18.07503,-17.583355 1.14707,-0.428321 2.74621,-0.331156 3.82978,0.232701 0.5399,0.280954 3.42242,2.968114 6.4056,5.971464 2.98318,3.00336 5.89159,5.70373 6.46314,6.00082 1.49406,0.77663 3.7245,0.9182 5.47264,0.34738 1.332579,-0.43514 2.195475,-1.23205 13.214665,-12.20426 8.5181,-8.481772 11.95364,-11.738726 12.38241,-11.738726 0.95283,0 1.90763,0.637574 3.7345,2.49373 1.75326,1.781383 2.12883,1.985977 2.58622,1.408874 0.34064,-0.429809 1.46407,-15.0470351 1.17841,-15.3326951 -0.19499,-0.194989 -14.25218,0.730118 -15.07393,0.992019 -0.91621,0.29201 -0.61719,1.005437 1.1962,2.85397 1.99786,2.0365811 2.44782,2.7087211 2.44782,3.6565061 0,0.443579 -2.8428,3.454877 -10.64948,11.280678 -5.85721,5.871564 -10.970975,10.845844 -11.363935,11.053954 -0.91998,0.48722 -3.20856,0.48679 -4.12732,-7.7e-4 -0.39295,-0.20854 -3.15524,-2.83637 -6.13842,-5.83962 -6.10739,-6.148504 -7.06155,-6.824795 -9.65729,-6.84496 -3.13221,-0.02433 -2.08336,-0.927413 -21.96855,18.91538 -17.85186,17.81378 -18.28742,18.22543 -19.28435,18.22543 -0.96431,0 -1.26789,-0.24422 -5.56348,-4.47576 -4.23422,-4.17108 -4.64777,-4.50607 -6.07507,-4.921 -3.03553,-0.88245 -5.046729,-0.0886 -8.319799,3.28398 -1.21504,1.25198 -4.34043,4.42676 -6.9453098,7.05507 -5.2475902,5.29479 -5.4049402,5.57337 -3.9627502,7.01556 0.53463,0.53464 1.03648,0.7734 1.62555,0.7734 0.75774,0 1.54475,-0.68701 7.10414,-6.20146 z"
       id="path1" /></g></svg>
