<?xml version="1.0" encoding="UTF-8" standalone="no"?>
<svg
   width="39"
   height="39"
   viewBox="0 0 39 39"
   fill="none"
   version="1.1"
   id="svg5"
   sodipodi:docname="Hamburger-Szczala.svg"
   inkscape:version="1.3 (0e150ed6c4, 2023-07-21)"
   xmlns:inkscape="http://www.inkscape.org/namespaces/inkscape"
   xmlns:sodipodi="http://sodipodi.sourceforge.net/DTD/sodipodi-0.dtd"
   xmlns="http://www.w3.org/2000/svg"
   xmlns:svg="http://www.w3.org/2000/svg">
  <defs
     id="defs5" />
  <sodipodi:namedview
     id="namedview5"
     pagecolor="#ffffff"
     bordercolor="#000000"
     borderopacity="0.25"
     inkscape:showpageshadow="2"
     inkscape:pageopacity="0.0"
     inkscape:pagecheckerboard="0"
     inkscape:deskcolor="#d1d1d1"
     inkscape:zoom="21.051282"
     inkscape:cx="19.5"
     inkscape:cy="19.5"
     inkscape:window-width="1920"
     inkscape:window-height="1017"
     inkscape:window-x="-8"
     inkscape:window-y="-8"
     inkscape:window-maximized="1"
     inkscape:current-layer="svg5" />
  <rect
     x="18.451"
     y="30.0491"
     width="10"
     height="3"
     rx="1"
     transform="rotate(-120 18.451 30.0491)"
     fill="#EAEAEA"
     id="rect1" />
  <rect
     x="17.951"
     y="30.0491"
     width="21"
     height="3"
     rx="1"
     transform="rotate(-90 17.951 30.0491)"
     fill="#EAEAEA"
     id="rect2" />
  <rect
     x="17.951"
     y="28.5491"
     width="10"
     height="3"
     rx="1"
     transform="rotate(-60 17.951 28.5491)"
     fill="#EAEAEA"
     id="rect3" />
  <rect
     x="1.5"
     y="1.5"
     width="36"
     height="36"
     rx="3.5"
     stroke="#EAEAEA"
     stroke-width="3"
     id="rect4" />
  <rect
     width="39"
     height="39"
     fill="#EAEAEA"
     fill-opacity="0.01"
     id="rect5" />
  <path
     style="fill:#000000;stroke-width:0.211718;-inkscape-stroke:none"
     d="m 18.733215,30.002898 c -0.248794,-0.06356 -0.486395,-0.239432 -0.611224,-0.452436 -0.06508,-0.11106 -0.118337,-0.22818 -0.118337,-0.260266 0,-0.03209 -0.920125,-1.651916 -2.044723,-3.599621 -1.326503,-2.297387 -2.062509,-3.618628 -2.095358,-3.761482 -0.06947,-0.302108 0.01189,-0.583263 0.236226,-0.816357 0.09618,-0.09993 0.429384,-0.326964 0.740462,-0.504521 0.516321,-0.294706 0.588744,-0.322675 0.831303,-0.321035 0.295378,0.002 0.601679,0.132767 0.748124,0.319399 0.04819,0.06142 0.408266,0.668426 0.800166,1.348911 l 0.712546,1.237247 0.02375,-6.703555 0.02375,-6.7035547 0.131895,-0.2243769 c 0.08553,-0.1455004 0.210773,-0.2707431 0.356273,-0.3562729 0.220043,-0.1293478 0.23906,-0.1318959 0.984426,-0.1318959 0.745365,0 0.764383,0.00255 0.984426,0.1318959 0.1455,0.08553 0.270743,0.2107725 0.356272,0.3562729 l 0.131896,0.2243769 0.02375,6.7856917 0.02375,6.785693 0.760049,-1.31834 c 0.418027,-0.725088 0.799478,-1.36906 0.84767,-1.43105 0.144577,-0.185974 0.452033,-0.31844 0.743682,-0.320412 0.234821,-0.0016 0.316285,0.02916 0.804821,0.303787 0.584795,0.328736 0.826353,0.51394 0.925118,0.709294 0.101386,0.200539 0.130398,0.464791 0.07402,0.674176 -0.04876,0.181074 -3.621817,6.429347 -4.216293,7.373109 -0.386672,0.613863 -0.499984,0.670639 -1.364154,0.683528 -0.365773,0.0055 -0.732203,-0.0072 -0.814288,-0.02821 z"
     id="path5" />
  <path
     style="fill:#000000;stroke-width:0.211718;-inkscape-stroke:none"
     d="M 4.1472943,38.90594 C 2.5557829,38.616053 1.2466043,37.631717 0.54479741,36.19732 0.24550637,35.585611 0.11354146,35.113649 0.04772158,34.419568 c -0.06530716,-0.688674 -0.06530716,-29.1504623 0,-29.8391361 C 0.11354146,3.8863514 0.24550637,3.4143894 0.54479741,2.8026797 1.1979083,1.4678109 2.3661004,0.52989376 3.8477467,0.15081027 L 4.2515225,0.04750305 H 19.5 34.748477 l 0.403776,0.10330722 c 1.481761,0.3791128 2.650215,1.31728363 3.302796,2.65186943 0.300004,0.6135338 0.436495,1.1156405 0.501651,1.8454185 0.03057,0.3423698 0.04182,5.7382148 0.0318,15.2556778 -0.01474,14.00697 -0.01968,14.743339 -0.101309,15.082217 -0.130812,0.543061 -0.257347,0.885976 -0.495671,1.343282 -0.643189,1.234179 -1.752037,2.105929 -3.193015,2.510271 l -0.402528,0.112951 -15.153472,0.0078 C 7.3264493,38.966718 4.425048,38.956531 4.1472943,38.90594 Z M 34.401742,35.977648 c 0.279252,-0.05925 0.643792,-0.229358 0.88428,-0.412636 0.240353,-0.183175 0.522358,-0.610015 0.627124,-0.949207 0.09303,-0.301189 0.09416,-0.483302 0.09416,-15.115805 0,-14.6325031 -0.0011,-14.8146155 -0.09416,-15.1158047 C 35.700434,3.6955141 35.123242,3.1754382 34.401742,3.0223517 34.042242,2.9460736 4.9574805,2.9461146 4.5982578,3.0223937 3.9844265,3.1527375 3.4539123,3.5708462 3.1726231,4.1459643 L 3.0164434,4.4652862 V 19.5 34.534714 l 0.1561797,0.319322 c 0.273938,0.560088 0.767869,0.962063 1.3639177,1.109995 0.3279577,0.0814 29.4831092,0.09469 29.8652012,0.01362 z"
     id="path6" />
</svg>
