<?xml version="1.0" encoding="UTF-8" standalone="no"?>
<svg
   width="39"
   height="39"
   viewBox="0 0 39 39"
   fill="none"
   version="1.1"
   id="svg5"
   sodipodi:docname="Hamburger.svg"
   inkscape:version="1.3 (0e150ed6c4, 2023-07-21)"
   xmlns:inkscape="http://www.inkscape.org/namespaces/inkscape"
   xmlns:sodipodi="http://sodipodi.sourceforge.net/DTD/sodipodi-0.dtd"
   xmlns="http://www.w3.org/2000/svg"
   xmlns:svg="http://www.w3.org/2000/svg">
  <defs
     id="defs5" />
  <sodipodi:namedview
     id="namedview5"
     pagecolor="#ffffff"
     bordercolor="#000000"
     borderopacity="0.25"
     inkscape:showpageshadow="2"
     inkscape:pageopacity="0.0"
     inkscape:pagecheckerboard="0"
     inkscape:deskcolor="#d1d1d1"
     inkscape:zoom="10.525641"
     inkscape:cx="17.528624"
     inkscape:cy="18.858709"
     inkscape:window-width="1920"
     inkscape:window-height="1017"
     inkscape:window-x="-8"
     inkscape:window-y="-8"
     inkscape:window-maximized="1"
     inkscape:current-layer="svg5" />
  <rect
     x="9"
     y="10"
     width="21"
     height="3"
     fill="#EAEAEA"
     id="rect1" />
  <rect
     x="9"
     y="18"
     width="21"
     height="3"
     fill="#EAEAEA"
     id="rect2" />
  <rect
     x="9"
     y="26"
     width="21"
     height="3"
     fill="#EAEAEA"
     id="rect3" />
  <rect
     x="1.5"
     y="1.5"
     width="36"
     height="36"
     rx="3.5"
     stroke="#EAEAEA"
     stroke-width="3"
     id="rect4" />
  <rect
     width="39"
     height="39"
     fill="#EAEAEA"
     fill-opacity="0.01"
     id="rect5"
     style="fill:#000000" />
  <path
     style="fill:#000000;stroke-width:0.423436;-inkscape-stroke:none"
     d="m 9.0255786,19.476248 v -1.472594 h 10.4506694 10.45067 v 1.472594 1.472595 H 19.476248 9.0255786 Z"
     id="path5" />
  <path
     style="fill:#000000;stroke-width:0.423436;-inkscape-stroke:none"
     d="m 9.0255786,11.495737 v -1.472594 h 10.4506694 10.45067 v 1.472594 1.472594 H 19.476248 9.0255786 Z"
     id="path6" />
  <path
     style="fill:#000000;stroke-width:0.423436;-inkscape-stroke:none"
     d="m 9.0255786,27.504263 v -1.425091 h 10.4506694 10.45067 v 1.425091 1.425091 H 19.476248 9.0255786 Z"
     id="path7" />
  <path
     style="fill:#000000;stroke-width:0.423436;-inkscape-stroke:none"
     d="M 4.3227771,38.902198 C 3.0385423,38.730412 1.8473876,38.020237 1.0315201,36.93993 0.48784584,36.220038 0.20716713,35.493523 0.08579463,34.491989 0.02807511,34.015703 0.00367788,28.153687 0.0211256,18.953715 0.04775329,4.9132599 0.05780142,4.1543422 0.2236455,3.6577345 0.76369154,2.0406067 1.8448197,0.89179012 3.3727162,0.31150299 L 3.9427527,0.09500609 19.217832,0.06984055 c 16.818962,-0.02770907 15.873474,-0.05857423 17.095021,0.55806124 0.762852,0.38508601 1.674159,1.29639331 2.059245,2.05924441 0.616635,1.221548 0.585771,0.2760593 0.558061,17.0950218 l -0.02517,15.275079 -0.213615,0.566319 c -0.578146,1.53274 -1.721611,2.609189 -3.349113,3.15283 -0.497543,0.166196 -1.2382,0.175202 -15.485993,0.188299 -8.229903,0.0076 -15.2199758,-0.02056 -15.5334959,-0.0625 z M 34.595666,35.944551 c 0.202408,-0.06064 0.535339,-0.253483 0.739846,-0.428534 0.730592,-0.625359 0.679365,0.650605 0.650299,-16.197857 L 35.959805,4.2441159 35.674787,3.8394615 C 35.518027,3.6169015 35.201345,3.3353311 34.97105,3.2137494 L 34.552331,2.9926918 19.53256,2.9947784 C 5.127241,2.9967796 4.4969677,3.0040509 4.1260441,3.1725206 3.6462764,3.3904263 3.1885686,3.9326794 3.0463653,4.4516318 2.9674576,4.7395956 2.945767,8.837952 2.9655907,19.713764 l 0.027101,14.868453 0.2604262,0.44301 c 0.2600545,0.442379 0.6987662,0.787148 1.1897511,0.934986 0.431945,0.13006 29.717189,0.11485 30.152797,-0.01566 z"
     id="path8" />
</svg>
