<?xml version="1.0" encoding="UTF-8" standalone="no"?>
<!-- Created with Inkscape (http://www.inkscape.org/) -->

<svg
   width="137mm"
   height="137mm"
   viewBox="0 0 137 137"
   version="1.1"
   id="svg1"
   xml:space="preserve"
   inkscape:version="1.3 (0e150ed6c4, 2023-07-21)"
   sodipodi:docname="hands.svg"
   xmlns:inkscape="http://www.inkscape.org/namespaces/inkscape"
   xmlns:sodipodi="http://sodipodi.sourceforge.net/DTD/sodipodi-0.dtd"
   xmlns="http://www.w3.org/2000/svg"
   xmlns:svg="http://www.w3.org/2000/svg"><sodipodi:namedview
     id="namedview1"
     pagecolor="#ffffff"
     bordercolor="#000000"
     borderopacity="0.25"
     inkscape:showpageshadow="2"
     inkscape:pageopacity="0.0"
     inkscape:pagecheckerboard="0"
     inkscape:deskcolor="#d1d1d1"
     inkscape:document-units="mm"
     inkscape:zoom="0.49010913"
     inkscape:cx="396.85039"
     inkscape:cy="562.11971"
     inkscape:window-width="1403"
     inkscape:window-height="763"
     inkscape:window-x="537"
     inkscape:window-y="223"
     inkscape:window-maximized="0"
     inkscape:current-layer="layer1" /><defs
     id="defs1" /><g
     inkscape:label="Warstwa 1"
     inkscape:groupmode="layer"
     id="layer1"><path
       style="fill:#000000"
       d="m 28.988102,135.64912 c -1.04238,-0.45562 -1.88386,-1.52777 -2.2415,-2.85594 -0.18086,-0.67167 -0.25206,-4.24383 -0.19933,-10.00073 0.0785,-8.5649 0.10584,-8.9877 0.62754,-9.68598 1.17753,-1.5761 1.77407,-1.81094 4.9623,-1.95348 l 2.95885,-0.1323 0.0772,-2.04439 0.0772,-2.04439 -11.18967,-5.59566 C 17.906381,98.258633 12.367997,95.394713 11.753177,94.971973 10.12191,93.850333 8.092488,91.702113 7.062733,90.006953 5.090223,86.759853 5.009054,86.277963 2.930906,65.476923 l -1.906749,-19.08544 0.499479,-1.0194 c 0.776188,-1.58414 1.944631,-2.21701 4.093185,-2.21701 5.294551,0 10.785671,2.50061 14.712071,6.69976 2.1165,2.26352 3.55462,4.72104 4.59512,7.85233 0.45938,1.38244 0.85453,2.5355 0.87813,2.56234 0.0236,0.0268 0.81468,-0.32411 1.75797,-0.77989 1.44302,-0.69725 2.09283,-0.84459 4.09634,-0.92879 2.1231,-0.0892 3.11266,0.0602 9.12812,1.3781 11.4959,2.51865 13.16994,3.22709 17.23695,7.29448 2.27056,2.27077 2.69918,2.85751 3.87943,5.31068 2.35634,4.89769 2.26163,4.00081 2.36596,22.40318 l 0.0919,16.205727 h 4.47159 4.4716 l 0.0956,-16.205727 c 0.10865,-18.42023 0.026,-17.63304 2.35387,-22.41693 1.19747,-2.46086 1.63413,-3.05545 3.89455,-5.30307 1.96989,-1.95874 3.02473,-2.77584 4.66252,-3.61166 2.84157,-1.45013 3.61076,-1.67655 12.03855,-3.54369 6.564508,-1.45433 7.508898,-1.60214 9.657288,-1.51149 2.00297,0.0845 2.65369,0.23212 4.09633,0.92919 0.94329,0.45578 1.73438,0.80674 1.75798,0.77989 0.0236,-0.0268 0.41875,-1.1799 0.87812,-2.56234 1.0405,-3.13129 2.47862,-5.58881 4.59512,-7.85233 3.9264,-4.19915 9.41752,-6.69976 14.71207,-6.69976 2.14856,0 3.317,0.63287 4.09319,2.21701 l 0.49948,1.0194 -1.90675,19.08544 c -2.07815,20.80104 -2.15932,21.28293 -4.13183,24.53003 -1.02975,1.69516 -3.05918,3.84338 -4.69044,4.96502 -0.61482,0.42274 -6.15321,3.28666 -12.30752,6.364277 l -11.18967,5.59566 0.0772,2.04439 0.0772,2.04439 2.95886,0.1323 c 3.18844,0.14255 3.7852,0.37752 4.96229,1.95386 0.52745,0.70635 0.54552,1.04753 0.54552,10.3024 0,9.09601 -0.0263,9.61652 -0.52917,10.47024 -0.29104,0.49412 -0.8653,1.14896 -1.27614,1.45521 l -0.74697,0.55683 -39.337398,0.0572 c -32.51482,0.0473 -39.47895,-0.005 -40.15359,-0.29958 z m 35.87348,-12.06072 v -4.49791 h -15.21354 -15.21354 v 4.49791 4.49792 h 15.21354 15.21354 z m 38.364578,0 v -4.49791 H 88.012622 72.799082 v 4.49791 4.49792 h 15.21354 15.213538 z M 56.394922,96.107853 c 0,-9.06791 -0.10672,-15.61134 -0.26861,-16.47031 -0.44131,-2.34157 -1.91552,-5.10685 -3.64402,-6.83534 -2.44469,-2.44469 -3.85748,-3.00944 -12.01175,-4.8016 -3.90938,-0.85921 -7.61093,-1.56175 -8.22565,-1.56121 -3.13669,0.003 -4.57614,3.28719 -2.6933,6.14535 0.82298,1.2493 1.65815,1.66032 6.86729,3.37966 4.57531,1.51014 5.46979,1.98353 6.11858,3.23814 0.61654,1.19226 0.3823,3.43563 -0.45198,4.32866 -0.86848,0.92965 -1.89503,1.42804 -2.94139,1.42804 -0.48012,0 -3.95858,-1.02852 -7.72992,-2.2856 -5.48933,-1.82972 -7.03645,-2.45006 -7.75678,-3.1102 -0.84963,-0.77863 -1.05369,-1.36273 -3.66053,-10.47833 -1.518406,-5.30956 -3.079859,-10.30958 -3.469894,-11.11116 -0.892658,-1.83454 -3.50271,-4.477 -5.343404,-5.40975 -0.77436,-0.3924 -1.458402,-0.66298 -1.520092,-0.60129 -0.159597,0.1596 2.746699,29.41883 3.078962,30.99757 0.395709,1.88019 1.266031,3.4699 2.545194,4.64899 0.786784,0.72523 4.848134,2.89679 13.808884,7.38348 11.09551,5.555557 12.7642,6.469207 13.24947,7.254387 0.49687,0.80396 0.55519,1.30031 0.55519,4.72559 0,2.105 0.0794,3.90665 0.17639,4.00367 0.097,0.097 3.1331,0.17639 6.74687,0.17639 h 6.57049 z m 38.36458,10.811797 c 0.11128,-3.44969 0.21212,-4.21882 0.6349,-4.84263 0.38084,-0.56191 3.57502,-2.279947 13.183328,-7.090867 8.95031,-4.48145 13.0086,-6.65152 13.79531,-7.37668 1.27916,-1.17909 2.14948,-2.7688 2.54519,-4.64899 0.33226,-1.57874 3.23856,-30.83797 3.07896,-30.99757 -0.0617,-0.0617 -0.74573,0.20889 -1.52009,0.60129 -1.84069,0.93275 -4.45075,3.57521 -5.3434,5.40975 -0.39004,0.80158 -1.95149,5.8016 -3.4699,11.11116 -2.60684,9.1156 -2.81089,9.6997 -3.66053,10.47833 -0.72033,0.66014 -2.26745,1.28048 -7.75678,3.1102 -3.77134,1.25708 -7.249798,2.2856 -7.729918,2.2856 -1.11857,0 -2.18909,-0.55841 -3.0641,-1.5983 -1.25898,-1.49621 -0.83387,-4.3256 0.82439,-5.48692 0.40238,-0.28179 2.63659,-1.14112 4.964928,-1.90962 5.20913,-1.71934 6.0443,-2.13036 6.86728,-3.37966 1.88021,-2.85417 0.44332,-6.14256 -2.68526,-6.14535 -2.02146,-0.002 -15.201178,3.05232 -16.916248,3.91998 -2.95493,1.49491 -5.29508,4.14598 -6.52358,7.39031 -0.56464,1.49116 -0.57757,1.83397 -0.65868,17.46673 l -0.0827,15.945707 6.69232,-0.0707 6.69232,-0.0707 z M 57.118412,51.878513 c -3.36144,-0.84419 -5.86738,-3.56639 -6.53792,-7.10214 -0.28513,-1.50351 -0.0108,-3.34374 1.0503,-7.04441 0.29194,-1.01819 0.53079,-1.98289 0.53079,-2.14378 0,-0.1609 -0.7076,-0.84847 -1.57244,-1.52793 -4.69096,-3.68542 -5.8467,-5.3379 -6.03739,-8.63226 -0.16025,-2.76837 0.56007,-4.63479 2.55963,-6.63224 1.91393,-1.91191 3.12591,-2.3292 7.68228,-2.64505 1.95696,-0.13566 3.64706,-0.33618 3.75577,-0.44562 0.10871,-0.10943 0.63408,-1.33006 1.16748,-2.71251 1.43172,-3.71069 2.07503,-4.84195 3.43339,-6.03762 3.26194,-2.87128 8.49746,-2.73309 11.72293,0.30942 1.04049,0.98148 1.74916,2.30354 3.07053,5.7282 0.5334,1.38245 1.05257,2.59385 1.15371,2.69199 0.10115,0.0982 1.79124,0.29938 3.75578,0.44719 4.57707,0.34437 5.79651,0.76648 7.69603,2.664 1.99956,1.99745 2.71988,3.86387 2.55963,6.63224 -0.18938,3.27167 -1.30587,4.88416 -5.9552,8.60076 -0.90896,0.72662 -1.6531,1.41639 -1.65364,1.53284 -5.5e-4,0.11645 0.36943,1.59972 0.82216,3.29616 0.91814,3.44036 1.03123,5.6241 0.38507,7.43533 -1.30657,3.66236 -5.43825,6.26155 -9.11113,5.7317 -1.60687,-0.23181 -3.35226,-1.04342 -6.18374,-2.87544 -1.27197,-0.82299 -2.43392,-1.49635 -2.5821,-1.49635 -0.14818,0 -1.31013,0.67336 -2.5821,1.49635 -1.27198,0.823 -2.91823,1.77528 -3.65833,2.11619 -1.53115,0.70527 -4.00182,0.98207 -5.47149,0.61298 z m 6.30106,-10.31094 c 5.71871,-3.63212 5.22653,-3.6613 11.95768,0.70895 1.64077,1.06529 3.08658,1.93689 3.21289,1.93689 0.82826,0 0.76836,-0.81215 -0.37823,-5.12835 -0.64867,-2.44184 -1.17895,-4.81698 -1.17841,-5.27808 0.002,-1.37408 0.85806,-2.39519 4.62262,-5.51147 3.3967,-2.81176 4.1517,-3.75359 3.24775,-4.05143 -0.1819,-0.0599 -2.45325,-0.23075 -5.04745,-0.37958 -4.05964,-0.2329 -4.84377,-0.34913 -5.62881,-0.83431 -1.09417,-0.67623 -1.18079,-0.83882 -3.26839,-6.13501 -1.28978,-3.27214 -1.74702,-4.16719 -2.12879,-4.16719 -0.38177,0 -0.83901,0.89505 -2.12879,4.16719 -2.08759,5.29615 -2.17423,5.45878 -3.26831,6.13496 -0.78399,0.48454 -1.5741,0.60221 -5.62881,0.83835 -2.59424,0.15108 -4.86562,0.32191 -5.04752,0.37962 -0.90815,0.28815 -0.14566,1.23837 3.24774,4.0474 3.7608,3.11316 4.621,4.13771 4.62262,5.50584 5.4e-4,0.458 -0.52657,2.83696 -1.17135,5.28658 -1.12627,4.2788 -1.19377,5.12548 -0.4086,5.12548 0.11349,0 2.08097,-1.19063 4.37216,-2.64584 z M 11.4639,33.362603 c -1.969771,-1.21249 -2.368074,-4.17159 -0.801648,-5.95565 1.216272,-1.38526 2.272449,-1.50632 12.26288,-1.40556 8.16746,0.0824 8.78911,0.12223 9.62736,0.61723 1.32073,0.7799 1.93776,2.07251 1.80881,3.78924 -0.0901,1.19911 -0.25011,1.55237 -1.07876,2.38125 l -0.973,0.97326 -9.98387,0.0703 c -9.654822,0.068 -10.012811,0.0525 -10.861772,-0.47007 z m 93.67807,0.004 c -2.49032,-1.51837 -2.54576,-5.15813 -0.1017,-6.67799 0.94249,-0.5861 1.15895,-0.60145 9.69527,-0.68754 9.99042,-0.10076 11.0466,0.0203 12.26287,1.40556 1.5671,1.78482 1.16765,4.74985 -0.80165,5.95049 -0.83887,0.51145 -1.3071,0.53524 -10.53518,0.53524 -9.17074,0 -9.70074,-0.0265 -10.51961,-0.52576 z M 33.530942,14.181643 c -0.68582,-0.36465 -3.61228,-2.03631 -6.50323,-3.71478 -4.8424,-2.81148 -5.29941,-3.14086 -5.80391,-4.18303 -0.65986,-1.36307 -0.68053,-1.94424 -0.11906,-3.34749 0.30132,-0.75307 0.75996,-1.26532 1.5446,-1.72515 1.3215,-0.77444997 2.27683,-0.81563997 3.71537,-0.16021 1.94254,0.88507 11.36687,6.43384 12.10891,7.12938 1.95046,1.82824 1.29169,5.03087 -1.30975,6.36738 -0.93569,0.48073 -2.29857,0.34339 -3.63293,-0.3661 z m 66.917098,0.37037 c -1.103078,-0.64068 -2.002388,-1.70209 -2.263378,-2.67131 -0.35601,-1.32214 0.0448,-2.80228 1.00239,-3.70182 1.150118,-1.08038 12.279928,-7.35375997 13.356488,-7.52845997 1.54869,-0.25132 3.31264,0.73959997 3.97265,2.23166997 0.34699,0.78443 0.47597,1.49409 0.37954,2.08832 -0.31506,1.94149 -0.88524,2.41741 -7.36679,6.14899 -6.42065,3.69652 -7.75689,4.20162 -9.0809,3.43261 z"
       id="path1" /></g></svg>
