<?xml version="1.0" encoding="UTF-8" standalone="no"?>
<!-- Created with Inkscape (http://www.inkscape.org/) -->

<svg
   width="136mm"
   height="117mm"
   viewBox="0 0 136 117"
   version="1.1"
   id="svg1"
   xml:space="preserve"
   inkscape:version="1.3 (0e150ed6c4, 2023-07-21)"
   sodipodi:docname="handshake.svg"
   xmlns:inkscape="http://www.inkscape.org/namespaces/inkscape"
   xmlns:sodipodi="http://sodipodi.sourceforge.net/DTD/sodipodi-0.dtd"
   xmlns="http://www.w3.org/2000/svg"
   xmlns:svg="http://www.w3.org/2000/svg"><sodipodi:namedview
     id="namedview1"
     pagecolor="#ffffff"
     bordercolor="#000000"
     borderopacity="0.25"
     inkscape:showpageshadow="2"
     inkscape:pageopacity="0.0"
     inkscape:pagecheckerboard="0"
     inkscape:deskcolor="#d1d1d1"
     inkscape:document-units="mm"
     inkscape:zoom="0.69311897"
     inkscape:cx="150.04639"
     inkscape:cy="305.14242"
     inkscape:window-width="1920"
     inkscape:window-height="1017"
     inkscape:window-x="-8"
     inkscape:window-y="-8"
     inkscape:window-maximized="1"
     inkscape:current-layer="layer1" /><defs
     id="defs1" /><g
     inkscape:label="Warstwa 1"
     inkscape:groupmode="layer"
     id="layer1"><path
       style="fill:#000000"
       d="m 54.193891,116.86539 c -1.415498,-0.9539 -2.573266,-2.66431 -2.913802,-4.30467 -0.452714,-2.18071 -0.0097,-3.86969 1.715116,-6.53866 1.696648,-2.6254 1.891028,-3.26894 1.366539,-4.52422 -0.49583,-1.18669 -1.752472,-1.888316 -3.015074,-1.683416 -1.184598,0.192226 -1.469629,0.451076 -3.009507,2.733076 -1.702197,2.52255 -1.745561,3.49782 -0.233222,5.24519 1.540932,1.78041 1.311345,3.56451 -0.510183,3.96458 -2.256994,0.49572 -4.769861,-2.77771 -4.769861,-6.21354 0,-1.95545 0.429288,-3.08859 2.104916,-5.556056 0.602792,-0.88765 1.159662,-2.0063 1.237488,-2.48588 0.181755,-1.12003 -0.472851,-2.4061 -1.493282,-2.93379 -1.754711,-0.90739 -2.925216,-0.30265 -4.727411,2.44243 -1.757045,2.6763 -1.805422,3.496256 -0.308333,5.226006 1.263254,1.45958 1.383756,2.47676 0.408902,3.45161 -0.779728,0.77973 -1.578241,0.82177 -2.693359,0.1418 -2.366981,-1.44331 -3.645277,-5.22581 -2.698764,-7.985696 0.169645,-0.49465 0.943551,-1.90492 1.719791,-3.13392 1.521147,-2.40839 1.775397,-3.61025 0.998411,-4.71956 -0.922836,-1.31753 -2.910497,-1.69126 -4.115161,-0.77375 -0.234881,0.17889 -1.04931,1.27647 -1.809843,2.43905 -1.216255,1.85924 -1.366461,2.23737 -1.247226,3.13985 0.0946,0.71601 0.434944,1.33264 1.126336,2.04069 1.249941,1.28006 1.341361,2.40399 0.270465,3.325136 -0.94735,0.81488 -1.710495,0.78183 -2.966208,-0.12842 -1.396409,-1.012246 -2.503548,-3.113396 -2.682937,-5.091736 l -0.142235,-1.56859 h -1.550752 -1.550752 l -4.11e-4,3.10885 c -4.56e-4,3.44772 -0.314282,4.474566 -1.67214,5.471296 -0.714547,0.52451 -1.127779,0.55139 -9.651561,0.62764 -4.8977783,0.0438 -9.1722253,0.0126 -9.4987713,-0.0694 -1.60119499,-0.40187 -2.16354599,-2.31565 -1.01726799,-3.461916 l 0.64943199,-0.64944 h 8.478693 8.4786933 v -20.62704 -20.6271 l -8.6226093,-0.0765 -8.622609,-0.0765 -0.50551599,-0.62462 c -0.703879,-0.86973 -0.644369,-2.0387 0.143916,-2.82699 l 0.64943199,-0.64943 h 9.2333153 c 9.158888,0 9.240563,0.005 10.132339,0.60058 1.095225,0.73166 1.824102,2.10353 1.824654,3.43431 l 4.11e-4,0.99219 6.81302,-0.0115 6.813021,-0.0115 4.497916,-5.97909 c 5.710052,-7.59039 7.036645,-9.03887 9.1883,-10.03251 l 1.659616,-0.76642 10.123598,-0.0806 c 8.48393,-0.0675 10.383739,-0.014 11.729759,0.33088 1.245449,0.31907 4.701228,2.26833 15.387695,8.67956 l 13.781542,8.26808 5.24652,0.0816 5.24651,0.0816 4.1e-4,-1.27219 c 5.2e-4,-1.59295 0.66063,-2.9367 1.82466,-3.71432 0.89177,-0.59574 0.97345,-0.60058 10.13233,-0.60058 h 9.23332 l 0.64943,0.64943 c 0.78829,0.78828 0.8478,1.95726 0.14392,2.82698 l -0.50552,0.62463 -8.62261,0.0765 -8.62261,0.0765 v 20.62709 20.62709 h 8.4787 8.47869 l 0.64943,0.64944 c 1.14628,1.146266 0.58393,3.060046 -1.01727,3.461916 -0.32654,0.082 -4.60099,0.11317 -9.49877,0.0694 -8.52378,-0.0763 -8.93701,-0.10313 -9.65156,-0.62764 -1.74037,-1.27751 -1.67168,-0.4176 -1.67214,-20.935586 l -4.1e-4,-18.57315 -6.03834,-0.08 -6.03835,-0.08 -14.117898,-8.46675 -14.117896,-8.46667 H 62.674261 c -9.771512,0 -10.24962,0.0231 -11.263028,0.54305 -0.846854,0.43454 -2.233265,2.09994 -6.938192,8.33438 -3.233922,4.28523 -6.002125,8.13651 -6.151562,8.55841 -0.438232,1.23723 -0.323134,3.25422 0.249784,4.37724 1.76139,3.45261 6.315699,4.1049 8.902748,1.2751 0.567062,-0.62027 2.861624,-3.47649 5.099027,-6.34716 3.528874,-4.52768 4.245549,-5.30788 5.407654,-5.88698 1.474174,-0.73462 3.391506,-0.85996 4.84482,-0.31672 1.707454,0.63823 40.935118,25.18053 42.167158,26.38137 1.90873,1.86036 2.63542,4.93368 1.81447,7.67376 -0.86433,2.88486 -3.85391,5.08011 -6.979002,5.12466 -1.29529,0.0185 -1.74802,0.12305 -1.82438,0.42144 -0.0559,0.21828 -0.24064,0.93265 -0.4106,1.5875 -0.50598,1.94941 -1.84981,3.533656 -3.82024,4.503696 -1.56321,0.76956 -1.90173,0.83805 -3.69501,0.74749 l -1.97415,-0.0997 -0.16746,1.04722 c -0.65835,4.1171 -5.366838,7.13032 -9.354741,5.9866 -0.632677,-0.18145 -0.895956,-0.16329 -0.959244,0.0662 -0.877447,3.18105 -1.8988,4.58929 -4.141153,5.70981 -1.350304,0.67475 -1.965292,0.82336 -3.392917,0.81988 -1.494701,-0.004 -2.11884,-0.17397 -4.371076,-1.1928 -1.445069,-0.6537 -2.844054,-1.38461 -3.108854,-1.62425 -0.590321,-0.53423 -0.626107,-1.87658 -0.08458,-3.17263 0.218282,-0.52242 0.394228,-1.3818 0.390992,-1.90973 -0.01242,-2.02688 -2.130617,-3.26205 -4.074897,-2.37618 -0.725102,0.33038 -3.190824,3.90303 -3.462387,5.01674 -0.200509,0.82232 0.458026,2.55484 1.058715,2.78534 0.462596,0.17752 1.192786,1.4343 1.192786,2.05299 0,0.59226 -1.09939,1.70646 -1.858707,1.88376 -0.455789,0.10643 -0.956695,-0.0385 -1.576343,-0.45608 z m 18.281978,-6.24218 c 0.977805,-1.09436 1.204109,-2.37957 0.631481,-3.5863 -0.313116,-0.65984 -1.152295,-1.42338 -2.819071,-2.56498 -2.60157,-1.78185 -3.097441,-2.50225 -2.580832,-3.74946 0.675336,-1.630396 2.195947,-1.687556 4.363567,-0.16402 3.311615,2.32763 7.114806,4.52332 8.052816,4.64913 2.621696,0.35165 4.595375,-2.69473 3.236371,-4.99534 -0.284686,-0.481926 -2.003941,-1.785976 -4.472004,-3.391986 -3.393424,-2.20817 -4.03653,-2.73207 -4.185333,-3.40956 -0.206269,-0.93914 0.151254,-1.72218 1.057416,-2.31592 0.914977,-0.59952 1.507401,-0.37934 4.776224,1.77507 1.570839,1.0353 4.170138,2.64359 5.77622,3.57397 2.459634,1.42482 3.116234,1.69159 4.163504,1.69159 2.68568,0 4.17626,-2.89359 2.68085,-5.20421 -0.20432,-0.31571 -2.46402,-1.91473 -5.02156,-3.55339 -2.557541,-1.63865 -4.990911,-3.26617 -5.407492,-3.6167 -0.751182,-0.63208 -0.970415,-1.57945 -0.593066,-2.56281 0.237185,-0.61809 1.616343,-1.26079 2.26424,-1.05516 0.302535,0.096 2.529006,1.44727 4.947718,3.00277 6.01065,3.86552 8.76801,5.50586 9.61068,5.71736 1.00717,0.25278 2.459292,-0.29876 3.244972,-1.23249 0.51911,-0.61693 0.67012,-1.0908 0.67012,-2.10289 0,-1.11396 -0.12673,-1.43845 -0.85989,-2.20184 -0.47295,-0.49243 -6.039122,-4.10274 -12.369272,-8.02292 -6.330161,-3.92018 -15.271098,-9.46866 -19.868754,-12.32995 -4.597656,-2.8613 -8.606277,-5.20236 -8.908047,-5.20236 -0.301771,0 -0.736293,0.072 -0.965606,0.16 -0.229312,0.088 -2.455829,2.77161 -4.947815,5.96359 -2.491987,3.19199 -4.903714,6.08295 -5.359395,6.42437 -4.084381,3.06024 -9.588557,2.72132 -13.012065,-0.80121 -0.631058,-0.64931 -1.481668,-1.86132 -1.890245,-2.69334 -0.65985,-1.34373 -0.742867,-1.80103 -0.742867,-4.09216 v -2.57938 l -5.622396,-3.1e-4 -5.622395,-3.1e-4 v 13.49375 13.49375 h 2.608654 2.608654 l 1.029367,-1.37929 c 2.040146,-2.73368 4.936395,-3.86235 7.783802,-3.03334 2.11598,0.61605 3.522945,1.76651 4.464368,3.65046 l 0.796894,1.59473 1.532775,0.0666 c 2.829196,0.12287 5.32797,1.80957 6.345012,4.28295 0.470885,1.14516 0.501656,1.16596 1.726276,1.16694 2.003078,0.002 3.976869,0.89114 5.339048,2.40621 0.651375,0.72449 1.320489,1.72985 1.486919,2.234136 0.288699,0.87477 0.360266,0.91689 1.557865,0.91689 2.828625,0 5.545847,1.74576 6.626259,4.25725 0.471017,1.09491 0.571545,1.7603 0.505399,3.34525 l -0.08257,1.97849 0.920533,0.50524 c 0.674977,0.37046 1.302927,0.47972 2.354042,0.40957 1.207542,-0.0806 1.549387,-0.22536 2.168629,-0.91841 z M 35.259741,32.240994 c -0.710875,-0.78551 -0.648206,-2.30881 0.120596,-2.93135 0.555607,-0.4499 1.138101,-0.49507 6.383713,-0.49507 h 5.772318 l 0.54837,0.69714 c 0.695741,0.88449 0.695741,1.68998 0,2.57447 l -0.54837,0.69714 h -5.892914 c -5.604561,0 -5.91693,-0.0265 -6.383713,-0.54233 z m 53.371567,-0.07 c -0.76418,-0.81344 -0.74778,-2.04376 0.0371,-2.7811 0.58955,-0.55385 0.82442,-0.57528 6.30388,-0.57528 5.607172,0 5.700042,0.009 6.266802,0.61236 0.72599,0.77278 0.74206,2.01926 0.0358,2.77733 -0.52308,0.56146 -0.71464,0.57905 -6.303872,0.57905 -5.68337,0 -5.7725,-0.009 -6.3397,-0.61236 z M 47.52478,16.974464 c -3.620323,-3.64156 -4.029527,-4.20358 -3.949223,-5.423956 0.05055,-0.768281 1.016748,-1.521354 1.951898,-1.521354 0.760592,0 1.34192,0.479571 4.894792,4.038 3.443371,3.44876 4.031694,4.15629 4.031694,4.84867 0,1.09036 -0.948947,1.96125 -2.137027,1.96125 -0.823414,0 -1.290303,-0.38023 -4.792134,-3.90261 z m 34.19155,3.32355 c -0.300294,-0.32233 -0.539474,-0.9396 -0.539474,-1.39226 0,-0.69626 0.580748,-1.39305 4.037999,-4.84491 3.448753,-3.443367 4.156293,-4.03169 4.848673,-4.03169 1.08748,0 1.96124,0.949173 1.96124,2.13052 0,0.81366 -0.39655,1.303 -3.89929,4.81159 -3.627866,3.63392 -3.967876,3.90581 -4.884486,3.90581 -0.672762,0 -1.156268,-0.18364 -1.524662,-0.57906 z m -14.557175,-6.11079 c -1.23291,-0.62382 -1.341921,-1.22871 -1.266163,-7.0257598 l 0.07032,-5.381231 0.770771,-0.662479 c 0.598281,-0.51422202 0.953547,-0.62722502 1.5875,-0.50495002 1.652981,0.318821 1.742771,0.66804402 1.742771,6.77818902 0,3.0279138 -0.07396,5.6980308 -0.164354,5.9336008 -0.154779,0.40335 -1.410809,1.2071 -1.873028,1.19858 -0.116367,-0.002 -0.506886,-0.15332 -0.86782,-0.33595 z"
       id="path1" /></g></svg>
