<?xml version="1.0" encoding="UTF-8" standalone="no"?>
<!-- Created with Inkscape (http://www.inkscape.org/) -->

<svg
   width="177.10001mm"
   height="177.5mm"
   viewBox="0 0 177.10001 177.50001"
   version="1.1"
   id="svg1"
   xml:space="preserve"
   inkscape:version="1.3 (0e150ed6c4, 2023-07-21)"
   sodipodi:docname="instagram.svg"
   xmlns:inkscape="http://www.inkscape.org/namespaces/inkscape"
   xmlns:sodipodi="http://sodipodi.sourceforge.net/DTD/sodipodi-0.dtd"
   xmlns="http://www.w3.org/2000/svg"
   xmlns:svg="http://www.w3.org/2000/svg"><sodipodi:namedview
     id="namedview1"
     pagecolor="#ffffff"
     bordercolor="#000000"
     borderopacity="0.25"
     inkscape:showpageshadow="2"
     inkscape:pageopacity="0.0"
     inkscape:pagecheckerboard="0"
     inkscape:deskcolor="#d1d1d1"
     inkscape:document-units="mm"
     inkscape:zoom="0.73139029"
     inkscape:cx="381.46528"
     inkscape:cy="296.01159"
     inkscape:window-width="1920"
     inkscape:window-height="1017"
     inkscape:window-x="-8"
     inkscape:window-y="-8"
     inkscape:window-maximized="1"
     inkscape:current-layer="layer1" /><defs
     id="defs1" /><g
     inkscape:label="Warstwa 1"
     inkscape:groupmode="layer"
     id="layer1"><path
       style="fill:#000000;stroke-width:1.22576"
       d="M 43.026236,176.81142 C 27.147395,174.92874 12.896778,165.0609 5.6319168,150.91768 3.4632072,146.69567 2.1095165,142.90709 1.0376032,138.0596 L 0.24301762,134.46627 V 88.629715 42.79317 L 1.0376032,39.199848 C 5.3974783,19.483256 19.483256,5.3974766 39.199847,1.0375977 l 3.593335,-0.79458184 h 45.836533 45.836555 l 3.59333,0.79458184 c 19.71659,4.3598789 33.80237,18.4456583 38.16224,38.1622503 l 0.79459,3.593322 v 45.836545 45.836555 l -0.79459,3.59333 c -4.34328,19.64151 -18.30561,33.66251 -37.98521,38.1448 l -3.42442,0.77995 -44.625782,0.0637 c -24.544167,0.035 -45.76626,-0.0715 -47.160192,-0.23672 z M 132.79389,166.4415 c 17.6355,-1.96647 31.68114,-16.01211 33.64761,-33.64761 0.50826,-4.55817 0.50826,-83.770178 0,-88.328332 -1.96647,-17.635499 -16.01211,-31.681146 -33.64761,-33.647621 -4.55816,-0.508265 -83.770166,-0.508265 -88.328332,0 -17.635499,1.966475 -31.681145,16.012122 -33.647617,33.647621 -0.508261,4.558154 -0.508261,83.770162 0,88.328332 1.463531,13.12504 9.915662,24.86106 21.888562,30.39288 3.274074,1.51271 7.961999,2.8563 11.297447,3.23793 3.932539,0.44994 84.76836,0.46523 88.78994,0.0168 z M 81.019129,136.57243 C 59.446322,132.75808 43.567285,116.42225 40.517979,94.906186 39.997473,91.233459 40.298544,82.452224 41.065268,78.943504 44.840419,61.66758 56.90964,48.103474 73.391835,42.612984 c 5.521662,-1.839361 8.254698,-2.24136 15.23788,-2.24136 4.873174,0 7.101259,0.149836 9.340278,0.628139 19.662657,4.200355 34.089337,18.627028 38.289687,38.289674 0.88747,4.15445 0.88747,14.526118 0,18.680556 -4.17014,19.521197 -18.46971,33.928757 -37.943741,38.230327 -3.50703,0.77465 -13.771284,0.99547 -17.29681,0.37211 z m 17.022068,-11.04256 c 13.311523,-3.46972 23.900253,-14.02067 27.493123,-27.395024 0.83876,-3.122276 0.92714,-4.028296 0.92714,-9.505131 0,-5.438554 -0.0918,-6.395148 -0.90338,-9.41147 -3.61385,-13.431565 -14.05851,-23.902838 -27.423235,-27.493121 -3.122276,-0.838762 -4.028295,-0.927139 -9.50513,-0.927139 -5.438555,0 -6.395149,0.09181 -9.41147,0.903384 -13.431553,3.613842 -23.902839,14.058504 -27.493121,27.423228 -0.838762,3.122264 -0.927127,4.028295 -0.927127,9.505118 0,5.438567 0.09181,6.395161 0.903371,9.411483 3.899628,14.493742 15.565488,25.339812 30.236307,28.111522 4.184518,0.79055 11.812939,0.49551 16.103522,-0.62285 z M 137.65409,51.600808 c -4.41398,-0.742111 -8.7704,-4.043103 -10.65732,-8.075357 -3.90885,-8.35304 0.12062,-17.546461 8.95765,-20.437105 1.33632,-0.43713 2.65592,-0.567318 4.86241,-0.479713 2.66735,0.105906 3.33904,0.273871 5.63487,1.409132 3.18803,1.576435 5.44773,3.879513 6.97538,7.109288 1.39466,2.94861 1.70776,7.231716 0.74402,10.177973 -1.80651,5.522703 -6.24839,9.410845 -11.78737,10.317931 -2.2674,0.371319 -2.39279,0.370731 -4.72964,-0.02219 z M 142.5219,40.62082 c 3.31799,-2.174029 1.64571,-7.686828 -2.33175,-7.686828 -3.35213,0 -5.51943,3.876056 -3.61737,6.469368 1.51348,2.063515 3.90952,2.553856 5.94912,1.21746 z"
       id="path2" /></g></svg>
