<svg width="50" height="50" viewBox="0 0 50 50" fill="none" xmlns="http://www.w3.org/2000/svg">
<g clip-path="url(#clip0_313_4573)">
<path d="M15.5559 49.5028L14.6149 49.1155L7.97664 42.0934L1.33839 35.0713L0.790625 33.8935L0.242859 32.7156L0.247677 31.2575L0.252495 29.7993L0.704532 28.7637L1.15657 27.7281L1.89738 26.9414C2.30483 26.5087 3.02316 25.9531 3.49367 25.7066L4.34915 25.2586L6.0601 25.2564L7.77106 25.2543L8.62654 25.6933L9.48201 26.1323L13.2888 30.1383L17.0956 34.1443L17.2446 33.9715C17.3265 33.8764 22.3571 26.7632 28.4237 18.1643C34.4903 9.56538 39.7998 2.19327 40.2226 1.78182L40.9914 1.03373L42.0041 0.627809L43.0167 0.221884L44.3 0.299738L45.5832 0.377598L46.3903 0.759161C46.8342 0.969024 47.5749 1.51593 48.0363 1.97451L48.8752 2.8083L49.358 3.94167L49.8407 5.07504L49.847 6.34761L49.8533 7.62017L49.5505 8.553L49.2477 9.48583L35.7366 28.6414C28.3054 39.177 21.9759 48.0282 21.6709 48.3108C21.3659 48.5935 20.7313 49.0374 20.2608 49.2975L19.4054 49.7703L17.951 49.8301L16.4967 49.89L15.5559 49.5028ZM18.9252 46.4431L19.6424 46.0971L33.1945 26.898L46.7466 7.69885L46.8272 6.80794L46.9078 5.91703L46.5327 5.09389L46.1577 4.27075L45.5541 3.87433L44.9504 3.47792H44.0513H43.1523L42.6032 3.82203L42.0541 4.16614L30.166 21.009L18.2779 37.8519L17.785 38.0688L17.2921 38.2857L16.8945 38.1573C16.6758 38.0867 14.4566 35.877 11.9629 33.2471L7.42887 28.4653L6.7777 28.3375C5.48577 28.084 4.44803 28.4969 3.6993 29.5625L3.3705 30.0304L3.28266 30.8585C3.23435 31.3139 3.24774 31.9163 3.31243 32.1972L3.43003 32.708L9.87793 39.5762L16.3258 46.4444L16.8391 46.6043C17.6447 46.8554 18.1516 46.8163 18.9252 46.4431Z" fill="#1A1A1A"/>
</g>
<defs>
<clipPath id="clip0_313_4573">
<rect width="50" height="50" fill="white"/>
</clipPath>
</defs>
</svg>
