<?xml version="1.0" encoding="UTF-8" standalone="no"?>
<!-- Created with Inkscape (http://www.inkscape.org/) -->

<svg
   width="132.8mm"
   height="94.400002mm"
   viewBox="0 0 132.80001 94.400002"
   version="1.1"
   id="svg1"
   xml:space="preserve"
   inkscape:version="1.3 (0e150ed6c4, 2023-07-21)"
   sodipodi:docname="jest_tick.svg"
   xmlns:inkscape="http://www.inkscape.org/namespaces/inkscape"
   xmlns:sodipodi="http://sodipodi.sourceforge.net/DTD/sodipodi-0.dtd"
   xmlns="http://www.w3.org/2000/svg"
   xmlns:svg="http://www.w3.org/2000/svg"><sodipodi:namedview
     id="namedview1"
     pagecolor="#ffffff"
     bordercolor="#000000"
     borderopacity="0.25"
     inkscape:showpageshadow="2"
     inkscape:pageopacity="0.0"
     inkscape:pagecheckerboard="0"
     inkscape:deskcolor="#d1d1d1"
     inkscape:document-units="mm"
     inkscape:zoom="0.50603031"
     inkscape:cx="73.11815"
     inkscape:cy="262.83011"
     inkscape:window-width="1436"
     inkscape:window-height="1040"
     inkscape:window-x="392"
     inkscape:window-y="34"
     inkscape:window-maximized="0"
     inkscape:current-layer="layer1" /><defs
     id="defs1" /><g
     inkscape:label="Warstwa 1"
     inkscape:groupmode="layer"
     id="layer1"><path
       style="fill:#000000"
       d="m 49.061773,93.952933 c -0.515312,-0.18415 -1.273424,-0.57927 -1.684694,-0.87804 C 46.965809,92.776113 36.349752,82.230853 23.78584,69.640983 2.0428958,47.853113 0.92066881,46.683123 0.49201781,45.355703 c -0.571114,-1.7686 -0.390663,-3.49365 0.54535699,-5.21342 0.97941,-1.7995 7.469309,-8.1422 9.0437912,-8.83867 1.603405,-0.70926 3.936646,-0.70647 5.401346,0.006 0.73765,0.35905 6.560872,6.00773 18.315652,17.76668 l 17.234154,17.24026 32.658705,-32.61725 C 105.96923,11.44936 116.67924,0.92547014 117.38645,0.58942009 c 1.47897,-0.70277 4.31113,-0.66187 5.70205,0.0824 1.27225,0.68073001 8.45113,7.89178001 9.1036,9.14439971 0.69281,1.3300802 0.64764,4.2073332 -0.0875,5.5724532 -0.33325,0.61885 -16.05302,16.52038 -38.999437,39.45038 -30.1313,30.10974 -38.693279,38.52671 -39.60748,38.93666 -1.329959,0.59638 -3.067978,0.66566 -4.43591,0.17681 z"
       id="path1" /></g></svg>
