<?xml version="1.0" encoding="UTF-8" standalone="no"?>
<!-- Created with Inkscape (http://www.inkscape.org/) -->

<svg
   width="145mm"
   height="145mm"
   viewBox="0 0 145 145"
   version="1.1"
   id="svg1"
   xml:space="preserve"
   inkscape:version="1.3 (0e150ed6c4, 2023-07-21)"
   sodipodi:docname="linkedin.svg"
   xmlns:inkscape="http://www.inkscape.org/namespaces/inkscape"
   xmlns:sodipodi="http://sodipodi.sourceforge.net/DTD/sodipodi-0.dtd"
   xmlns="http://www.w3.org/2000/svg"
   xmlns:svg="http://www.w3.org/2000/svg"><sodipodi:namedview
     id="namedview1"
     pagecolor="#ffffff"
     bordercolor="#000000"
     borderopacity="0.25"
     inkscape:showpageshadow="2"
     inkscape:pageopacity="0.0"
     inkscape:pagecheckerboard="0"
     inkscape:deskcolor="#d1d1d1"
     inkscape:document-units="mm"
     inkscape:zoom="0.69311897"
     inkscape:cx="158.70291"
     inkscape:cy="319.56996"
     inkscape:window-width="1920"
     inkscape:window-height="1017"
     inkscape:window-x="-8"
     inkscape:window-y="-8"
     inkscape:window-maximized="1"
     inkscape:current-layer="layer1" /><defs
     id="defs1" /><g
     inkscape:label="Warstwa 1"
     inkscape:groupmode="layer"
     id="layer1"><path
       style="fill:#000000;stroke-width:9.33961"
       d="M 32.967945,144.45061 C 18.876393,142.58343 6.7599706,132.63592 2.1816802,119.17522 0.22038297,113.40877 0.31590746,115.79869 0.31590746,72.496554 c 0,-43.302125 -0.0955466,-40.912215 1.86577274,-46.678671 C 6.8661245,12.045054 19.137164,2.1813151 33.675792,0.50224228 35.508289,0.29023294 49.404904,0.22018677 74.448987,0.29583729 108.95845,0.40044087 112.64045,0.45928067 114.6044,0.93746847 c 8.04222,1.95935423 13.72586,5.08961463 19.15105,10.54720953 5.18895,5.219996 8.33404,11.006439 10.24462,18.848529 0.47847,1.96393 0.53731,5.645881 0.64163,40.155334 0.11852,39.199329 0.0682,41.236679 -1.13411,45.937659 -3.14934,12.3138 -12.72302,22.55214 -24.7332,26.4504 -5.56079,1.80489 -2.89465,1.70028 -45.09763,1.76865 -21.320982,0.0373 -39.639944,-0.0561 -40.708815,-0.1952 z m 78.602445,-6.18244 c 3.10273,-0.42402 7.32491,-1.83337 10.39666,-3.46975 8.33471,-4.44006 14.47567,-12.96226 16.11521,-22.36414 0.68917,-3.95188 0.68917,-75.923676 0,-79.87554 C 135.80995,19.528409 125.40934,9.1278298 112.379,6.8555052 108.43074,6.1671766 36.455678,6.1662429 32.507848,6.8547581 19.419715,9.1370767 9.0923111,19.481898 6.7925942,32.613283 c -0.682258,3.895361 -0.675347,75.904707 0.00758,79.820997 0.921725,5.28582 3.4649528,10.71915 7.0307748,15.02087 4.491415,5.41828 12.293045,9.80079 19.227072,10.80078 2.8023,0.4044 75.563309,0.4156 78.512389,0.009 z M 24.06938,121.48612 23.01916,120.43588 V 88.110966 c 0,-35.119141 -0.07472,-33.592116 1.690253,-34.396443 0.578028,-0.263377 3.86595,-0.368914 11.482908,-0.368914 h 10.672977 l 1.05022,1.050238 1.05022,1.050141 v 32.494994 32.494988 l -1.05022,1.05025 -1.05022,1.05023 H 35.992453 25.119598 Z M 42.787983,87.940889 V 59.523291 h -6.79553 -6.795539 v 28.417598 28.417691 h 6.795539 6.79553 z m 17.709294,34.023691 c -2.972478,-1.02716 -5.253964,-3.38364 -6.129048,-6.33038 -0.675252,-2.27381 -0.694212,-59.39602 -0.02055,-60.699458 0.792279,-1.532162 1.249611,-1.589226 12.732986,-1.589226 h 10.672988 l 1.050219,1.050238 c 0.887543,0.887262 1.050218,1.268503 1.050218,2.459866 v 1.409717 l 1.930541,-1.206298 c 15.081604,-9.423475 35.320429,-1.146345 39.464719,16.139949 0.57718,2.407375 0.60932,3.715291 0.61136,24.888915 l 0.002,22.347977 -1.05021,1.05024 -1.05022,1.05024 H 108.8894 98.016537 l -1.050209,-1.05024 -1.050221,-1.05024 0.01166,-19.25909 c 0.0093,-16.155931 0.07658,-19.14021 0.420093,-18.520992 0.42113,0.760247 1.573961,1.548223 2.292186,1.567561 0.223592,0.0058 -0.610346,-1.102169 -1.853327,-2.462575 -2.914598,-3.190132 -3.785568,-3.549892 -8.592111,-3.549605 -3.20752,2.78e-4 -3.723766,0.08409 -5.3202,0.828414 -3.234328,1.515357 -3.017281,-0.07472 -3.018622,22.136917 l -8.43e-4,19.25909 -1.050217,1.05023 -1.050219,1.05025 -7.830312,-0.009 c -6.697661,-0.008 -8.061186,-0.0934 -9.426496,-0.56131 z M 73.67676,98.962556 c 0,-19.236216 0.01026,-19.347176 1.953388,-21.8952 2.317266,-3.038174 6.190376,-4.777957 11.328797,-5.08887 7.144504,-0.432424 12.46798,1.752577 14.404785,5.911778 l 0.72466,1.556258 0.004,18.456081 0.003,18.455977 h 6.79555 6.79552 V 96.248283 c 0,-22.530765 0.0514,-21.91949 -2.23036,-26.313677 -2.14368,-4.127449 -5.91352,-7.472337 -10.43405,-9.257879 -7.443835,-2.940295 -14.995155,-1.408881 -21.541359,4.368414 -3.791006,3.345722 -4.416459,3.616196 -6.213744,2.686814 C 74.004672,67.07912 73.67771,66.022906 73.67771,62.597604 v -3.074313 h -6.795529 -6.795532 v 27.042995 c 0,23.534024 0.06071,27.160214 0.467261,27.946514 0.847008,1.63789 1.605281,1.81983 7.641091,1.83345 l 5.482757,0.009 z M 32.594687,47.92808 C 23.051541,45.262744 19.876926,33.285081 26.862228,26.299806 c 7.104158,-7.104167 19.168166,-3.740322 21.666659,6.041321 1.592887,6.236145 -1.894856,12.871464 -7.98985,15.200293 -2.148941,0.820952 -5.759593,0.996816 -7.94435,0.38666 z m 6.989618,-6.806421 c 2.100103,-1.298391 3.305526,-3.625539 3.13577,-6.053836 -0.364337,-5.21103 -5.892905,-8.066239 -10.319482,-5.329455 -2.100103,1.298391 -3.305528,3.62554 -3.135761,6.053836 0.364337,5.210935 5.892894,8.066239 10.319473,5.329455 z"
       id="path1" /></g></svg>
