<?xml version="1.0" encoding="UTF-8" standalone="no"?>
<!-- Created with Inkscape (http://www.inkscape.org/) -->

<svg
   width="181.10001mm"
   height="180.5mm"
   viewBox="0 0 181.10001 180.50001"
   version="1.1"
   id="svg1"
   xml:space="preserve"
   inkscape:version="1.3 (0e150ed6c4, 2023-07-21)"
   sodipodi:docname="location.svg"
   xmlns:inkscape="http://www.inkscape.org/namespaces/inkscape"
   xmlns:sodipodi="http://sodipodi.sourceforge.net/DTD/sodipodi-0.dtd"
   xmlns="http://www.w3.org/2000/svg"
   xmlns:svg="http://www.w3.org/2000/svg"><sodipodi:namedview
     id="namedview1"
     pagecolor="#ffffff"
     bordercolor="#000000"
     borderopacity="0.25"
     inkscape:showpageshadow="2"
     inkscape:pageopacity="0.0"
     inkscape:pagecheckerboard="0"
     inkscape:deskcolor="#d1d1d1"
     inkscape:document-units="mm"
     inkscape:zoom="1.0343421"
     inkscape:cx="302.60782"
     inkscape:cy="544.79076"
     inkscape:window-width="1920"
     inkscape:window-height="1017"
     inkscape:window-x="-8"
     inkscape:window-y="-8"
     inkscape:window-maximized="1"
     inkscape:current-layer="layer1" /><defs
     id="defs1" /><g
     inkscape:label="Warstwa 1"
     inkscape:groupmode="layer"
     id="layer1"><path
       style="fill:#000000"
       d="m 2.8947476,179.79779 c -1.797248,-1.04217 -2.90892902,-3.12601 -2.67061102,-5.00607 0.193943,-1.52998 31.87706442,-75.590913 32.99846442,-77.135593 1.46558,-2.018798 2.09236,-2.115518 13.71193,-2.116118 l 10.65237,-5.5e-4 -1.2519,-2.20486 c -5.64947,-9.94996 -10.28081,-21.27314 -12.3227,-30.12783 -1.15605,-5.01321 -1.55165,-13.84408 -0.87162,-19.45661 2.4457,-20.185086 14.027,-35.3398488 31.43216,-41.1307071 6.21288,-2.06708201 8.9453,-2.49832901 15.68431,-2.47538901 4.77528,0.01626 6.72956,0.177365 9.59147,0.790711 9.889019,2.11935601 17.739509,6.38878331 24.391359,13.26505511 5.18223,5.357072 8.55137,11.034722 10.99897,18.535348 2.1763,6.669246 2.64446,9.993221 2.63478,18.707062 -0.008,7.05866 -0.0769,7.87462 -0.99562,11.76453 -2.12586,9.00102 -6.73051,20.23767 -12.34603,30.12783 l -1.25189,2.20486 h 10.57551 c 11.41456,0 12.22653,0.11179 13.61282,1.874178 1.05369,1.33955 33.27613,76.605453 33.27613,77.727133 0,1.65083 -1.29288,3.81065 -2.78209,4.64764 l -1.37092,0.77049 -86.206129,-0.008 -86.2061334,-0.008 z m 60.9326134,-23.552 -13.72639,-13.72979 -11.31913,5.80836 c -6.22552,3.1946 -13.399599,6.85852 -15.942396,8.14205 l -4.623266,2.33368 -2.255901,5.28691 c -1.240745,2.9078 -2.308817,5.42229 -2.373492,5.58774 -0.06468,0.16546 14.301435,0.30083 31.924695,0.30083 h 32.04228 z m 42.468549,12.36053 c 8.30193,-4.27594 49.24638,-25.5545 49.35756,-25.6508 0.0728,-0.0631 -3.40773,-8.37626 -7.73458,-18.47372 l -7.86701,-18.35901 h -11.55672 -11.55673 l -2.96581,4.34404 c -7.48565,10.9643 -18.502099,25.13352 -20.680829,26.59944 -1.5275,1.02775 -3.99192,1.0806 -5.56829,0.11942 -0.6174,-0.37646 -2.74687,-2.68229 -4.73215,-5.12408 -1.98529,-2.44178 -3.74085,-4.39537 -3.90126,-4.34129 -0.16041,0.0541 -4.49332,2.24143 -9.62869,4.86081 l -9.33704,4.7625 16.2997,16.31597 16.29969,16.31597 h 5.45685 5.456839 z m 61.04319,1.26717 c 0,-0.66519 -7.4018,-16.98659 -7.6775,-16.92933 -0.42922,0.0891 -32.19825,16.5729 -32.47586,16.85051 -0.0995,0.0995 8.89431,0.1809 19.98623,0.1809 11.09192,0 20.16713,-0.0459 20.16713,-0.10208 z M 51.098821,130.11026 c 15.73942,-8.06696 21.52634,-11.04426 21.63352,-11.13018 0.0627,-0.0503 -0.90013,-1.49533 -2.13971,-3.21117 -1.23958,-1.71585 -3.23969,-4.58817 -4.4447,-6.38292 l -2.19092,-3.2632 h -11.5709 -11.5709 l -7.87914,18.43264 c -4.33353,10.13795 -7.957278,18.57558 -8.052784,18.75029 -0.156441,0.28618 3.635324,-1.62239 26.215534,-13.19546 z m 42.41094,-9.61177 c 13.770749,-17.6679 25.071449,-36.351571 30.047569,-49.678221 2.76755,-7.41183 3.62499,-11.3986 3.82668,-17.79244 0.35108,-11.130019 -2.05157,-19.87185 -7.61079,-27.691151 C 112.52246,15.138151 99.352041,9.3868802 86.516541,10.814121 c -9.20052,1.02305 -16.51971,4.549113 -22.5505,10.863839 -7.49461,7.847459 -10.94279,18.25444 -10.48332,31.639819 0.15252,4.4432 0.36608,6.04806 1.25265,9.41335 3.33872,12.67331 11.51785,28.4198 24.00464,46.213881 3.88809,5.54065 11.31055,15.16945 11.69353,15.16945 0.14182,0 1.52612,-1.62719 3.07622,-3.61597 z m -6.51539,-57.244001 c -8.91678,-1.93703 -14.41483,-11.32787 -11.727,-20.030072 2.11539,-6.848823 7.95397,-11.200044 15.07247,-11.232791 7.18276,-0.03304 13.133059,4.346973 15.259879,11.232791 2.71439,8.788172 -2.82436,18.124442 -11.892259,20.045932 -2.88018,0.61031 -3.84105,0.60804 -6.71309,-0.0159 z m 6.2614,-11.06927 c 4.36327,-3.12408 2.46333,-9.559792 -2.82223,-9.559792 -4.9321,0 -7.07863,5.692912 -3.43101,9.099572 1.67184,1.5614 4.43159,1.76451 6.25324,0.46022 z"
       id="path2" /></g></svg>
