<?xml version="1.0" encoding="UTF-8" standalone="no"?>
<!-- Created with Inkscape (http://www.inkscape.org/) -->

<svg
   width="144mm"
   height="101.5mm"
   viewBox="0 0 144 101.5"
   version="1.1"
   id="svg1"
   xml:space="preserve"
   inkscape:version="1.3 (0e150ed6c4, 2023-07-21)"
   sodipodi:docname="mail.svg"
   xmlns:inkscape="http://www.inkscape.org/namespaces/inkscape"
   xmlns:sodipodi="http://sodipodi.sourceforge.net/DTD/sodipodi-0.dtd"
   xmlns="http://www.w3.org/2000/svg"
   xmlns:svg="http://www.w3.org/2000/svg"><sodipodi:namedview
     id="namedview1"
     pagecolor="#ffffff"
     bordercolor="#000000"
     borderopacity="0.25"
     inkscape:showpageshadow="2"
     inkscape:pageopacity="0.0"
     inkscape:pagecheckerboard="0"
     inkscape:deskcolor="#d1d1d1"
     inkscape:document-units="mm"
     inkscape:zoom="0.73139029"
     inkscape:cx="440.25742"
     inkscape:cy="427.26846"
     inkscape:window-width="1920"
     inkscape:window-height="1017"
     inkscape:window-x="-8"
     inkscape:window-y="-8"
     inkscape:window-maximized="1"
     inkscape:current-layer="layer1" /><defs
     id="defs1" /><g
     inkscape:label="Warstwa 1"
     inkscape:groupmode="layer"
     id="layer1"><path
       style="fill:#000000"
       d="M 10.362077,101.46882 C 5.561288,100.526 1.39003,96.268949 0.45956996,91.362655 c -0.39606,-2.08842 -0.39606,-78.68876 0,-80.77718 C 1.412426,5.5610847 5.558524,1.4149944 10.582914,0.46213443 c 2.100803,-0.39841 121.574136,-0.39841 123.674946,0 5.02439,0.95285997 9.17048,5.09895027 10.12334,10.12334057 0.38144,2.01133 0.39346,78.24835 0.0127,80.57338 -0.83362,5.090374 -5.02148,9.357185 -10.13605,10.327145 -1.8892,0.35828 -122.068821,0.34161 -123.895783,-0.0172 z M 116.58705,79.742545 c -7.45006,-7.46067 -15.67368,-15.60428 -18.274702,-18.09692 l -4.72915,-4.53205 -3.8816,3.77413 c -2.13488,2.07578 -4.63326,4.27227 -5.55195,4.88111 -7.05802,4.67746 -16.4005,4.67746 -23.45852,0 -0.91869,-0.60884 -3.41707,-2.80533 -5.551951,-4.88111 l -3.881601,-3.77413 -4.729148,4.53205 c -2.601031,2.49264 -10.824651,10.63625 -18.274711,18.09692 L 14.708153,93.307399 H 72.420388 130.13262 Z M 28.816073,67.361145 45.183976,50.974215 31.073851,36.844855 c -7.760569,-7.77114 -15.983375,-15.9138 -18.272903,-18.0948 l -4.162777,-3.96546 v 36.18602 36.18602 l 1.905,-1.70427 c 1.04775,-0.93736 9.270556,-9.0784 18.272902,-18.09122 z m 107.318047,-34.51986 -0.0726,-18.13277 -18.20333,18.12609 -18.203332,18.12609 18.203332,18.13946 18.20333,18.13946 0.0726,-18.13277 c 0.0399,-9.97303 0.0399,-26.29253 0,-36.26556 z m -60.456912,27.57527 c 0.92514,-0.2394 2.36456,-0.84265 3.19872,-1.34055 1.03375,-0.61703 9.43564,-8.78628 26.387772,-25.65709 L 130.13482,8.6670947 H 72.420388 14.705948 L 39.577073,33.418915 c 16.91372,16.83258 25.356375,25.04191 26.387775,25.6585 2.84143,1.69866 6.41762,2.19175 9.71236,1.33914 z"
       id="path1" /></g></svg>
