<?xml version="1.0" encoding="UTF-8" standalone="no"?>
<!-- Created with Inkscape (http://www.inkscape.org/) -->

<svg
   width="177.10001mm"
   height="177.5mm"
   viewBox="0 0 177.10001 177.50001"
   version="1.1"
   id="svg1"
   xml:space="preserve"
   inkscape:version="1.3 (0e150ed6c4, 2023-07-21)"
   sodipodi:docname="mastodon.svg"
   xmlns:inkscape="http://www.inkscape.org/namespaces/inkscape"
   xmlns:sodipodi="http://sodipodi.sourceforge.net/DTD/sodipodi-0.dtd"
   xmlns="http://www.w3.org/2000/svg"
   xmlns:svg="http://www.w3.org/2000/svg"><sodipodi:namedview
     id="namedview1"
     pagecolor="#ffffff"
     bordercolor="#000000"
     borderopacity="0.25"
     inkscape:showpageshadow="2"
     inkscape:pageopacity="0.0"
     inkscape:pagecheckerboard="0"
     inkscape:deskcolor="#d1d1d1"
     inkscape:document-units="mm"
     inkscape:zoom="0.73139029"
     inkscape:cx="478.54067"
     inkscape:cy="506.56948"
     inkscape:window-width="1920"
     inkscape:window-height="1017"
     inkscape:window-x="-8"
     inkscape:window-y="-8"
     inkscape:window-maximized="1"
     inkscape:current-layer="layer1" /><defs
     id="defs1" /><g
     inkscape:label="Warstwa 1"
     inkscape:groupmode="layer"
     id="layer1"><path
       style="fill:#000000;stroke-width:0.651299"
       d="M 68.942063,176.57121 C 59.56392,175.9007 52.341037,174.19664 44.877044,170.89366 28.517624,163.65426 14.925711,149.26563 7.1890003,130.99646 3.3126137,121.84291 0.99305888,111.68961 0.36310789,101.11773 0.13070998,97.217607 0.1278866,56.317975 0.35978626,53.366228 0.98199656,45.447256 2.6653863,38.850493 5.7941097,32.07054 8.5754985,26.04326 12.075753,21.054268 16.894646,16.248689 23.319976,9.8411439 30.873744,5.3477386 39.611706,2.7353253 44.403679,1.3026551 48.161969,0.6694183 53.60532,0.37753332 55.584254,0.27141778 69.700585,0.23041849 90.827066,0.26942545 c 30.747464,0.0567738 34.241774,0.0909285 36.187814,0.35374083 7.61948,1.02900732 13.24764,2.72587702 19.32503,5.82642292 9.68394,4.9405338 17.68726,12.7488088 23.02598,22.4648388 4.19208,7.629235 6.45699,15.66716 7.11358,25.245304 0.131,1.911153 0.16984,7.447718 0.11843,16.887648 -0.0721,13.242347 -0.0979,14.196832 -0.45067,16.715127 -1.99351,14.229143 -8.46187,24.004583 -20.52674,31.021473 -6.97845,4.05865 -18.19693,7.36716 -28.8641,8.5125 -6.56933,0.70535 -9.58974,0.85186 -17.6631,0.85677 -11.456844,0.007 -19.482499,-0.60207 -34.033769,-2.58276 -2.500924,-0.34042 -10.921441,-1.69729 -13.931297,-2.24488 -1.312114,-0.23871 -2.411032,-0.40866 -2.44204,-0.37765 -0.031,0.031 0.302691,0.59883 0.74155,1.26184 1.07846,1.62929 3.401059,3.89986 5.349492,5.22965 4.973066,3.39407 13.034647,5.7716 22.258738,6.56455 1.18472,0.10184 2.502989,0.22947 2.929492,0.28362 0.426497,0.0541 7.056619,0.15833 14.733604,0.23152 13.16953,0.12556 14.04579,0.15299 15.50907,0.48555 9.34743,2.12441 15.83001,9.57658 16.2263,18.65325 0.42532,9.74178 -6.02221,18.13284 -15.79549,20.55681 -1.45312,0.3604 -1.661,0.36348 -26.193092,0.3876 -13.600581,0.0134 -25.077289,-6.5e-4 -25.503785,-0.0311 z m 48.517317,-16.10833 c 0.95187,-0.23969 2.25513,-1.35648 2.68353,-2.29959 0.90024,-1.98185 -0.036,-4.47916 -2.0462,-5.4584 -0.80984,-0.3945 -0.90482,-0.39977 -9.43422,-0.52353 -12.961002,-0.18807 -19.589347,-0.49627 -25.503789,-1.18584 -17.100807,-1.99379 -28.667966,-7.28392 -35.962524,-16.44715 -3.365784,-4.228 -5.557003,-9.54946 -6.429952,-15.61537 -0.371605,-2.58219 -0.523189,-6.92442 -0.280971,-8.04864 0.773646,-3.59078 4.285908,-6.40634 7.991592,-6.40634 0.392447,0 2.462967,0.42177 4.601156,0.93726 11.79888,2.84455 26.673974,5.45021 37.404423,6.55207 17.322785,1.77883 31.444225,1.35159 42.616775,-1.28933 8.55981,-2.02333 15.16398,-5.34794 19.67796,-9.90608 4.62537,-4.670621 7.05055,-10.171247 7.67306,-17.403469 0.12931,-1.502333 0.17121,-6.695774 0.1272,-15.767552 -0.0742,-15.299956 -0.0962,-15.625508 -1.41286,-20.902387 -0.85735,-3.436131 -1.62608,-5.588929 -3.02761,-8.478666 -2.09937,-4.328619 -4.14376,-7.186091 -7.65448,-10.698743 -3.37688,-3.378732 -5.84834,-5.152539 -10.09427,-7.244786 -4.64288,-2.287851 -9.2523,-3.468735 -15.07826,-3.862895 -4.07597,-0.275767 -70.432818,-0.130957 -72.547952,0.158318 -2.326362,0.318166 -5.186224,0.991329 -7.724552,1.818238 -14.926998,4.862751 -25.133622,18.430956 -26.648376,35.425093 -0.234992,2.636401 -0.236181,43.397911 -0.0014,47.216479 1.205727,19.60847 10.213222,37.89404 23.948772,48.61697 5.366433,4.18941 11.87243,7.48454 17.992924,9.11298 3.390071,0.90198 7.374049,1.57429 10.52652,1.77641 0.473885,0.0303 11.431598,0.0692 24.350464,0.0863 16.81834,0.0222 23.70587,-0.0236 24.25303,-0.16136 z M 46.054886,96.109662 c -2.564556,-0.690149 -4.745979,-2.962636 -5.454273,-5.68198 -0.386931,-1.485509 -0.396596,-42.888772 -0.01062,-45.401061 0.505441,-3.289712 1.671951,-6.282257 3.511532,-9.0084 4.756595,-7.048967 14.4144,-11.680668 24.323553,-11.665109 5.489697,0.0086 10.673609,1.098566 14.589813,3.067594 1.250501,0.628738 3.75674,2.240118 4.925751,3.166995 l 0.473892,0.375734 0.473885,-0.377135 c 1.287547,-1.024676 4.041579,-2.739547 5.447389,-3.391966 7.267072,-3.372545 17.215632,-3.778187 24.924532,-1.016268 2.37019,0.849183 5.52718,2.474683 7.40572,3.813129 4.97676,3.545901 8.02128,8.014811 9.36267,13.743001 0.35767,1.527388 0.36403,1.883909 0.41919,23.510625 0.0395,15.474076 1.7e-4,22.22874 -0.13309,22.870609 -0.5876,2.830475 -2.91804,5.266575 -5.76734,6.028829 -1.11144,0.297332 -3.03317,0.294661 -4.16157,-0.0059 -2.44535,-0.651104 -4.5183,-2.575791 -5.46345,-5.07271 -0.36912,-0.975132 -0.36985,-1.011344 -0.45587,-22.51707 -0.0861,-21.525348 -0.0864,-21.540985 -0.45532,-22.439746 -1.05307,-2.56567 -3.27075,-4.258435 -6.86841,-5.242705 -1.18975,-0.3255 -1.82705,-0.377688 -4.65272,-0.381004 -2.83697,-0.0033 -3.4582,0.04637 -4.65272,0.372211 -4.108675,1.120763 -6.724013,3.525965 -7.322811,6.734454 -0.106064,0.568298 -0.173233,5.818142 -0.173233,13.539151 0,13.739619 0.01472,13.5127 -0.988646,15.247461 -1.467742,2.537671 -3.975765,3.9743 -6.938206,3.9743 -2.962448,0 -5.470471,-1.436629 -6.938213,-3.9743 -1.003444,-1.734905 -0.988412,-1.50269 -0.991187,-15.31405 -0.002,-10.576683 -0.04474,-12.856563 -0.257256,-13.757857 -0.770572,-3.26833 -3.202569,-5.434962 -7.236248,-6.446671 -1.313247,-0.329381 -2.013016,-0.389249 -4.566552,-0.390688 -3.609382,-0.002 -4.863094,0.235334 -7.199527,1.363072 -2.079833,1.003886 -3.275397,2.120083 -4.136232,3.861644 l -0.64069,1.29619 -0.08616,21.549459 -0.08616,21.549461 -0.370836,0.903814 c -1.118633,2.726365 -2.987171,4.486554 -5.462324,5.14559 -1.133417,0.301786 -3.210488,0.288148 -4.388278,-0.02879 z"
       id="path3" /></g></svg>
