<?xml version="1.0" encoding="UTF-8" standalone="no"?>
<!-- Created with Inkscape (http://www.inkscape.org/) -->

<svg
   width="144.5mm"
   height="129.60001mm"
   viewBox="0 0 144.5 129.60002"
   version="1.1"
   id="svg1"
   xml:space="preserve"
   inkscape:version="1.3 (0e150ed6c4, 2023-07-21)"
   sodipodi:docname="mediumbusiness.svg"
   xmlns:inkscape="http://www.inkscape.org/namespaces/inkscape"
   xmlns:sodipodi="http://sodipodi.sourceforge.net/DTD/sodipodi-0.dtd"
   xmlns="http://www.w3.org/2000/svg"
   xmlns:svg="http://www.w3.org/2000/svg"><sodipodi:namedview
     id="namedview1"
     pagecolor="#ffffff"
     bordercolor="#000000"
     borderopacity="0.25"
     inkscape:showpageshadow="2"
     inkscape:pageopacity="0.0"
     inkscape:pagecheckerboard="0"
     inkscape:deskcolor="#d1d1d1"
     inkscape:document-units="mm"
     inkscape:zoom="0.98021825"
     inkscape:cx="196.38484"
     inkscape:cy="256.57551"
     inkscape:window-width="1920"
     inkscape:window-height="1017"
     inkscape:window-x="-8"
     inkscape:window-y="-8"
     inkscape:window-maximized="1"
     inkscape:current-layer="layer1" /><defs
     id="defs1" /><g
     inkscape:label="Warstwa 1"
     inkscape:groupmode="layer"
     id="layer1"><path
       style="fill:#000000"
       d="m 1.7148219,128.91514 c -1.36739904,-0.84783 -1.62437604,-1.85098 -1.62437604,-6.34103 0,-4.70049 0.341078,-6.10322 1.86574004,-7.67312 1.56809,-1.61461 2.472157,-1.95514 5.543895,-2.08821 l 2.7529681,-0.11926 -0.07186,-29.337729 -0.07186,-29.337733 -1.414796,-0.47894 c -3.3366771,-1.12956 -5.7845891,-3.29832 -7.2447391,-6.41859 -1.02875204,-2.19839 -1.33789604,-4.37093 -1.35011904,-9.48808 l -0.0092,-3.86572 L 4.8151149,24.368001 9.539756,14.96927 9.683448,9.1837147 c 0.157467,-6.3401482 0.319801,-6.9911862 2.068589,-8.29605418 0.744363,-0.555412 1.204604,-0.599481 7.094006,-0.679271 l 6.29801,-0.08532 0.59654,0.758385 c 1.01425,1.28941198 0.63059,2.61916898 -0.92649,3.21116998 -0.42983,0.163421 -3.01639,0.293317 -5.84066,0.293317 h -5.06917 l 0.0781,4.1627782 0.0781,4.1627783 h 58.27889 58.278897 l 0.0781,-4.1627783 0.0781,-4.1627782 H 82.525283 c -32.69986,0 -48.4978,-0.09453 -49.02066,-0.293317 -1.55103,-0.589701 -1.94087,-1.921591 -0.93627,-3.19873498 l 0.58676,-0.745951 49.48701,0.07289 49.487017,0.07289 0.79678,0.593946 c 1.74944,1.30408798 1.91188,1.95530598 2.06937,8.29605418 l 0.14369,5.7855553 4.72464,9.398731 4.72464,9.398727 -0.009,3.86572 c -0.0122,5.11715 -0.32137,7.28969 -1.35012,9.48808 -1.46015,3.12027 -3.90807,5.28903 -7.24474,6.41859 l -1.4148,0.47894 -0.0719,29.337729 -0.0718,29.337729 2.75296,0.11926 c 3.07174,0.13307 3.97581,0.4736 5.5439,2.08821 1.52466,1.5699 1.86574,2.97263 1.86574,7.67312 0,4.52627 -0.26194,5.5225 -1.67088,6.35478 -0.76247,0.4504 -5.32275,0.481 -70.621567,0.47398 -65.2261041,-0.007 -69.8572691,-0.039 -70.5809621,-0.48773 z m 138.6400781,-6.962 c 0,-3.05659 -0.0379,-3.26896 -0.73065,-4.09222 l -0.73064,-0.86832 H 72.339333 5.7850659 l -0.730644,0.86832 c -0.692726,0.82326 -0.730643,1.03563 -0.730643,4.09222 v 3.22391 H 72.339333 140.3549 Z M 18.158863,88.982051 c 0.006,-22.94018 0.0255,-23.81978 0.55492,-24.9862 0.41889,-0.92295 0.83474,-1.33879 1.75769,-1.75769 1.13939,-0.51713 1.94058,-0.54907 13.91973,-0.55491 12.63239,-0.006 12.71839,-0.002 13.94912,0.6288 2.42382,1.24287 2.2679,-0.58075 2.2679,26.52448 v 23.922739 h 39.79464 39.794647 l -0.0719,-29.409269 -0.0719,-29.409263 -1.14424,-0.33128 c -1.94702,-0.56369 -3.44896,-1.47676 -5.03014,-3.05795 l -1.51934,-1.51934 -1.47519,1.49374 c -2.54933,2.5814 -5.53601,3.681853 -9.43702,3.4771 -3.00225,-0.15758 -5.53501,-1.31251 -7.67527,-3.49992 l -1.44563,-1.47748 -1.37659,1.39987 c -0.75712,0.76992 -1.884583,1.69764 -2.505473,2.06158 -2.762344,1.61921 -6.567084,2.007593 -9.821104,1.00253 -2.00246,-0.6185 -4.82901,-2.51557 -5.67749,-3.81051 l -0.52657,-0.80366 -1.01854,1.15326 c -4.75651,5.385713 -13.36721,5.385713 -18.12373,0 l -1.01853,-1.15326 -0.52657,0.80366 c -0.84848,1.29494 -3.67504,3.19201 -5.67749,3.81051 -3.25402,1.005063 -7.05876,0.61668 -9.82109,-1.00253 -0.62089,-0.36394 -1.74836,-1.29166 -2.50548,-2.06158 l -1.37658,-1.39987 -1.44564,1.47748 c -2.14026,2.18741 -4.67302,3.34234 -7.67527,3.49992 -3.901,0.204753 -6.88769,-0.8957 -9.43702,-3.4771 l -1.47518,-1.49374 -1.51935,1.51934 c -1.58118,1.58119 -3.08312,2.49426 -5.03014,3.05795 l -1.14423,0.33128 -0.0719,29.409263 -0.0719,29.409269 h 1.83575 1.83575 z m 38.7425,13.910869 c -1.84445,-1.12463 -1.77759,-0.35548 -1.77759,-20.448699 v -18.20753 l 0.87285,-0.99411 c 0.48006,-0.54676 1.33731,-1.12967 1.905,-1.29535 0.68657,-0.20038 5.50532,-0.27241 14.39226,-0.21515 l 13.3601,0.0861 0.53934,0.66627 c 0.72923,0.90084 0.68338,2.06336 -0.11081,2.80946 -0.64488,0.60583 -0.75636,0.61138 -13.75833,0.68419 l -13.10818,0.0734 -0.0728,16.58056 -0.0728,16.580552 h 30.62336 30.623377 V 82.561501 65.910391 h -13.21123 c -12.905267,0 -13.225537,-0.0133 -13.828897,-0.57544 -0.81438,-0.75871 -0.82632,-2.25262 -0.0238,-2.97915 0.56394,-0.51054 1.27548,-0.54158 14.123067,-0.61611 12.98355,-0.0753 13.58039,-0.0558 14.79826,0.48289 1.01742,0.45005 1.3804,0.8131 1.83064,1.83094 0.54411,1.23004 0.55915,1.82184 0.48289,19.00311 -0.0875,19.717899 0.0248,18.603269 -1.99904,19.837289 -0.8799,0.53651 -1.67946,0.54992 -32.793007,0.54992 -31.13321,0 -31.91258,-0.0131 -32.79463,-0.55091 z M 46.374893,89.334831 v -23.42445 h -11.99445 -11.99444 v 23.42445 23.424439 h 11.99444 11.99445 z m -6.52089,3.05134 c -1.02217,-0.34609 -1.38134,-1.32294 -1.38134,-3.7569 0,-1.14956 0.14535,-2.40912 0.323,-2.79902 0.64728,-1.42061 2.94126,-1.41797 3.58921,0.004 0.4154,0.9117 0.4154,4.6781 0,5.58979 -0.39466,0.8662 -1.53436,1.29941 -2.53087,0.96201 z M 14.959053,49.449468 c 1.87839,-0.69254 3.36846,-2.03903 4.28401,-3.87122 0.8641,-1.72922 0.88516,-1.86427 0.88516,-5.67739 v -3.90603 H 12.189824 4.2514249 l 0.127958,3.88055 c 0.106109,3.21793 0.235233,4.12151 0.756189,5.29167 1.328468,2.98396 3.9014301,4.66497 7.0904291,4.63244 1.008942,-0.0103 2.238822,-0.1678 2.733052,-0.35002 z m 20.80524,-0.32357 c 1.52657,-0.74342 2.93244,-2.22638 3.72571,-3.93002 0.60293,-1.29486 0.67076,-1.83093 0.67324,-5.3205 l 0.003,-3.88055 h -7.93425 -7.93425 l 0.11667,3.88055 c 0.0979,3.25637 0.21886,4.10754 0.75203,5.29167 0.8232,1.82825 2.09356,3.14659 3.85202,3.99753 1.18771,0.57474 1.74622,0.6682 3.52778,0.59033 1.33988,-0.0586 2.52095,-0.28941 3.21829,-0.62901 z m 19.80575,0.0245 c 1.89617,-0.88294 3.36136,-2.43829 4.06265,-4.31267 0.46542,-1.24395 0.57108,-2.2032 0.57108,-5.18465 v -3.6583 h -7.9336 -7.93361 l 0.1202,4.02166 c 0.13526,4.52531 0.37874,5.36846 2.10237,7.28034 2.25167,2.4976 5.98058,3.26467 9.01091,1.85362 z m 20.01485,0.008 c 0.77611,-0.36302 1.94235,-1.23872 2.59166,-1.946 1.63131,-1.77698 2.065,-3.40268 2.065,-7.74079 v -3.47655 h -7.90222 -7.90222 v 3.47655 c 0,4.33811 0.43368,5.96381 2.065,7.74079 1.61957,1.76417 3.50523,2.60603 5.83722,2.60603 1.33261,0 2.22047,-0.18056 3.24556,-0.66003 z m 20.03778,0.002 c 1.57684,-0.73585 3.352254,-2.53925 4.030824,-4.09436 0.31549,-0.72302 0.483803,-2.21802 0.568413,-5.04884 l 0.1202,-4.02166 h -7.933617 -7.93361 v 3.6583 c 0,2.98145 0.10566,3.9407 0.57108,5.18465 1.55245,4.14927 6.56099,6.19589 10.57671,4.32191 z m 20.037777,-0.01 c 1.75131,-0.82934 3.02511,-2.14642 3.85202,-3.98291 0.53318,-1.18413 0.65414,-2.0353 0.75204,-5.29167 l 0.11666,-3.88055 h -7.93425 -7.93424 v 3.81906 c 0,2.80498 0.11587,4.09768 0.43639,4.86833 1.41439,3.4008 3.86504,5.08053 7.46583,5.11727 1.37236,0.014 2.18989,-0.14961 3.24555,-0.64953 z m 20.03778,0 c 1.75539,-0.83127 3.02923,-2.15084 3.84487,-3.98291 0.52096,-1.17016 0.65008,-2.07374 0.75619,-5.29167 l 0.12796,-3.88055 h -7.9384 -7.9384 v 3.90603 c 0,3.81312 0.0211,3.94817 0.88516,5.67739 0.91556,1.83219 2.40562,3.17868 4.28401,3.87122 1.59729,0.5889 4.39895,0.44855 5.97861,-0.29951 z M 23.360973,24.776492 c 1.37337,-3.84175 2.55492,-7.143749 2.62567,-7.337777 0.10055,-0.275755 -1.29496,-0.352778 -6.39162,-0.352778 h -6.520264 l -3.67098,7.337777 -3.6709801,7.337774 h 7.5655641 7.56557 z m 18.77422,0 c 0.82444,-3.84175 1.55773,-7.143749 1.62954,-7.337777 0.1021,-0.275914 -1.31361,-0.352778 -6.49763,-0.352778 h -6.62818 l -0.30797,0.776111 c -0.71511,1.80213 -4.84051,13.44664 -4.84051,13.66301 0,0.13004 3.4078,0.23643 7.57289,0.23643 h 7.57288 z m 18.60057,2.116667 c 0.18724,-2.677583 0.41716,-5.979583 0.51093,-7.337778 l 0.17049,-2.469444 h -6.67448 c -3.67096,0 -6.67448,0.04947 -6.67448,0.109941 0,0.06047 -0.6985,3.324469 -1.55222,7.253337 -0.85372,3.928867 -1.55222,7.181393 -1.55222,7.227833 0,0.0465 3.47209,0.0844 7.71576,0.0844 h 7.71577 z m 19.21553,3.668889 c -0.004,-0.659695 -0.1913,-3.548945 -0.41529,-6.420556 -0.22399,-2.871611 -0.41088,-5.633861 -0.4153,-6.138333 l -0.008,-0.917222 h -6.77337 -6.77333 l -0.008,0.917222 c -0.004,0.504472 -0.19131,3.266722 -0.4153,6.138333 -0.22399,2.871611 -0.41087,5.760861 -0.41529,6.420556 l -0.008,1.19944 h 7.62 7.62 z m 19.763604,1.115 c 0,-0.0464 -0.6985,-3.298966 -1.55222,-7.227833 -0.853734,-3.928868 -1.552234,-7.192869 -1.552234,-7.253337 0,-0.06047 -3.00351,-0.109941 -6.67448,-0.109941 h -6.67449 l 0.1705,2.469444 c 0.0938,1.358195 0.32369,4.660195 0.51093,7.337778 l 0.34045,4.868329 h 7.71577 c 4.24367,0 7.715774,-0.038 7.715774,-0.0844 z m 19.473333,-0.15199 c 0,-0.21637 -4.12539,-11.86088 -4.84051,-13.66301 l -0.30797,-0.776111 h -6.617 c -6.17101,0 -6.60687,0.03329 -6.46672,0.493889 0.1957,0.643161 2.9899,13.693072 2.9912,13.970002 5.5e-4,0.11641 3.43,0.21166 7.621,0.21166 4.191,0 7.62,-0.10639 7.62,-0.23643 z m 16.08667,-7.101344 -3.67098,-7.337777 h -6.52026 c -5.09667,0 -6.49218,0.07702 -6.39163,0.352778 0.0707,0.194028 1.25231,3.496027 2.62567,7.337777 l 2.49704,6.984996 h 7.56557 7.56557 z"
       id="path1" /></g></svg>
