<?xml version="1.0" encoding="UTF-8" standalone="no"?>
<!-- Created with Inkscape (http://www.inkscape.org/) -->

<svg
   version="1.1"
   id="svg1"
   width="22.21875"
   height="22.21875"
   viewBox="0 0 22.21875 22.21875"
   sodipodi:docname="nofeature.svg"
   inkscape:version="1.3 (0e150ed6c4, 2023-07-21)"
   xmlns:inkscape="http://www.inkscape.org/namespaces/inkscape"
   xmlns:sodipodi="http://sodipodi.sourceforge.net/DTD/sodipodi-0.dtd"
   xmlns="http://www.w3.org/2000/svg"
   xmlns:svg="http://www.w3.org/2000/svg">
  <defs
     id="defs1" />
  <sodipodi:namedview
     id="namedview1"
     pagecolor="#ffffff"
     bordercolor="#000000"
     borderopacity="0.25"
     inkscape:showpageshadow="2"
     inkscape:pageopacity="0.0"
     inkscape:pagecheckerboard="0"
     inkscape:deskcolor="#d1d1d1"
     showgrid="false"
     inkscape:zoom="18.475387"
     inkscape:cx="5.9809303"
     inkscape:cy="8.200099"
     inkscape:window-width="1920"
     inkscape:window-height="1017"
     inkscape:window-x="-8"
     inkscape:window-y="-8"
     inkscape:window-maximized="1"
     inkscape:current-layer="g1" />
  <g
     inkscape:groupmode="layer"
     inkscape:label="Image"
     id="g1">
    <path
       style="fill:#000000;stroke-width:9.07438"
       d="M 1.9733194,22.060646 C 0.80230359,21.636056 -0.00382418,20.330643 0.06167021,18.965086 0.12119807,17.724627 0.18565342,17.637767 3.5987492,14.201436 L 6.6377058,11.141783 3.5987492,8.0821385 C 0.185657,4.6458077 0.12116444,4.5589478 0.06167021,3.3184894 -0.03213175,1.3627885 1.3491747,-0.01852244 3.3048754,0.07527951 4.5453338,0.13517033 4.6321938,0.19923542 8.0685265,3.6123631 l 3.0596445,3.0389547 3.059653,-3.0389547 c 3.436331,-3.41309131 3.523191,-3.47759198 4.763649,-3.53708359 1.955702,-0.09382914 3.337003,1.28750899 3.243211,3.24320989 -0.05989,1.2404584 -0.123957,1.3273183 -3.537084,4.7636491 l -3.038954,3.0596445 3.038954,3.059653 c 3.415605,3.438862 3.477556,3.522383 3.53732,4.768868 0.09302,1.940029 -1.300486,3.331176 -3.243447,3.237992 -1.240458,-0.05989 -1.327318,-0.123956 -4.763649,-3.537084 l -3.059653,-3.038956 -3.0596445,3.038956 c -3.4905702,3.466966 -3.5228024,3.490423 -4.8424439,3.525133 -0.5632465,0.01452 -0.95457,-0.02722 -1.2527632,-0.135663 z m 1.5722903,-2.063204 c 0.1157891,-0.05899 1.7610191,-1.652227 3.656114,-3.541486 l 3.4456233,-3.435015 h 0.479581 0.47958 l 3.495079,3.487093 c 2.306208,2.300936 3.585223,3.509153 3.760087,3.55193 0.72731,0.177948 1.36269,-0.457349 1.184733,-1.184733 -0.04265,-0.174863 -1.250994,-1.453879 -3.55193,-3.760087 l -3.487093,-3.495078 v -0.47831 -0.478311 L 16.494477,7.1683668 C 18.795413,4.862159 20.003629,3.5831436 20.046407,3.4082803 20.22735,2.6687185 19.601217,2.0426046 18.861674,2.2235477 18.68681,2.2661977 17.407795,3.4745414 15.101587,5.775477 l -3.495079,3.4870928 h -0.47831 -0.478311 L 7.1548092,5.775477 C 4.8485996,3.4745414 3.5695841,2.2663243 3.3947209,2.2235477 2.6551591,2.0426046 2.0290451,2.6687366 2.2099883,3.4082803 2.2526379,3.5831436 3.4609821,4.862159 5.7619176,7.1683668 l 3.4870947,3.4950782 v 0.479581 0.479581 L 5.8139955,15.06823 c -3.4626375,3.473327 -3.6507403,3.684406 -3.6445424,4.089758 0.010886,0.682485 0.7702331,1.14594 1.3761475,0.839471 z"
       id="path1" />
  </g>
</svg>
