<?xml version="1.0" encoding="UTF-8" standalone="no"?>
<!-- Created with Inkscape (http://www.inkscape.org/) -->

<svg
   width="136.5mm"
   height="137mm"
   viewBox="0 0 136.5 137"
   version="1.1"
   id="svg1"
   xml:space="preserve"
   inkscape:version="1.3 (0e150ed6c4, 2023-07-21)"
   sodipodi:docname="phone.svg"
   xmlns:inkscape="http://www.inkscape.org/namespaces/inkscape"
   xmlns:sodipodi="http://sodipodi.sourceforge.net/DTD/sodipodi-0.dtd"
   xmlns="http://www.w3.org/2000/svg"
   xmlns:svg="http://www.w3.org/2000/svg"><sodipodi:namedview
     id="namedview1"
     pagecolor="#ffffff"
     bordercolor="#000000"
     borderopacity="0.25"
     inkscape:showpageshadow="2"
     inkscape:pageopacity="0.0"
     inkscape:pagecheckerboard="0"
     inkscape:deskcolor="#d1d1d1"
     inkscape:document-units="mm"
     inkscape:zoom="0.51717104"
     inkscape:cx="-54.140696"
     inkscape:cy="399.28764"
     inkscape:window-width="1920"
     inkscape:window-height="1017"
     inkscape:window-x="-8"
     inkscape:window-y="-8"
     inkscape:window-maximized="1"
     inkscape:current-layer="layer1" /><defs
     id="defs1" /><g
     inkscape:label="Warstwa 1"
     inkscape:groupmode="layer"
     id="layer1"><path
       style="fill:#000000"
       d="M 101.47798,136.78429 C 92.48855,135.81563 82.919503,132.56812 71.800093,126.71231 49.991373,115.22718 31.920648,98.847277 17.435794,77.434698 c -3.499544,-5.17328 -5.537137,-8.71491 -8.5972979,-14.94333 -6.446597,-13.12093 -9.19112512,-23.23679 -8.74102112,-32.2179 0.247672,-4.94189 1.94188212,-9.69603 4.66875412,-13.10105 1.51615,-1.8932 11.5147329,-11.9392301 13.2928169,-13.3559001 6.214476,-4.951313 12.364295,-4.995447 18.314736,-0.131434 2.001017,1.635674 18.146841,17.8345841 19.572451,19.6368141 2.70265,3.41661 3.72191,7.59941 2.75573,11.30883 -0.95476,3.66558 -2.96524,6.28643 -10.11708,13.18864 -2.304528,2.22408 -4.190049,4.19929 -4.190049,4.38934 0,0.56712 2.611169,5.29426 4.350719,7.87634 3.38685,5.02725 6.7483,9.06982 12.08245,14.53071 7.2658,7.43844 14.09301,12.70645 21.72888,16.76643 l 1.93364,1.02811 5.953727,-5.87987 c 3.27455,-3.23393 6.56503,-6.26545 7.31216,-6.73672 3.95003,-2.49154 8.36103,-2.72837 12.67842,-0.68072 1.90352,0.9028 2.54904,1.49555 12.7229,11.68261 10.14101,10.154162 10.76905,10.839442 11.67305,12.736822 2.11205,4.43293 2.03478,8.01255 -0.26752,12.39385 -0.81765,1.55598 -2.13864,3.06356 -7.62376,8.70062 -3.64911,3.7502 -7.26129,7.29293 -8.02708,7.87274 -1.8877,1.42928 -5.21972,2.99436 -7.80917,3.66805 -2.11667,0.55068 -7.20942,0.87693 -9.62527,0.61661 z m 9.07239,-7.53586 c 3.3999,-1.23717 3.6901,-1.47723 12.06347,-9.979 6.02236,-6.11471 6.67046,-7.05922 6.67046,-9.72122 0,-1.16132 -0.17514,-1.94676 -0.63437,-2.84497 -0.84532,-1.65336 -19.72672,-20.515622 -21.34603,-21.324392 -1.46239,-0.7304 -3.55293,-0.73254 -5.1563,-0.005 -0.85332,0.38704 -3.06357,2.3924 -7.62,6.91358 -3.52992,3.50262 -6.778977,6.547249 -7.220137,6.765849 -1.24798,0.61836 -2.6947,0.78722 -3.91937,0.45745 -0.61596,-0.16586 -2.69319,-1.14962 -4.61606,-2.18614 -7.49713,-4.041269 -14.47031,-9.408759 -21.95825,-16.901969 -8.85143,-8.85766 -13.999597,-15.60687 -17.848423,-23.39915 -1.416552,-2.86793 -1.658323,-3.57548 -1.744817,-5.10621 -0.07145,-1.26441 0.02226,-2.01419 0.324885,-2.59939 0.23391,-0.45233 3.236812,-3.60174 6.673115,-6.99868 6.9598,-6.88007 7.7677,-7.96354 7.78564,-10.44121 0.0199,-2.7469 -0.36425,-3.23279 -10.925096,-13.81903 C 30.646413,7.6011982 29.91763,7.0179482 27.283256,7.0179482 c -2.525549,0 -3.585256,0.79146 -10.837204,8.0940198 -5.99198,6.03379 -6.7976309,6.94973 -7.6920319,8.74496 -0.549471,1.1029 -1.175087,2.84748 -1.390258,3.87684 -1.554016,7.43435 1.351093,19.1625 8.0731979,32.59214 8.977439,17.93542 24.597593,36.427339 41.123133,48.683642 6.81034,5.05094 12.59138,8.6348 20.05263,12.43131 8.19014,4.16739 14.547307,6.53592 20.779567,7.74198 3.98296,0.77078 4.01545,0.77366 7.96254,0.70543 2.92065,-0.0505 3.91215,-0.17253 5.19554,-0.63954 z"
       id="path1" /></g></svg>
