<?xml version="1.0" encoding="UTF-8" standalone="no"?>
<!-- Created with Inkscape (http://www.inkscape.org/) -->

<svg
   width="136mm"
   height="136mm"
   viewBox="0 0 136 136"
   version="1.1"
   id="svg1"
   xml:space="preserve"
   inkscape:version="1.3 (0e150ed6c4, 2023-07-21)"
   sodipodi:docname="process.svg"
   xmlns:inkscape="http://www.inkscape.org/namespaces/inkscape"
   xmlns:sodipodi="http://sodipodi.sourceforge.net/DTD/sodipodi-0.dtd"
   xmlns="http://www.w3.org/2000/svg"
   xmlns:svg="http://www.w3.org/2000/svg"><sodipodi:namedview
     id="namedview1"
     pagecolor="#ffffff"
     bordercolor="#000000"
     borderopacity="0.25"
     inkscape:showpageshadow="2"
     inkscape:pageopacity="0.0"
     inkscape:pagecheckerboard="0"
     inkscape:deskcolor="#d1d1d1"
     inkscape:document-units="mm"
     inkscape:zoom="0.98021825"
     inkscape:cx="216.27836"
     inkscape:cy="214.74809"
     inkscape:window-width="1920"
     inkscape:window-height="1017"
     inkscape:window-x="-8"
     inkscape:window-y="-8"
     inkscape:window-maximized="1"
     inkscape:current-layer="layer1" /><defs
     id="defs1" /><g
     inkscape:label="Warstwa 1"
     inkscape:groupmode="layer"
     id="layer1"><path
       style="fill:#000000"
       d="m 108.34181,135.2071 c -1.49071,-0.54164 -2.54896,-1.41776 -3.34201,-2.76684 -0.68929,-1.17256 -0.73577,-1.46091 -0.86092,-5.34052 l -0.13229,-4.10105 -2.68559,-0.13229 c -3.169034,-0.1561 -3.796704,-0.50964 -3.796704,-2.13847 0,-0.76315 0.16411,-1.12721 0.69713,-1.54649 0.59828,-0.4706 1.06731,-0.54837 3.307304,-0.54837 h 2.61015 l 0.006,-4.96094 c 0.007,-5.55187 0.18857,-6.31922 1.88011,-7.92409 1.55881,-1.47893 2.37513,-1.66705 7.23371,-1.66705 h 4.37412 v -1.75524 c 0,-0.96539 -0.13818,-2.21644 -0.30706,-2.780129 -0.39761,-1.32711 -1.84082,-3.000577 -3.2271,-3.741987 -1.08461,-0.58007 -1.24971,-0.58756 -15.819084,-0.71848 -14.004925,-0.12583 -14.750175,-0.15687 -15.279675,-0.63632 -0.70597,-0.63921 -0.73042,-2.00083 -0.051,-2.84009 l 0.50566,-0.62463 13.980265,-0.0802 c 9.734774,-0.0558 14.462364,0.012 15.567774,0.22349 3.56998,0.68288 6.38639,2.82715 7.86581,5.98861 0.68819,1.470617 0.85862,2.218417 0.98142,4.306166 l 0.14861,2.5265 4.6302,0.13229 c 4.16527,0.119 4.74348,0.19279 5.75824,0.73479 1.30288,0.69589 2.5888,2.33626 2.98506,3.80785 0.17533,0.65113 0.247,4.88136 0.19765,11.66704 -0.0712,9.7916 -0.11697,10.71981 -0.57063,11.57157 -0.69033,1.2961 -1.70798,2.33256 -2.94636,3.00079 -1.02938,0.55546 -1.3551,0.57273 -11.90625,0.63133 -8.41896,0.0468 -11.06207,-0.0176 -11.80436,-0.28726 z m 22.39972,-4.52346 0.64943,-0.64943 v -10.18374 -10.18373 l -0.63863,-0.74235 -0.63863,-0.74236 h -10.33431 -10.33431 l -0.60258,0.60262 -0.60258,0.60263 v 10.33431 10.33431 l 0.74236,0.63859 0.74236,0.63858 h 10.18373 10.18373 z m -12.18286,-4.37832 c -1.31735,-0.57682 -5.57526,-3.64042 -5.92421,-4.2625 -0.6961,-1.24097 0.46709,-2.88681 2.03406,-2.87807 0.24781,0.001 1.1995,0.47763 2.11485,1.05833 0.91536,0.5807 1.76483,1.05582 1.88771,1.05582 0.12289,0 1.20536,-1.63711 2.4055,-3.63802 1.20013,-2.00091 2.41768,-3.84638 2.70566,-4.10104 1.22395,-1.08234 3.37539,-0.13023 3.37539,1.49377 0,0.86417 -5.21992,9.69688 -6.38808,10.80935 -0.79022,0.75256 -1.30314,0.85983 -2.21088,0.46236 z m -50.146889,3.64732 c -7.99898,-5.76221 -10.8029,-7.96245 -10.96373,-8.60328 -0.29903,-1.19143 0.338,-1.99324 3.2504,-4.09114 1.55479,-1.11997 4.29665,-3.11427 6.09303,-4.43177 2.6032,-1.90925 3.44902,-2.39546 4.16718,-2.39546 1.16848,0 1.95939,0.78101 1.95939,1.93487 0,1.0567 -0.41441,1.47403 -4.22048,4.2502 l -2.76527,2.01701 h 12.21167 c 8.5124,0 12.41041,0.0906 12.8677,0.2989 1.2292,0.56006 1.52089,2.60709 0.49311,3.46056 -0.31813,0.26418 -3.2549,0.37156 -12.96084,0.47387 l -12.54949,0.13229 3.19727,2.33261 c 1.7585,1.28294 3.31631,2.55503 3.4618,2.82688 0.68571,1.28125 -0.0341,2.78778 -1.46362,3.06331 -0.67384,0.12989 -1.11807,-0.073 -2.77812,-1.26885 z M 4.4428409,108.61192 c -1.60549,-0.56119 -2.75988,-1.55247 -3.58183002,-3.07572 -0.55398,-1.02664 -0.5734,-1.37719 -0.64849,-11.703856 -0.0507,-6.97182 0.0203,-11.00828 0.20564,-11.69669 0.4102,-1.52338 1.79898002,-3.19347 3.29634002,-3.96404 1.21128,-0.62334 1.61633,-0.67774 5.7522503,-0.77258 l 4.4492198,-0.10202 v -11.42325 c 0,-12.54944 0.0531,-13.07979 1.62191,-16.21128 1.59639,-3.18642 4.57773,-5.82205 8.16368,-7.217027 l 1.72378,-0.670569 13.4262,-0.08121 13.4262,-0.08121 0.66286,0.662863 c 0.98668,0.986683 0.81827,2.678973 -0.32197,3.235473 -0.25871,0.12626 -6.36397,0.2891 -13.56725,0.36186 l -13.09687,0.13229 -1.71979,0.82368 c -2.21097,1.05893 -4.09878,2.94416 -5.13648,5.12945 l -0.81665,1.71979 -0.0764,11.8127 -0.0764,11.8127 4.3097,0.10721 c 4.77213,0.11871 5.71931,0.36193 7.31857,1.87923 1.64658,1.56222 1.87359,2.43911 1.88011,7.26264 l 0.006,4.29947 h 9.38026 c 6.40804,0 9.58812,0.0947 10.03628,0.29891 1.22913,0.56003 1.52088,2.60693 0.49324,3.46055 -0.31265,0.25972 -2.73207,0.37329 -10.09435,0.47388 l -9.68314,0.13229 -0.13229,4.762497 c -0.14081,5.068899 -0.25114,5.537909 -1.65974,7.055169 -0.36007,0.38785 -1.17573,0.98316 -1.81257,1.32292 -1.15139,0.61426 -1.21743,0.61809 -11.74123,0.68108 -9.7223998,0.0582 -10.6974901,0.0234 -11.9866701,-0.4272 z m 22.3568101,-4.37574 0.74236,-0.63856 V 93.263314 82.929004 l -0.60244,-0.60265 -0.60243,-0.60265 -10.15452,-0.0699 -10.1545201,-0.07 -0.81857,0.68877 -0.81856,0.68878 v 10.24466 c 0,10.755146 -0.005,10.709346 1.19062,11.363186 0.35582,0.19462 3.7962803,0.29207 10.5024301,0.29748 l 9.97327,0.008 z m -11.82535,-4.318509 c -0.74955,-0.28857 -5.6886198,-3.553427 -6.0192698,-3.978907 -0.8935,-1.14975 0.19539,-3.23486 1.6893198,-3.23486 0.39683,0 1.46772,0.4864 2.38109,1.08148 0.91296,0.59481 1.77696,1.00914 1.92,0.92073 0.14305,-0.0884 1.30007,-1.88023 2.57116,-3.98184 2.36693,-3.91347 2.8536,-4.39149 4.24309,-4.16767 0.31222,0.0503 0.78252,0.32885 1.0451,0.619 0.94944,1.04912 0.62393,1.95041 -2.62607,7.27108 -3.28447,5.377097 -3.8645,5.986836 -5.20442,5.470987 z m 47.73113,-4.126437 c -0.62249,-0.53545 -0.79029,-1.02981 -1.27153,-3.74623 l -0.55439,-3.12938 -2.39622,-1.21471 c -1.31792,-0.66809 -3.03157,-1.68382 -3.8081,-2.25717 l -1.41188,-1.04246 -3.28749,1.14684 -3.28749,1.14684 -0.70962,-0.52444 c -0.7708,-0.56964 -5.07525,-7.82808 -5.07525,-8.5582 0,-0.66778 0.83681,-1.61131 3.11248,-3.50944 l 2.0469,-1.70732 -0.0179,-4.53698 -0.0179,-4.53698 -2.42552,-2.11423 c -1.33403,-1.16284 -2.49695,-2.39885 -2.58425,-2.74671 -0.18209,-0.72548 -0.1902,-0.70785 2.46831,-5.36205 2.58077,-4.51809 2.49454,-4.47787 6.47577,-3.02085 1.63939,0.59998 3.08382,1.0899 3.20985,1.08871 0.12602,-10e-4 0.83366,-0.44863 1.57253,-0.99433 0.73887,-0.54571 2.42169,-1.5389 3.73961,-2.20711 l 2.39622,-1.21492 0.5685,-3.1413 c 0.80562,-4.451519 0.65556,-4.350737 6.47807,-4.350737 h 4.50351 l 0.71667,0.727605 c 0.61167,0.621014 0.78884,1.176905 1.20938,3.794622 l 0.49271,3.06701 1.74683,0.75845 c 0.96076,0.41714 2.69925,1.40555 3.86332,2.19646 l 2.11649,1.43802 2.38143,-0.86104 c 4.10352,-1.48368 3.9955,-1.46167 4.74907,-0.96791 0.77158,0.50556 1.24712,1.2229 3.58702,5.41093 1.43731,2.57255 1.63943,3.09512 1.42878,3.69409 -0.13495,0.38372 -1.30338,1.60978 -2.59652,2.72459 l -2.35116,2.02693 -0.0273,4.56397 -0.0273,4.56396 2.0469,1.70722 c 2.27298,1.89577 3.11248,2.84155 3.11248,3.50652 0,0.51834 -3.79406,7.28198 -4.55868,8.12671 -0.87916,0.97128 -1.54693,0.94521 -4.57643,-0.17864 -1.56524,-0.58066 -2.94354,-1.05575 -3.06288,-1.05575 -0.11934,0 -1.14432,0.63003 -2.27773,1.40006 -1.13341,0.77004 -2.84681,1.74136 -3.80757,2.15851 l -1.74683,0.75844 -0.49272,3.06702 c -0.42053,2.61771 -0.5977,3.1736 -1.20938,3.79462 l -0.71666,0.7276 h -4.50352 c -4.33543,0 -4.53027,-0.023 -5.22064,-0.61684 z m 7.42253,-4.2118 c 0.0717,-0.32743 0.32246,-1.68561 0.55718,-3.01818 0.49817,-2.82812 0.81482,-3.22841 3.11283,-3.93506 1.82678,-0.56175 4.00281,-1.82804 5.85171,-3.40527 0.73599,-0.62784 1.58174,-1.21835 1.87945,-1.31224 0.33386,-0.1053 1.64463,0.22979 3.42054,0.87444 3.2462,1.17838 2.90438,1.27543 4.24025,-1.20386 l 0.79375,-1.47314 -1.32292,-1.09485 c -0.7276,-0.60216 -1.84223,-1.60155 -2.47695,-2.22085 -1.06265,-1.03684 -1.14128,-1.205 -0.99292,-2.12345 0.41716,-2.58251 0.48433,-6.33749 0.15162,-8.47625 l -0.34973,-2.24815 1.17253,-1.0926 c 0.6449,-0.60093 1.76577,-1.59341 2.49083,-2.20551 l 1.3183,-1.11291 -0.78913,-1.4589 c -1.34551,-2.48752 -1.03441,-2.38686 -3.99263,-1.29187 -1.43953,0.53285 -2.92939,0.969 -3.31078,0.96923 -0.43947,2.7e-4 -1.18964,-0.42759 -2.04816,-1.16815 -1.86601,-1.60964 -4.1912,-2.97461 -6.03091,-3.54037 -2.30322,-0.70831 -2.61933,-1.10745 -3.11768,-3.9366 -0.71111,-4.03708 -0.38356,-3.61348 -2.79418,-3.61348 -1.97002,0 -2.11494,0.0386 -2.23548,0.59531 -0.0709,0.32742 -0.31993,1.66687 -0.5534,2.97656 -0.46301,2.59736 -0.96011,3.40886 -2.24565,3.66597 -1.49451,0.2989 -4.65009,2.01261 -6.4551,3.5056 -1.18285,0.97837 -2.0738,1.51544 -2.51354,1.51516 -0.37466,-2.3e-4 -1.859,-0.43638 -3.29853,-0.96923 -2.97757,-1.10215 -2.67596,-1.20371 -4.0422,1.36114 l -0.7488,1.40572 1.32291,1.10782 c 0.72761,0.6093 1.85056,1.59816 2.49545,2.19747 l 1.17254,1.08964 -0.34973,2.24815 c -0.33271,2.13876 -0.26555,5.89374 0.15162,8.47625 0.14836,0.91845 0.0697,1.08661 -0.99292,2.12345 -0.63472,0.6193 -1.74935,1.61869 -2.47696,2.22085 l -1.32291,1.09485 0.79375,1.47314 c 1.35427,2.51343 1.01325,2.41578 4.22426,1.20967 1.8226,-0.6846 3.04162,-1.00451 3.3974,-0.8916 0.30517,0.0969 1.24573,0.75106 2.09013,1.45377 1.97477,1.64342 3.49598,2.52652 5.6467,3.27804 2.45121,0.85652 2.64764,1.10177 3.14533,3.92693 0.71226,4.04318 0.38436,3.61867 2.79513,3.61867 1.96958,0 2.11507,-0.0387 2.237,-0.59531 z m -4.21389,-11.31955 c -5.45358,-0.94895 -9.30001,-4.77965 -10.39863,-10.3561 -0.37012,-1.87871 -0.36869,-2.26996 0.0154,-4.21969 0.57121,-2.89937 1.54492,-4.77272 3.49359,-6.72139 1.92193,-1.92192 3.87758,-2.93023 6.80003,-3.50598 1.87376,-0.36915 2.26688,-0.36764 4.21532,0.0162 2.84873,0.56123 4.78209,1.56913 6.71213,3.49916 1.93003,1.93004 2.93793,3.8634 3.49916,6.71213 0.38409,1.94957 0.38551,2.34086 0.0154,4.21954 -0.72801,3.69527 -2.52049,6.4813 -5.3994,8.39221 -2.51602,1.67004 -6.1105,2.45851 -8.95301,1.9639 z m 5.37497,-4.76474 c 1.64045,-0.72292 3.57817,-2.66956 4.31063,-4.33046 0.82594,-1.87288 0.82594,-4.79034 0,-6.66321 -0.74325,-1.68538 -2.67041,-3.60407 -4.40142,-4.38207 -1.83714,-0.82571 -4.76023,-0.82352 -6.63889,0.005 -1.68538,0.74325 -3.60407,2.67041 -4.38207,4.40141 -0.82845,1.84324 -0.8283,4.77196 3.3e-4,6.61458 1.05284,2.34123 3.34018,4.27149 5.791,4.88698 1.40595,0.35309 3.87107,0.1065 5.32042,-0.5322 z m 37.876929,-17.43478 c -1.2827,-0.25882 -2.3643,-0.87446 -3.36003,-1.91253 -1.4317,-1.49255 -1.66706,-2.41906 -1.66706,-6.56251 v -3.71266 h -9.538139 c -10.00962,0 -10.76946,-0.0816 -11.19959,-1.20248 -0.32658,-0.85105 -0.1549,-1.89907 0.39227,-2.394537 0.52042,-0.471254 1.19569,-0.51263 10.38489,-0.63632 l 9.828279,-0.132291 0.13229,-5.291667 c 0.12967,-5.186565 0.14677,-5.316284 0.86092,-6.531147 1.48625,-2.528298 3.15122,-3.126144 8.70613,-3.126144 h 3.9267 v -1.728289 c 0,-2.723812 -1.18042,-4.903512 -3.25647,-6.013215 l -1.10915,-0.59287 -33.956239,-0.132292 -33.95624,-0.132292 -0.50574,-0.624624 c -0.70376,-0.869185 -0.6535,-2.187033 0.11079,-2.905042 l 0.61653,-0.579199 34.24232,0.07006 34.242329,0.07006 1.52205,0.713287 c 2.14702,1.006169 4.26677,3.100121 5.27332,5.209159 0.6837,1.432563 0.84654,2.144896 0.95222,4.165354 l 0.12749,2.437264 4.52912,0.08834 c 3.79409,0.074 4.67942,0.168247 5.45517,0.580694 1.29529,0.688673 2.33223,1.706501 3.00079,2.945483 0.55955,1.036946 0.57109,1.285996 0.57109,12.323873 v 11.265545 l -0.80001,1.29398 c -1.01458,1.64105 -2.51208,2.68851 -4.32934,3.02827 -1.59554,0.29831 -19.73172,0.31435 -21.19669,0.0187 z m 21.5425,-4.75934 0.68249,-0.64144 V 42.37493 32.090275 l -0.64943,-0.649432 -0.64943,-0.649432 h -10.18373 -10.18373 l -0.74236,0.638598 -0.74236,0.638597 V 42.36961 c 0,11.010454 -0.0116,10.909234 1.31373,11.458114 0.2961,0.12263 5.0235,0.19861 10.50534,0.16885 l 9.96699,-0.0541 z m -14.92792,-6.07214 c -1.52797,-0.98459 -2.92808,-2.07947 -3.11135,-2.43309 -0.67884,-1.30978 0.31916,-2.891883 1.82423,-2.891883 0.44841,0 1.49847,0.459489 2.51003,1.098343 1.40918,0.88998 1.78574,1.02802 1.98494,0.72761 0.13521,-0.20391 1.20454,-1.951721 2.37628,-3.884026 1.17175,-1.932304 2.41787,-3.701601 2.76915,-3.931771 1.19801,-0.784964 3.0238,0.253974 3.0238,1.720644 0,0.496476 -1.01308,2.435736 -2.93719,5.622393 -1.61545,2.67548 -3.12218,5.07287 -3.34829,5.32754 -0.81276,0.91537 -2.09826,0.57307 -5.0916,-1.35576 z M 3.3304309,30.725265 c -0.96579,-0.579131 -1.69627,-1.284904 -2.23725,-2.161569 l -0.80325002,-1.301674 -0.0775,-10.867385 c -0.069,-9.6708428 -0.0284,-10.9958648 0.36813,-12.0342768 0.61478002,-1.609773 1.97739002,-3.031495 3.55655002,-3.71083203 1.30155,-0.559909 1.55667,-0.570206 12.2560001,-0.494651 l 10.92679,0.07716 1.29469,0.80074503 c 0.80061,0.495162 1.60027,1.29443 2.09543,2.094398 0.79429,1.283229 0.80181,1.331143 0.93304,5.9461304 l 0.13229,4.6524764 2.38125,0.06609 c 3.24191,0.08998 3.53783,0.184681 3.99481,1.278376 0.32184,0.770278 0.33015,1.049524 0.0487,1.636486 -0.51864,1.081639 -1.39609,1.376445 -4.10967,1.38077 l -2.44739,0.0039 v 4.374123 c 0,4.858581 -0.18813,5.674901 -1.66706,7.233706 -1.7917,1.888477 -1.68045,1.873629 -14.08735,1.880109 l -11.1242101,0.0058 z M 26.198621,27.245141 c 0.6219,-0.259847 0.97608,-0.637018 1.18014,-1.25677 0.19608,-0.5955 0.27056,-4.07748 0.22741,-10.63202 l -0.0642,-9.7465188 -0.74236,-0.638377 -0.74236,-0.638376 H 15.873561 5.6898309 l -0.64943,0.649431 -0.64943,0.649432 V 15.794746 c 0,9.795588 0.0193,10.187353 0.53444,10.842231 0.29394,0.373686 0.79995,0.730716 1.12448,0.7934 0.3245203,0.06268 4.7908101,0.130186 9.9251001,0.150003 7.47618,0.02886 9.512,-0.0379 10.22363,-0.335239 z m -13.87015,-6.273026 c -1.38245,-0.886039 -2.7814398,-1.857891 -3.1088598,-2.15967 -1.27385,-1.174093 -0.34171,-3.366866 1.4312398,-3.366866 0.48849,0 1.45304,0.420899 2.46829,1.077087 1.36258,0.88068 1.72513,1.013358 1.9882,0.727604 0.17695,-0.192216 1.29807,-1.9862 2.49136,-3.986632 2.15993,-3.6208894 2.6494,-4.1680594 3.72856,-4.1680594 0.7114,0 2.11371,1.3725074 2.11371,2.0687854 0,0.558332 -5.49917,9.833818 -6.42058,10.829652 -0.91134,0.984933 -1.89503,0.770685 -4.69192,-1.021901 z"
       id="path1" /></g></svg>
