<?xml version="1.0" encoding="UTF-8" standalone="no"?>
<!-- Created with Inkscape (http://www.inkscape.org/) -->

<svg
   width="119.2mm"
   height="89.800003mm"
   viewBox="0 0 119.19999 89.800002"
   version="1.1"
   id="svg1"
   xml:space="preserve"
   inkscape:version="1.3 (0e150ed6c4, 2023-07-21)"
   sodipodi:docname="quotation mark.svg"
   xmlns:inkscape="http://www.inkscape.org/namespaces/inkscape"
   xmlns:sodipodi="http://sodipodi.sourceforge.net/DTD/sodipodi-0.dtd"
   xmlns="http://www.w3.org/2000/svg"
   xmlns:svg="http://www.w3.org/2000/svg"><sodipodi:namedview
     id="namedview1"
     pagecolor="#ffffff"
     bordercolor="#000000"
     borderopacity="0.25"
     inkscape:showpageshadow="2"
     inkscape:pageopacity="0.0"
     inkscape:pagecheckerboard="0"
     inkscape:deskcolor="#d1d1d1"
     inkscape:document-units="mm"
     inkscape:zoom="0.98021825"
     inkscape:cx="157.61796"
     inkscape:cy="160.6785"
     inkscape:window-width="1920"
     inkscape:window-height="1017"
     inkscape:window-x="-8"
     inkscape:window-y="-8"
     inkscape:window-maximized="1"
     inkscape:current-layer="layer1" /><defs
     id="defs1" /><g
     inkscape:label="Warstwa 1"
     inkscape:groupmode="layer"
     id="layer1"><path
       style="fill:#000000"
       d="m 21.539604,89.408639 c -4.092089,-1.15781 -6.596109,-4.66632 -6.26594,-8.77952 0.179441,-2.23547 0.878728,-3.63705 2.971625,-5.95604 3.021944,-3.34841 5.040327,-6.72171 6.390527,-10.68042 0.685941,-2.01114 1.420398,-5.74114 1.420398,-7.21362 v -0.89138 h -6.698282 c -3.684054,0 -7.404757,-0.12904 -8.268228,-0.28675 -5.0349918,-0.91965 -9.2270878,-5.11175 -10.14673577,-10.14674 -0.39208,-2.1466 -0.39208,-32.01975 0,-34.16635 C 1.8626162,6.2528288 6.0547122,2.0607288 11.089704,1.1410788 c 2.146602,-0.39207996 32.019751,-0.39207996 34.166353,0 5.103413,0.93215 9.275473,5.15844 10.164453,10.2965802 0.21077,1.21818 0.26898,8.81954 0.19959,26.06146 -0.0889,22.09461 -0.14096,24.52485 -0.56373,26.32604 -1.60084,6.82029 -4.31478,11.82713 -8.891824,16.40417 -4.617992,4.61799 -10.057838,7.54521 -16.404166,8.82721 -2.953378,0.5966 -6.777719,0.7604 -8.220776,0.3521 z m 8.563831,-9.0374 c 7.607186,-2.20921 13.609163,-8.01517 16.010614,-15.48775 1.079471,-3.35898 1.10883,-4.11934 1.10883,-28.71675 v -23.85707 l -0.601608,-0.89273 c -0.330885,-0.491 -1.003336,-1.16345 -1.494336,-1.4943302 l -0.892727,-0.60161 H 28.17288 12.111553 l -0.892727,0.60161 c -0.491,0.3308802 -1.163451,1.0033302 -1.4943358,1.4943302 l -0.601609,0.89273 v 16.06133 16.06132 l 0.601609,0.89273 c 0.3308848,0.491 1.0033358,1.16345 1.4943358,1.49434 0.887081,0.5978 0.952366,0.6016 10.322536,0.6016 9.252883,0 9.45196,0.0112 10.610352,0.59532 0.854082,0.43069 1.351738,0.92456 1.799623,1.78593 0.596555,1.14731 0.613359,1.34467 0.461817,5.42396 -0.358979,9.66319 -3.071269,16.89775 -8.968411,23.92168 l -1.868771,2.22584 2.100017,-0.16328 c 1.155009,-0.0898 3.14736,-0.46745 4.427446,-0.8392 z m 54.936165,9.0374 c -4.09209,-1.15781 -6.59611,-4.66632 -6.26594,-8.77952 0.17944,-2.23547 0.87873,-3.63705 2.97163,-5.95604 3.02194,-3.34841 5.04032,-6.72171 6.39053,-10.68042 0.68594,-2.01114 1.42039,-5.74114 1.42039,-7.21362 v -0.89138 h -6.69828 c -3.68405,0 -7.40476,-0.12904 -8.26823,-0.28675 -5.03499,-0.91965 -9.22709,-5.11175 -10.14673,-10.14674 -0.39208,-2.1466 -0.39208,-32.01975 0,-34.16635 0.91964,-5.0349902 5.11174,-9.2270902 10.14673,-10.1467402 2.1466,-0.39207996 32.01975,-0.39207996 34.16636,0 5.1034,0.93215 9.27546,5.15844 10.16445,10.2965802 0.21076,1.21818 0.26898,8.81954 0.19959,26.06146 -0.0889,22.09461 -0.14096,24.52485 -0.56373,26.32604 -1.60085,6.82029 -4.31479,11.82713 -8.89183,16.40417 -4.61799,4.61799 -10.05783,7.54521 -16.40416,8.82721 -2.95338,0.5966 -6.77772,0.7604 -8.22078,0.3521 z m 8.56383,-9.0374 c 7.60719,-2.20921 13.60917,-8.01517 16.01062,-15.48775 1.07947,-3.35898 1.10883,-4.11934 1.10883,-28.71675 v -23.85707 l -0.60161,-0.89273 c -0.33089,-0.491 -1.00334,-1.16345 -1.49434,-1.4943302 l -0.89272,-0.60161 H 91.67288 75.61155 l -0.89273,0.60161 c -0.491,0.3308802 -1.16345,1.0033302 -1.49433,1.4943302 l -0.60161,0.89273 v 16.06133 16.06132 l 0.60161,0.89273 c 0.33088,0.491 1.00333,1.16345 1.49433,1.49434 0.88709,0.5978 0.95237,0.6016 10.32254,0.6016 9.25288,0 9.45196,0.0112 10.61035,0.59532 0.85408,0.43069 1.35174,0.92456 1.79963,1.78593 0.59655,1.14731 0.61336,1.34467 0.46181,5.42396 -0.35898,9.66319 -3.07127,16.89775 -8.96841,23.92168 l -1.86877,2.22584 2.10002,-0.16328 c 1.15501,-0.0898 3.14736,-0.46745 4.42744,-0.8392 z"
       id="path1" /></g></svg>
