<?xml version="1.0" encoding="UTF-8" standalone="no"?>
<!-- Created with Inkscape (http://www.inkscape.org/) -->

<svg
   width="137mm"
   height="110mm"
   viewBox="0 0 137 110"
   version="1.1"
   id="svg1"
   xml:space="preserve"
   inkscape:version="1.3 (0e150ed6c4, 2023-07-21)"
   sodipodi:docname="roadmap.svg"
   xmlns:inkscape="http://www.inkscape.org/namespaces/inkscape"
   xmlns:sodipodi="http://sodipodi.sourceforge.net/DTD/sodipodi-0.dtd"
   xmlns="http://www.w3.org/2000/svg"
   xmlns:svg="http://www.w3.org/2000/svg"><sodipodi:namedview
     id="namedview1"
     pagecolor="#ffffff"
     bordercolor="#000000"
     borderopacity="0.25"
     inkscape:showpageshadow="2"
     inkscape:pageopacity="0.0"
     inkscape:pagecheckerboard="0"
     inkscape:deskcolor="#d1d1d1"
     inkscape:document-units="mm"
     inkscape:zoom="0.69311897"
     inkscape:cx="150.04639"
     inkscape:cy="305.14242"
     inkscape:window-width="1920"
     inkscape:window-height="1017"
     inkscape:window-x="-8"
     inkscape:window-y="-8"
     inkscape:window-maximized="1"
     inkscape:current-layer="layer1" /><defs
     id="defs1" /><g
     inkscape:label="Warstwa 1"
     inkscape:groupmode="layer"
     id="layer1"><path
       style="fill:#000000"
       d="m 41.738795,109.10595 c -3.003851,-0.73144 -5.906825,-3.02716 -7.025343,-5.55576 l -0.513476,-1.16079 -4.564965,-0.12908 c -3.615946,-0.10224 -4.967949,-0.24735 -6.503399,-0.69801 C 13.917653,98.857961 7.3766721,91.665301 5.6024881,82.286751 c -0.461082,-2.43733 -0.174175,-8.16809 0.530841,-10.60314 2.160709,-7.46288 7.6853369,-13.54105 14.6854029,-16.15681 3.754872,-1.40311 4.038253,-1.43023 16.65679,-1.59419 l 11.876309,-0.15432 0.370533,-1.44879 c 1.396252,-5.45938 7.266677,-8.83872 12.674934,-7.29639 3.729412,1.06355 6.729467,4.2658 7.397977,7.89656 l 0.18476,1.00345 16.30646,-0.0861 c 18.031125,-0.0952 17.318725,-0.0322 21.290465,-1.88346 4.97992,-2.32125 8.77954,-6.74178 10.49343,-12.20821 0.78709,-2.51041 0.99335,-6.98149 0.44159,-9.57212 -1.76692,-8.29612 -8.17627,-14.35927 -16.58048,-15.6849 -0.94588,-0.1492 -4.962235,-0.27217 -8.925225,-0.27327 l -7.20544,-0.002 -0.6879,1.35749 c -0.92443,1.82428 -2.82682,3.67124 -4.75075,4.61231 -1.44157,0.70514 -1.82788,0.77385 -4.35985,0.77539 -2.46641,0.001 -2.94891,-0.0784 -4.30018,-0.7116 -1.95881,-0.91797 -4.16365,-3.00993 -4.956541,-4.70279 l -0.623316,-1.3308 -22.642792,6.3e-4 -22.642793,6.2e-4 -0.754021,1.44309 c -0.951316,1.82067 -2.922773,3.67757 -4.876824,4.59343 -1.339868,0.628 -1.83065,0.7091 -4.291029,0.7091 -2.4464969,0 -2.9518359,-0.0824 -4.2333339,-0.69058 -2.211659,-1.04956 -3.814472,-2.62698 -4.894345,-4.8168 C -1.3133379,9.1751912 2.2724971,2.0961512 9.2535091,0.72272119 14.367303,-0.28334881 19.659676,3.2250912 20.98844,8.5020912 l 0.307968,1.22305 h 22.164143 22.164143 l 0.185743,-0.99219 c 0.95433,-5.09777 6.565178,-8.96548001 11.644088,-8.02659001 2.0935,0.38700001 4.09874,1.35076001 5.5023,2.64452001 1.3524,1.2466 2.73521,3.67208 2.98535,5.23638 l 0.1725,1.07872 8.23914,0.13108 c 9.439335,0.15017 10.855645,0.3768498 15.106785,2.4178898 6.6364,3.18623 11.24049,8.71692 13.16095,15.80967 0.85877,3.17163 0.85739,8.90378 -0.003,12.1276 -2.53085,9.48381 -10.60882,16.65596 -20.24325,17.97327 -1.27276,0.17402 -8.009675,0.28298 -17.496545,0.28298 h -15.42688 l -0.34345,0.82915 c -0.567861,1.37094 -2.297141,3.35339 -3.764101,4.31517 -3.051327,2.00055 -6.926583,2.26436 -10.1259,0.68934 -1.890776,-0.93082 -4.376812,-3.41437 -4.919175,-4.91425 l -0.341315,-0.94389 -12.047109,0.0883 c -13.509712,0.099 -13.302641,0.0739 -17.471067,2.11545 -1.849923,0.90603 -2.696962,1.5498 -4.773904,3.6283 -4.141964,4.14507 -5.8573229,8.21693 -5.8573229,13.90392 0,7.60825 3.9322359,14.08603 10.6876579,17.60633 2.766884,1.44184 5.363721,2.05831 9.556947,2.26875 l 3.487982,0.17505 0.583936,-1.95527 c 0.967326,-3.23903 3.230558,-5.68114 6.348342,-6.85009 2.195812,-0.82328 5.666533,-0.68313 7.805307,0.31517 2.922053,1.36392 5.347245,4.42774 5.876451,7.42392 l 0.175247,0.99218 h 25.885074 25.885085 l 0.35463,-0.85989 c 0.48555,-1.17731 2.25293,-3.04583 3.46664,-3.66502 l 1.00274,-0.51156 -0.0191,-15.18795 c -0.0127,-10.0379 0.0741,-15.36217 0.25581,-15.70173 0.15123,-0.28257 0.64524,-0.66714 1.0978,-0.8546 1.11946,-0.4637 2.54887,0.17946 2.78442,1.25285 0.0887,0.40436 0.20719,0.88402 0.26322,1.06592 0.0791,0.2567 2.26815,0.33073 9.77951,0.33073 h 9.67763 l 0.64943,0.64944 c 1.09391,1.09391 0.87476,1.8408 -1.57604,5.3714 l -2.22547,3.20598 2.2438,3.25795 c 1.99891,2.90236 2.22834,3.35701 2.10206,4.16566 -0.2786,1.78402 0.0676,1.72415 -10.81814,1.87041 l -9.84657,0.13229 -0.0717,5.2173 -0.0717,5.21731 0.99775,0.51496 c 1.18987,0.61412 2.73627,2.18749 3.41074,3.47022 0.76307,1.45122 0.6822,4.530009 -0.16248,6.185669 -2.53908,4.97684 -9.52582,5.19317 -12.51321,0.38746 l -0.7966,-1.28146 H 79.984255 53.882781 l -0.590641,1.21571 c -1.338151,2.75432 -4.401649,5.09023 -7.42227,5.65946 -1.751254,0.33003 -2.438303,0.31363 -4.131075,-0.0986 z m 5.382929,-5.11174 c 2.352989,-1.45474 3.349469,-4.810699 2.187825,-7.368179 -1.009706,-2.22298 -4.007817,-3.88292 -6.170012,-3.41612 -4.946763,1.06798 -6.648397,6.7136 -3.053685,10.131399 1.907394,1.81353 4.734306,2.07585 7.035872,0.6529 z m 67.794716,-2.17369 c 1.22969,-1.22969 0.92762,-3.357529 -0.58789,-4.141229 -2.71622,-1.40461 -5.30584,1.99238 -3.15698,4.141229 0.60655,0.60656 1.01048,0.7734 1.87243,0.7734 0.86195,0 1.26588,-0.16684 1.87244,-0.7734 z m 13.18055,-25.833209 c -1.77326,-2.56511 -1.77453,-3.00772 -0.0158,-5.52661 0.75186,-1.07685 1.36702,-2.02842 1.36702,-2.11459 0,-0.0862 -3.18492,-0.12496 -7.07761,-0.0862 l -7.0776,0.0705 -0.0721,4.82865 -0.0721,4.82865 h 7.16555 7.16556 z M 61.921772,60.378841 c 2.184765,-0.91263 3.586488,-3.04755 3.566122,-5.43145 -0.03876,-4.53771 -4.786242,-7.26179 -8.721945,-5.0046 -3.006988,1.72455 -3.842816,5.36301 -1.904298,8.28964 1.462683,2.20825 4.61664,3.16711 7.060121,2.14641 z M 12.657369,16.480071 c 1.405698,-0.41745 2.900552,-1.74194 3.652275,-3.23603 0.247645,-0.49221 0.426028,-1.49954 0.426028,-2.40578 0,-5.0302098 -5.891511,-7.6663998 -9.6204029,-4.3047198 -3.615702,3.25965 -2.149349,8.9295798 2.608944,10.0879798 1.2078619,0.29405 1.5168399,0.27915 2.9331559,-0.14145 z m 65.593926,-0.19963 c 1.34365,-0.68982 2.35739,-1.70913 2.9363,-2.95243 1.11728,-2.39952 0.70483,-4.6034498 -1.22404,-6.5407098 -2.07663,-2.08567 -4.85887,-2.34217 -7.33016,-0.67578 -2.23933,1.50998 -3.16555,4.5992998 -2.12145,7.0758798 0.5695,1.35084 2.2055,2.83468 3.61838,3.28183 1.2556,0.39738 3.14808,0.31068 4.12097,-0.18879 z"
       id="path1" /></g></svg>
