<?xml version="1.0" encoding="UTF-8" standalone="no"?>
<!-- Created with Inkscape (http://www.inkscape.org/) -->

<svg
   width="137mm"
   height="137mm"
   viewBox="0 0 137 137"
   version="1.1"
   id="svg1"
   xml:space="preserve"
   inkscape:version="1.3 (0e150ed6c4, 2023-07-21)"
   sodipodi:docname="stonks 2.svg"
   xmlns:inkscape="http://www.inkscape.org/namespaces/inkscape"
   xmlns:sodipodi="http://sodipodi.sourceforge.net/DTD/sodipodi-0.dtd"
   xmlns="http://www.w3.org/2000/svg"
   xmlns:svg="http://www.w3.org/2000/svg"><sodipodi:namedview
     id="namedview1"
     pagecolor="#ffffff"
     bordercolor="#000000"
     borderopacity="0.25"
     inkscape:showpageshadow="2"
     inkscape:pageopacity="0.0"
     inkscape:pagecheckerboard="0"
     inkscape:deskcolor="#d1d1d1"
     inkscape:document-units="mm"
     inkscape:zoom="0.49010913"
     inkscape:cx="396.85039"
     inkscape:cy="562.11971"
     inkscape:window-width="1403"
     inkscape:window-height="763"
     inkscape:window-x="536"
     inkscape:window-y="194"
     inkscape:window-maximized="0"
     inkscape:current-layer="layer1" /><defs
     id="defs1" /><g
     inkscape:label="Warstwa 1"
     inkscape:groupmode="layer"
     id="layer1"><path
       style="fill:#000000"
       d="m 3.0558546,135.75946 c -1.242183,-0.61489 -2.22877399,-2.13519 -2.22877399,-3.43447 0,-1.21756 0.95529499,-2.75506 2.11773599,-3.40839 0.823368,-0.46276 1.440056,-0.56036 3.540684,-0.56036 h 2.543663 V 115.3065 c 0,-14.78199 -0.0049,-14.74053 1.9774124,-16.722849 1.800878,-1.80087 2.687279,-1.97741 9.928837,-1.97741 7.241558,0 8.12796,0.17654 9.928837,1.97741 1.982315,1.982319 1.977413,1.940859 1.977413,16.722849 v 13.04974 h 3.968749 3.96875 V 110.544 c 0,-20.096719 -0.05968,-19.448249 1.977412,-21.485349 1.800878,-1.80087 2.687279,-1.97741 9.928838,-1.97741 7.241555,0 8.127955,0.17654 9.928835,1.97741 2.0371,2.0371 1.97741,1.38863 1.97741,21.485349 v 17.81224 h 3.96875 3.96875 v -25.08828 c 0,-28.232419 -0.10693,-26.677039 1.97742,-28.761389 1.80087,-1.80088 2.68728,-1.97741 9.92883,-1.97741 7.24156,0 8.12796,0.17653 9.92884,1.97741 2.08435,2.08435 1.97741,0.52897 1.97741,28.761389 v 25.08828 h 3.968753 3.96875 V 90.038791 c 0,-43.04434 -0.1498,-39.86334 1.97741,-41.99055 1.80088,-1.80088 2.68728,-1.97741 9.92884,-1.97741 7.24156,0 8.12796,0.17653 9.92884,1.97741 2.12721,2.12721 1.97741,-1.05379 1.97741,41.99055 v 38.317449 h 2.54366 c 3.09953,0 4.2941,0.52376 5.12923,2.24891 0.66876,1.38148 0.66564,2.06466 -0.0159,3.47249 -0.39574,0.81748 -0.85355,1.27529 -1.67104,1.67103 l -1.12596,0.54507 -64.408653,-2.1e-4 C 4.4782486,136.29332 4.1286146,136.29053 3.0558546,135.75946 Z M 24.904163,116.44999 v -11.90625 h -3.96875 -3.968749 v 11.90625 11.90625 h 3.968749 3.96875 z m 31.749998,-4.7625 V 95.018741 h -3.968749 -3.96875 v 16.668749 16.66875 h 3.96875 3.968749 z m 31.749996,-7.27604 V 80.466661 h -3.96875 -3.96875 v 23.944789 23.94479 h 3.96875 3.96875 z M 120.15416,91.182281 v -37.17395 h -3.96875 -3.96875 v 37.17395 37.173959 h 3.96875 3.96875 z M 3.0485906,85.644721 c -1.949086,-0.84845 -2.79687199,-3.92685 -1.543703,-5.60533 1.265407,-1.69488 1.552107,-1.77849 6.798048,-1.98252 8.0310604,-0.31237 14.5589554,-1.23426 22.4220604,-3.16654 32.762111,-8.05094 65.793641,-31.01895 84.064124,-58.45283 2.61847,-3.93174 3.37516,-5.29201 2.94278,-5.29008 -0.19573,8.8e-4 -3.66746,0.89384 -7.71496,1.98438 -4.4007,1.18569 -7.87595,1.98278 -8.6448,1.98278 -3.826133,0 -5.088163,-5.2536197 -1.722293,-7.1695797 0.915613,-0.52119 24.325323,-6.8795 25.961153,-7.05130999 1.2084,-0.12691 2.26625,0.30556999 3.20412,1.30994999 0.86684,0.92833 7.62066,26.2260397 7.3652,27.5877797 -0.40595,2.16388 -2.75397,3.63179 -4.88949,3.05675 -0.85415,-0.23 -2.67001,-1.7638 -2.67001,-2.25528 0,-0.14827 -3.68291,-13.91077 -3.85018,-14.3876 -0.0721,-0.2056 -1.49979,1.69751 -3.27498,4.36563 -5.31857,7.99384 -10.90019,14.67845 -18.31443,21.93357 -17.132103,16.76444 -38.527843,29.90107 -60.527223,37.16272 -9.844279,3.24944 -19.497141,5.23822 -29.523802,6.0828 -4.5010084,0.37913 -9.0786124,0.33133 -10.0816144,-0.10529 z"
       id="path1" /></g></svg>
