<?xml version="1.0" encoding="UTF-8" standalone="no"?>
<!-- Created with Inkscape (http://www.inkscape.org/) -->

<svg
   width="131mm"
   height="137mm"
   viewBox="0 0 131 137"
   version="1.1"
   id="svg1"
   xml:space="preserve"
   inkscape:version="1.3 (0e150ed6c4, 2023-07-21)"
   sodipodi:docname="stonks 1.svg"
   xmlns:inkscape="http://www.inkscape.org/namespaces/inkscape"
   xmlns:sodipodi="http://sodipodi.sourceforge.net/DTD/sodipodi-0.dtd"
   xmlns="http://www.w3.org/2000/svg"
   xmlns:svg="http://www.w3.org/2000/svg"><sodipodi:namedview
     id="namedview1"
     pagecolor="#ffffff"
     bordercolor="#000000"
     borderopacity="0.25"
     inkscape:showpageshadow="2"
     inkscape:pageopacity="0.0"
     inkscape:pagecheckerboard="0"
     inkscape:deskcolor="#d1d1d1"
     inkscape:document-units="mm"
     inkscape:zoom="0.49010913"
     inkscape:cx="396.85039"
     inkscape:cy="562.11971"
     inkscape:window-width="1403"
     inkscape:window-height="763"
     inkscape:window-x="536"
     inkscape:window-y="194"
     inkscape:window-maximized="0"
     inkscape:current-layer="layer1" /><defs
     id="defs1" /><g
     inkscape:label="Warstwa 1"
     inkscape:groupmode="layer"
     id="layer1"><path
       style="fill:#000000"
       d="m 37.137876,135.79093 c -2.44895,-0.64097 -4.34546,-2.7448 -4.37373,-4.85184 -0.004,-0.3321 1.02707,-4.68205 2.29228,-9.66657 1.26521,-4.98451 2.24941,-9.11372 2.18711,-9.17602 -0.0623,-0.0623 -0.945,0.12512 -1.96155,0.41649 -2.38745,0.68431 -5.86027,0.55159 -8.19828,-0.31333 -4.51739,-1.67114 -7.7549,-5.16251 -9.02574,-9.73346 l -0.44254,-1.59173 -4.93015,-0.0863 -4.9301498,-0.0863 -1.76501,-0.869616 c -3.05892,-1.50705 -4.76537,-4.00064 -5.25299098,-7.67595 -0.175031,-1.31927 -0.242388,-13.04512 -0.191048,-33.25852 l 0.0793,-31.22083 0.60953098,-1.50856 c 1.23055,-3.04553 4.54257,-5.64112 7.60093,-5.95677 l 1.4468298,-0.14933 v -0.992 c 0,-1.60633 0.57683,-2.03493 3.55371,-2.64051 1.44521,-0.294 2.667,-0.57388 2.71507,-0.62196 0.0481,-0.0481 -0.56664,-1.08813 -1.36605,-2.31123 -2.08981,-3.19743 -2.08266,-3.23131 1.40773,-6.67082 2.11931,-2.08842 3.0455,-2.82903 3.53793,-2.82903 0.36688,0 1.59811,0.60781 2.73608,1.35068 1.13797,0.74288 2.20356,1.4023 2.36797,1.46539 0.19078,0.0732 0.48181,-0.82232 0.8044,-2.47516 0.73974,-3.79026002 0.72541,-3.78049002 5.54749,-3.78049002 2.12623,0 4.07984,0.11451 4.34136,0.25447 0.6024,0.32240002 0.92857,1.17705002 1.49804,3.92529002 0.29165,1.40745 0.56444,2.15336 0.76009,2.07829 0.16784,-0.0644 1.23623,-0.72491 2.3742,-1.46779 1.13797,-0.74287 2.37523,-1.35068 2.74947,-1.35068 1.00459,0 6.39543,5.42149 6.39543,6.43179 0,0.41984 -0.60855,1.66011 -1.46889,2.99375 -0.80789,1.25233 -1.4249,2.32095 -1.37113,2.37472 0.0538,0.0538 1.04218,0.28507 2.19649,0.51401 3.60421,0.71485 4.08311,1.05286 4.08311,2.88188 v 0.94343 h 26.39218 l 26.392192,-10e-6 0.73939,-0.92667 c 0.40667,-0.50967 1.24011,-1.19428 1.85209,-1.52135 1.08135,-0.57793 1.33251,-0.59468 8.9179,-0.59468 7.48559,0 7.84854,0.0233 8.86354,0.56957 1.33415,0.718 2.09691,1.5326 2.69076,2.87363 0.39463,0.89115 0.48224,2.06216 0.56488,7.55082 0.10592,7.03422 -0.10059,9.05318 -1.07313,10.49174 -1.39597,2.06487 -4.03529,3.03017 -6.40307,2.34184 -1.57154,-0.45686 -3.1739,-1.8496 -3.77036,-3.27713 l -0.38694,-0.92607 -14.86107,14.83265 c -8.173592,8.15796 -15.121132,14.96411 -15.438992,15.12478 -0.80444,0.40663 -2.35446,0.3646 -3.20553,-0.0869 -0.39296,-0.20848 -2.91618,-2.58999 -5.60717,-5.29226 l -4.89269,-4.9132 -8.46876,8.44158 c -4.65782,4.64287 -8.88548,8.65234 -9.3948,8.90994 -0.58474,0.29574 -1.52864,0.46976 -2.56104,0.47216 -1.35315,0.003 -1.85285,-0.13089 -2.89872,-0.7775 -2.42789,-1.50105 -3.4395,-4.86053 -2.21937,-7.37032 0.31125,-0.64023 2.55277,-3.10197 5.5368,-6.08076 4.37009,-4.36243 5.12012,-5.00504 5.84173,-5.00504 1.0793,0 1.94504,0.86574 1.94504,1.94504 0,0.72135 -0.63569,1.46426 -4.93889,5.77193 -4.32893,4.33343 -4.93889,5.04754 -4.93889,5.78217 0,0.93803 1.00012,1.93489 1.94121,1.93489 0.36488,0 3.5013,-2.94336 9.42317,-8.84315 7.61999,-7.59158 9.01374,-8.86838 9.84775,-9.0214 2.03016,-0.37248 2.41159,-0.11546 7.89942,5.32289 l 5.16676,5.12017 16.264492,-16.27312 c 8.94547,-8.95022 16.53238,-16.34204 16.8598,-16.42627 0.8947,-0.23017 1.86279,0.10267 2.23162,0.76724 0.18077,0.3257 0.39257,1.65159 0.47066,2.94642 0.13077,2.1682 0.19816,2.39605 0.85275,2.88335 0.61893,0.46076 0.81254,0.48695 1.49865,0.20275 1.30232,-0.53943 1.39637,-1.14716 1.30953,-8.46121 -0.0791,-6.6613 -0.0815,-6.68566 -0.70398,-7.18935 -0.57825,-0.46788 -1.12458,-0.5054 -7.35958,-0.5054 -4.24135,0 -6.92913,0.10392 -7.25939,0.28067 -0.77989,0.41738 -1.11644,1.51355 -0.74215,2.41718 0.35972,0.86843 0.66791,0.95858 3.6424,1.0655 1.9473,0.07 2.26829,0.15295 2.71197,0.70087 1.14748,1.41708 1.44761,1.06042 -13.45352,15.9871 -7.676222,7.68939 -14.278282,14.15115 -14.671232,14.35948 -0.91465,0.48491 -2.4193,0.48479 -3.33357,-2.7e-4 -0.39296,-0.20847 -2.91372,-2.58752 -5.60169,-5.28677 l -4.88723,-4.90773 -3.33759,3.3024 c -2.85791,2.82777 -3.45792,3.3024 -4.17476,3.3024 -1.08463,0 -1.89549,-0.81151 -1.89549,-1.89703 0,-0.72315 0.50062,-1.34392 3.63363,-4.5058 5.74782,-5.80076 5.64656,-5.81075 12.77489,1.26096 l 5.1704,5.12933 9.25131,-9.25415 9.251312,-9.25414 H 77.154688 c -20.50218,0 -27.4491,0.077 -27.4491,0.30412 0,0.16727 -1.27307,1.59602 -2.82903,3.175 -3.43467,3.48548 -3.46203,3.49124 -6.69597,1.40967 -1.23693,-0.79616 -2.27517,-1.35864 -2.30721,-1.24995 -0.032,0.10869 -0.30305,1.32871 -0.60225,2.71116 -0.75617,3.4939 -0.66616,3.43958 -5.69961,3.43958 -3.94088,0 -4.06603,-0.0172 -4.54259,-0.62302 -0.26954,-0.34266 -0.71293,-1.74164 -0.98532,-3.10885 -0.27239,-1.36721 -0.52611,-2.5248 -0.56383,-2.57243 -0.0377,-0.0476 -1.06041,0.57745 -2.27267,1.38906 -3.19794,2.14104 -3.31092,2.11981 -6.72271,-1.26316 -1.51918,-1.50635 -2.76215,-2.93792 -2.76215,-3.18125 0,-0.39921 -0.4458,-0.43535 -4.5640598,-0.37003 l -4.56406,0.0724 v 29.50104 29.50104 l 0.66146,1.17888 c 0.3638,0.64838 1.17727,1.54135 1.80771,1.98437 l 1.14626,0.8055 4.6829898,0.0822 4.68299,0.0822 0.56977,-1.93429 c 1.46489,-4.97316 5.67851,-8.79122 10.92278,-9.89738 7.05655,-1.48843 14.42387,3.17639 16.24298,10.28468 l 0.35382,1.38258 36.35004,0.0716 c 40.575222,0.0799 37.684632,0.21084 39.490602,-1.78815 0.50889,-0.56328 1.05158,-1.47906 1.20597,-2.03506 0.18756,-0.67545 0.2812,-8.36434 0.28219,-23.16977 0.001,-21.80507 0.01,-22.1673 0.53064,-22.68802 0.79176,-0.79176 2.2041,-0.70555 2.89824,0.1769 l 0.55539,0.70607 -0.0732,22.7757 -0.0732,22.7757 -0.70909,1.51291 c -0.99302,2.11866 -2.79058,3.94771 -4.78516,4.86897 l -1.6495,0.761866 -16.22107,0.074 c -15.198822,0.0693 -16.212522,0.10266 -16.085252,0.52917 1.16765,3.9132 7.3032,28.85856 7.3032,29.69268 0,2.73324 -2.59244,4.90324 -5.82083,4.87232 -1.0464,-0.01 -2.04111,-0.18505 -2.54041,-0.44701 -0.91661,-0.48091 -2.36119,-2.01894 -2.58788,-2.7553 -0.21677,-0.70415 -8.10088,-31.56661 -8.10088,-31.71104 0,-0.0674 -1.48828,-0.12249 -3.30729,-0.12249 h -3.30729 v 15.52688 c 0,15.30817 -0.008,15.5433 -0.56428,16.69252 -1.49575,3.08981 -5.47084,3.86285 -8.0806,1.57145 -1.99315,-1.75001 -1.92613,-1.11268 -1.93264,-18.37887 l -0.006,-15.41198 -3.24115,3.6e-4 -3.24115,3.7e-4 -4.08332,16.01678 c -2.94093,11.53575 -4.25736,16.27288 -4.70536,16.93218 -1.09816,1.61609 -3.92525,2.55736 -6.02798,2.007 z m 2.58931,-4.20257 c 0.23991,-0.2651 2.08636,-6.97375 4.27434,-15.52988 2.11858,-8.28475 3.85197,-15.09941 3.85197,-15.14371 0,-0.0443 -0.47166,-0.0805 -1.04813,-0.0805 -1.0115,0 -1.05821,0.0393 -1.33639,1.12448 -0.47695,1.86061 -1.03994,3.1577 -2.09582,4.82864 -0.90218,1.42771 -1.29071,2.72594 -3.85977,12.89722 -2.77715,10.99517 -2.84325,11.32448 -2.37661,11.84011 0.60174,0.66491 2.01486,0.69965 2.59041,0.0637 z m 24.81246,0.19282 c 0.49693,-0.26596 0.51177,-0.71844 0.51177,-15.61042 v -15.33652 h -1.32292 -1.32292 v 15.12656 c 0,13.70413 0.0412,15.17206 0.43789,15.61042 0.49683,0.54899 0.95639,0.60588 1.69618,0.20996 z m 25.76058,-0.14188 c 0.22867,-0.22868 0.41781,-0.61563 0.42031,-0.8599 0.002,-0.24427 -1.68892,-7.08186 -3.75871,-15.19464 l -3.76324,-14.75052 h -1.77072 -1.77072 l 2.75633,10.78177 c 1.51599,5.92997 3.24749,12.7463 3.84779,15.14739 0.60029,2.4011 1.27132,4.57399 1.49118,4.82865 0.49996,0.57911 1.98831,0.60671 2.54778,0.0472 z m -54.55986,-23.46017 c 1.99597,-0.91467 4.03399,-2.85859 5.06072,-4.82705 0.7762,-1.48815 0.83041,-1.7727 0.83249,-4.369926 0.002,-2.45802 -0.0789,-2.95114 -0.70169,-4.27967 -2.9819,-6.36096 -10.97593,-7.95982 -16.0962,-3.21936 -5.84491,5.41136 -3.64757,14.627996 4.1001,17.197646 1.71255,0.56799 4.99918,0.3257 6.80458,-0.50164 z m -5.37556,-5.19623 c -0.55319,-0.44795 -0.62462,-0.76176 -0.72131,-3.169176 -0.12884,-3.20778 0.0559,-4.36378 0.80958,-5.06595 0.7269,-0.67721 1.53774,-0.67041 2.41578,0.0203 0.69129,0.54377 0.69714,0.57818 0.69714,4.10104 0,3.199896 -0.0525,3.605216 -0.52916,4.081846 -0.66549,0.66548 -1.87186,0.67993 -2.67203,0.032 z m 3.18027,-64.524176 c 0.14523,-0.54571 0.34429,-1.50233 0.44235,-2.12584 0.29384,-1.86824 1.47754,-2.96861 3.62725,-3.3719 0.89202,-0.16734 1.19393,-0.0499 3.1174,1.21292 l 2.12972,1.3982 1.16486,-1.16945 1.16486,-1.16945 -1.31484,-2.05601 c -1.45805,-2.27994 -1.60085,-3.09324 -0.81383,-4.63526 0.76667,-1.50217 1.3186,-1.85041 3.74326,-2.36189 l 2.23802,-0.4721 0.0782,-1.63186 c 0.0877,-1.83055 0.2678,-1.66735 -2.45946,-2.22905 -2.26088,-0.46564 -2.91392,-0.8651 -3.54478,-2.16827 -0.85028,-1.75644 -0.72843,-2.50248 0.78817,-4.82568 l 1.34444,-2.05946 -1.16083,-1.16083 -1.16082,-1.16082 -2.04388,1.33426 c -2.3127,1.50975 -3.09229,1.63451 -4.86161,0.778 -1.30318,-0.63086 -1.70263,-1.2839 -2.16827,-3.54478 -0.56139,-2.72578 -0.4007,-2.54718 -2.21297,-2.45946 l -1.61578,0.0782 -0.49065,2.24405 c -0.52976,2.42296 -1.0743,3.26379 -2.50984,3.87546 -1.49467,0.63688 -2.4358,0.4385 -4.57256,-0.96385 l -1.98437,-1.30234 -1.16945,1.1645 -1.16945,1.1645 1.36788,2.08355 c 0.75234,1.14595 1.36789,2.38069 1.36789,2.74387 0,0.36317 -0.302,1.26636 -0.67112,2.00709 -0.71854,1.44192 -1.16084,1.72466 -3.42992,2.19254 -2.75226,0.56752 -2.51354,0.358 -2.51354,2.20602 v 1.66259 l 2.3151,0.442 c 2.60848,0.498 3.50318,1.17099 4.01709,3.02164 0.42721,1.53843 0.37905,1.71638 -1.06204,3.92391 l -1.34444,2.05947 1.16842,1.16842 1.16842,1.16842 2.09425,-1.34182 c 2.2576,-1.44649 2.3804,-1.4799 3.89428,-1.05951 1.74383,0.48425 2.50753,1.43387 2.96462,3.68636 0.56776,2.79783 0.43975,2.64584 2.2283,2.64584 h 1.5856 z m -3.7535,-8.27604 c -2.49569,-0.62677 -4.59652,-2.37569 -5.71137,-4.75469 -0.89754,-1.91525 -0.95076,-4.81249 -0.12211,-6.64697 0.81374,-1.80147 2.37591,-3.38533 4.18394,-4.24206 1.31051,-0.62097 1.93792,-0.75226 3.59577,-0.75243 1.70913,-1.8e-4 2.24854,0.11987 3.62149,0.80593 3.79847,1.89812 5.53327,6.17131 4.17075,10.27347 -0.57551,1.73271 -2.42657,3.78562 -4.19065,4.64761 -1.55256,0.75864 -4.01082,1.05513 -5.54782,0.66914 z m 3.67137,-4.12484 c 2.80816,-1.33256 3.48207,-4.97667 1.32014,-7.1386 -1.71612,-1.71612 -4.421,-1.71734 -6.13556,-0.003 -1.69732,1.69732 -1.82218,4.15934 -0.29892,5.89424 1.43603,1.63555 3.32508,2.09619 5.11434,1.24714 z m -17.23644,2.91907 c 0.24664,-0.37643 0.40916,-0.7167 0.36116,-0.75615 -0.048,-0.0394 -1.19223,-0.28272 -2.54272,-0.54059 -3.01236,-0.57521 -3.76228,-1.08069 -3.76228,-2.53597 0,-0.98122 -0.0448,-1.03913 -0.8042898,-1.03913 -2.14457,0 -4.35478,2.14469 -4.83985,4.69636 l -0.16346,0.85989 h 5.6514898 5.6515 z m 92.961364,0.0751 0.57244,-0.60934 -0.88095,-0.31855 c -1.1321,-0.40938 -2.72353,-2.00173 -3.13341,-3.13523 l -0.31959,-0.8838 h -26.140594 -26.1406 v 0.93807 c 0,1.50195 -0.77384,2.04156 -3.77031,2.62909 -1.41883,0.2782 -2.57969,0.57494 -2.57969,0.65942 0,0.0845 0.18534,0.41821 0.41188,0.74164 l 0.41187,0.58803 h 30.49825 30.498254 z m -35.284944,57.90365 c -0.35718,-0.35719 -0.64943,-0.95791 -0.64943,-1.33495 0,-0.37703 0.29225,-0.97775 0.64943,-1.33494 l 0.64943,-0.64943 h 19.42322 c 19.249324,0 19.429464,0.005 20.120364,0.54837 0.96411,0.75837 0.96411,2.11364 0,2.87201 -0.6909,0.54346 -0.87104,0.54837 -20.120364,0.54837 h -19.42322 z m 15.34584,-8.73125 c -0.35719,-0.35719 -0.64944,-0.95791 -0.64944,-1.33495 0,-0.37703 0.29225,-0.97775 0.64944,-1.33494 l 0.64943,-0.64943 h 11.798014 11.79801 l 0.64943,0.64943 c 0.88377,0.88377 0.86362,2.0541 -0.0477,2.77095 -0.68151,0.53607 -0.96061,0.54837 -12.44744,0.54837 H 89.898196 Z m -72.43233,-9.43414 c -1.22131,-0.71049 -1.07234,-2.77635 0.24344,-3.37586 0.43642,-0.19884 3.07555,-0.2989 7.88393,-0.2989 6.91165,0 7.25842,0.024 7.92505,0.54837 0.87353,0.68712 0.95582,2.10337 0.16798,2.89121 -0.50503,0.50502 -0.87622,0.5288 -8.13594,0.52112 -4.8197,-0.005 -7.78179,-0.10986 -8.08446,-0.28594 z m 0.17714,-7.4192 c -0.97968,-0.48235 -1.15466,-1.36203 -1.15466,-5.80504 0,-4.14142 0.014,-4.24694 0.64943,-4.88234 l 0.64943,-0.64943 h 10.83064 c 10.26805,0 10.86307,0.0263 11.45525,0.5056 0.61353,0.49662 0.62462,0.58809 0.62462,5.15169 0,4.48147 -0.0213,4.66745 -0.60242,5.24908 l -0.60242,0.603 -10.64237,0.0528 c -7.01445,0.0348 -10.83502,-0.042 -11.2075,-0.2254 z m 19.1642,-5.58212 0.0782,-1.78594 h -8.21417 -8.21417 v 1.8559 1.85591 l 8.13593,-0.07 8.13594,-0.07 z"
       id="path1" /></g></svg>
