<?xml version="1.0" encoding="UTF-8" standalone="no"?>
<!-- Created with Inkscape (http://www.inkscape.org/) -->

<svg
   width="177.10001mm"
   height="177.5mm"
   viewBox="0 0 177.10001 177.50001"
   version="1.1"
   id="svg1"
   xml:space="preserve"
   inkscape:version="1.3 (0e150ed6c4, 2023-07-21)"
   sodipodi:docname="tiktok.svg"
   xmlns:inkscape="http://www.inkscape.org/namespaces/inkscape"
   xmlns:sodipodi="http://sodipodi.sourceforge.net/DTD/sodipodi-0.dtd"
   xmlns="http://www.w3.org/2000/svg"
   xmlns:svg="http://www.w3.org/2000/svg"><sodipodi:namedview
     id="namedview1"
     pagecolor="#ffffff"
     bordercolor="#000000"
     borderopacity="0.25"
     inkscape:showpageshadow="2"
     inkscape:pageopacity="0.0"
     inkscape:pagecheckerboard="0"
     inkscape:deskcolor="#d1d1d1"
     inkscape:document-units="mm"
     inkscape:zoom="0.73139029"
     inkscape:cx="478.54067"
     inkscape:cy="506.56948"
     inkscape:window-width="1920"
     inkscape:window-height="1017"
     inkscape:window-x="-8"
     inkscape:window-y="-8"
     inkscape:window-maximized="1"
     inkscape:current-layer="layer1" /><defs
     id="defs1" /><g
     inkscape:label="Warstwa 1"
     inkscape:groupmode="layer"
     id="layer1"><path
       style="fill:#000000"
       d="M 50.955396,176.58586 C 44.809814,175.90097 37.828647,173.78003 31.751107,170.75145 22.727051,166.25454 13.566321,157.70685 8.3458689,148.91251 2.6125329,139.25417 -0.12011614,127.40378 0.81425486,116.25098 1.9741259,102.40657 7.4693069,90.496039 17.202592,80.730069 c 8.950436,-8.98048 19.77925,-14.37919 32.547322,-16.22646 4.471476,-0.64692 13.190611,-0.54339 18.168341,0.21573 l 2.8415,0.43335 v 19.55058 19.550591 l -2.70616,-0.83107 c -1.48839,-0.45709 -3.38702,-1.0829 -4.21919,-1.3907 -0.86936,-0.32156 -3.07498,-0.63378 -5.18458,-0.73391 -3.129137,-0.14852 -4.045035,-0.0616 -6.199625,0.58816 -5.382841,1.62338 -9.468299,5.02561 -11.922248,9.92845 -5.271413,10.53196 -0.03666,23.12506 11.22291,26.99862 3.286387,1.13059 8.899623,1.13059 12.186013,0 6.43916,-2.21522 11.47254,-7.83963 12.84653,-14.35497 0.43712,-2.0728 0.50927,-10.92558 0.51441,-63.115621 l 0.006,-60.70464953 h 18.54981 18.549795 l 0.22128,2.11706003 c 0.1217,1.16439 0.22331,3.21801 0.2258,4.56362 0.0209,11.3195195 7.61387,23.8186995 18.12133,29.8306095 6.55414,3.74999 9.42086,4.42817 22.77445,5.38772 l 2.49707,0.17943 v 18.4479 18.4479 l -7.319,-0.19732 c -12.80425,-0.34519 -22.33034,-2.65001 -32.90647,-7.96166 l -3.17192,-1.59304 v 26.96364 c 0,31.246701 -0.12504,33.016811 -2.92863,41.459061 -8.39383,25.27577 -33.923285,41.31609 -60.961934,38.30277 z m 15.843489,-10.78682 c 18.79201,-3.90982 32.26407,-17.11301 36.910905,-36.17425 0.53236,-2.18375 0.59898,-6.0545 0.7069,-41.072511 0.0655,-21.26385 0.18377,-38.66154 0.26276,-38.66154 0.079,0 2.55659,1.85119 5.50578,4.11376 2.94918,2.26257 6.67235,4.90516 8.2737,5.87242 8.27654,4.99927 17.60859,8.09202 27.47125,9.10429 l 1.98044,0.20326 v -8.44138 -8.44139 h -0.81594 c -3.47133,0 -11.90312,-2.39075 -16.46039,-4.66719 -8.07619,-4.03419 -15.89616,-11.39719 -20.11307,-18.93773 -2.66746,-4.76986 -4.94086,-11.30647 -5.50629,-15.83199 l -0.23663,-1.89392 h -8.563015 -8.56303 l -0.10502,56.916 c -0.0974,52.786671 -0.1485,57.078421 -0.70413,59.154741 -3.25818,12.17537 -12.13461,20.51096 -24.06062,22.59457 -14.951176,2.61215 -29.825222,-6.96462 -33.75514,-21.73351 -0.993688,-3.73434 -1.069243,-10.94828 -0.151507,-14.46579 3.444841,-13.20342 15.25397,-22.559741 28.473907,-22.559741 h 3.0773 v -8.31365 -8.31366 l -4.908036,0.18278 c -7.241748,0.26968 -12.766552,1.68329 -19.201614,4.91305 -5.651853,2.83667 -12.237423,8.33074 -16.068001,13.40488 -14.1904811,18.797281 -11.9299401,45.074601 5.258505,61.126721 7.307264,6.82418 16.113341,11.01807 26.112405,12.43603 3.144818,0.44596 12.006481,0.14573 15.178581,-0.51425 z"
       id="path1" /></g></svg>
