<?xml version="1.0" encoding="UTF-8" standalone="no"?>
<!-- Created with Inkscape (http://www.inkscape.org/) -->

<svg
   width="177.10001mm"
   height="181.5mm"
   viewBox="0 0 177.10001 181.50001"
   version="1.1"
   id="svg1"
   xml:space="preserve"
   inkscape:version="1.3 (0e150ed6c4, 2023-07-21)"
   sodipodi:docname="twitter.svg"
   xmlns:inkscape="http://www.inkscape.org/namespaces/inkscape"
   xmlns:sodipodi="http://sodipodi.sourceforge.net/DTD/sodipodi-0.dtd"
   xmlns="http://www.w3.org/2000/svg"
   xmlns:svg="http://www.w3.org/2000/svg"><sodipodi:namedview
     id="namedview1"
     pagecolor="#ffffff"
     bordercolor="#000000"
     borderopacity="0.25"
     inkscape:showpageshadow="2"
     inkscape:pageopacity="0.0"
     inkscape:pagecheckerboard="0"
     inkscape:deskcolor="#d1d1d1"
     inkscape:document-units="mm"
     inkscape:zoom="0.73139029"
     inkscape:cx="381.46528"
     inkscape:cy="296.01159"
     inkscape:window-width="1920"
     inkscape:window-height="1017"
     inkscape:window-x="-8"
     inkscape:window-y="-8"
     inkscape:window-maximized="1"
     inkscape:current-layer="layer1" /><defs
     id="defs1" /><g
     inkscape:label="Warstwa 1"
     inkscape:groupmode="layer"
     id="layer1"><path
       style="fill:#000000;stroke-width:0.555241"
       d="M 0.60861971,179.84003 C 55.299533,116.23873 68.711673,100.56543 68.711673,100.25548 c 0,-0.2079 -15.150564,-22.429882 -33.667921,-49.382188 C 16.5264,23.920985 1.0916523,1.4327761 0.74432081,0.8994997 L 0.11279992,-0.07009124 H 26.359042 52.605282 L 75.319872,33.052385 C 87.812889,51.269746 98.132247,66.144148 98.251762,66.10662 98.371284,66.069086 110.88052,51.600298 126.05006,33.953743 141.21961,16.307181 154.05888,1.429589 154.58177,0.89242036 l 0.95072,-0.97667582 7.60196,0.09522952 7.60195,0.09522397 -32.7475,38.06136297 c -18.01113,20.933745 -32.68265,38.227728 -32.60337,38.431063 0.0793,0.203336 15.84274,23.216786 35.02992,51.141016 19.18717,27.92422 35.16996,51.20762 35.5173,51.74089 l 0.63154,0.9696 h -26.24518 -26.24518 l -23.94968,-34.8933 C 86.951937,126.3655 76.015923,110.70896 75.822005,110.76449 c -0.193918,0.0555 -13.792407,15.71784 -30.218866,34.80516 l -29.866283,34.70418 -7.8323737,0.095 c -7.4642341,0.0906 -7.80715697,0.0657 -7.29586259,-0.52886 z M 131.42053,135.03349 C 118.29398,116.25972 93.512635,80.802865 76.350872,56.240479 L 45.147669,11.581596 33.248144,11.573323 c -6.544741,-0.0044 -11.899528,0.05992 -11.899528,0.143286 0,0.151292 107.561114,154.132851 109.184214,156.305151 l 0.85619,1.14588 h 11.94898 11.94898 z"
       id="path2" /></g></svg>
