<?xml version="1.0" encoding="UTF-8" standalone="no"?>
<!-- Created with Inkscape (http://www.inkscape.org/) -->

<svg
   width="145mm"
   height="145mm"
   viewBox="0 0 145 145"
   version="1.1"
   id="svg1"
   xml:space="preserve"
   inkscape:version="1.3 (0e150ed6c4, 2023-07-21)"
   sodipodi:docname="whatsapp.svg"
   xmlns:inkscape="http://www.inkscape.org/namespaces/inkscape"
   xmlns:sodipodi="http://sodipodi.sourceforge.net/DTD/sodipodi-0.dtd"
   xmlns="http://www.w3.org/2000/svg"
   xmlns:svg="http://www.w3.org/2000/svg"><sodipodi:namedview
     id="namedview1"
     pagecolor="#ffffff"
     bordercolor="#000000"
     borderopacity="0.25"
     inkscape:showpageshadow="2"
     inkscape:pageopacity="0.0"
     inkscape:pagecheckerboard="0"
     inkscape:deskcolor="#d1d1d1"
     inkscape:document-units="mm"
     inkscape:zoom="0.49010913"
     inkscape:cx="346.86153"
     inkscape:cy="245.86361"
     inkscape:window-width="1920"
     inkscape:window-height="1017"
     inkscape:window-x="-8"
     inkscape:window-y="-8"
     inkscape:window-maximized="1"
     inkscape:current-layer="layer1" /><defs
     id="defs1" /><g
     inkscape:label="Warstwa 1"
     inkscape:groupmode="layer"
     id="layer1"><path
       style="fill:#000000"
       d="m 4.3999115,144.2024 c -2.76026,-1.02895 -4.33425996,-3.33677 -4.26022996,-6.24641 0.0361,-1.41888 1.00786996,-4.4375 5.99571996,-18.62456 L 12.088042,102.4002 10.566622,98.985129 C 6.3243115,89.462536 4.4525115,80.568207 4.4569315,69.953275 4.4599315,62.2785 5.4363415,55.815738 7.6280015,48.960248 19.363652,12.25126 58.458532,-8.1370841 95.20548,3.2877804 c 10.90915,3.3917272 20.43229,9.1729426 28.65489,17.3955466 10.95268,10.952675 17.51937,24.070412 19.92508,39.802671 0.61367,4.013146 0.70331,14.386705 0.15729,18.203332 -2.34403,16.384669 -8.93958,29.82441 -20.1326,41.02421 -11.11919,11.12592 -24.830614,17.83516 -40.740215,19.93488 -3.446204,0.45483 -11.977353,0.61952 -15.023353,0.29002 -8.74356,-0.94583 -15.94918,-2.92216 -23.7822,-6.5229 l -2.11667,-0.97301 -16.93333,5.94928 c -10.08312,3.54255 -17.5041805,6.00106 -18.3444405,6.0773 -0.83236,0.0755 -1.84541,-0.0339 -2.47002,-0.26671 z M 25.496752,129.32499 c 12.42927,-4.34893 15.68445,-5.38807 16.91321,-5.39911 1.2686,-0.0114 2.07722,0.24489 4.86301,1.54133 8.17658,3.80519 14.82748,5.54954 23.31267,6.11429 17.191713,1.14424 33.724648,-4.90633 46.353838,-16.96414 17.19181,-16.414001 23.34457,-41.119064 15.9077,-63.873906 -1.41329,-4.324306 -4.58845,-10.826123 -7.16393,-14.669678 C 113.69536,18.183458 93.378445,7.7931616 72.063262,8.6519106 55.833212,9.3057894 41.047442,15.956117 29.926342,27.60422 14.896432,43.346347 9.3573418,64.996915 14.945632,86.159082 c 1.02491,3.881202 2.05314,6.647056 4.13086,11.111647 1.29644,2.785791 1.55273,3.594411 1.54133,4.863011 -0.011,1.22875 -1.05018,4.48394 -5.39912,16.91321 -2.96199,8.46538 -5.3854402,15.45278 -5.3854402,15.52754 0,0.0748 0.0612,0.13595 0.13594,0.13595 0.0748,0 7.0621702,-2.42345 15.5275502,-5.38545 z M 90.57182,108.41605 C 83.429009,107.6359 73.851632,102.83291 64.443262,95.312739 60.456892,92.126406 52.422942,84.0933 49.229362,80.100441 42.491312,71.675996 37.568092,62.338565 36.364402,55.70064 c -0.52746,-2.908785 -0.41628,-6.653997 0.26155,-8.810003 0.79562,-2.530693 2.24734,-4.382704 7.30285,-9.316514 3.60864,-3.521765 4.45477,-4.204593 5.87408,-4.740371 1.30161,-0.491348 2.05865,-0.598338 3.5207,-0.497567 2.94182,0.202762 4.00098,0.956715 10.35027,7.367764 5.07191,5.12125 5.69094,5.850585 6.26083,7.376494 0.49294,1.319857 0.60245,2.080368 0.49651,3.448143 -0.18426,2.378855 -0.95206,3.74349 -3.63379,6.458434 l -2.2586,2.286578 1.22223,2.040728 c 4.10331,6.851198 10.61714,13.365035 17.468342,17.468346 l 2.040729,1.22223 2.286578,-2.258604 c 2.714943,-2.681731 4.079579,-3.449532 6.458434,-3.633785 1.367775,-0.10594 2.128286,0.0036 3.448143,0.496506 1.525909,0.569895 2.255245,1.188921 7.376492,6.260834 6.41105,6.349286 7.165,7.408441 7.36776,10.350263 0.10077,1.46205 -0.006,2.219095 -0.49756,3.520703 -0.53578,1.41931 -1.21861,2.26544 -4.74038,5.874071 -2.26293,2.31876 -4.86431,4.77962 -5.78083,5.46858 -2.689595,2.02181 -6.266695,2.80771 -10.61692,2.33258 z m 4.046784,-8.40681 c 0.901895,-0.209179 1.854177,-1.003011 5.150819,-4.293771 l 4.044367,-4.037151 -4.576443,-4.58276 -4.576447,-4.582761 -2.718316,2.670694 c -2.985892,2.933581 -4.113225,3.565079 -6.400977,3.585637 -1.228782,0.01104 -1.947303,-0.199518 -3.692027,-1.081933 -5.059384,-2.558844 -10.449798,-6.60177 -14.879688,-11.160075 -4.33167,-4.457245 -7.70526,-9.071614 -10.11339,-13.832999 -0.88241,-1.744725 -1.09297,-2.463245 -1.08193,-3.692027 0.0206,-2.287752 0.65206,-3.415086 3.58564,-6.400977 l 2.67069,-2.718317 -4.58705,-4.580737 -4.58706,-4.580736 -4.11983,4.167335 c -3.86375,3.908307 -4.13172,4.249747 -4.31129,5.49318 -0.3851,2.666605 0.9194,7.417421 3.35046,12.201983 8.51811,16.764461 29.296542,34.859624 42.913793,37.372026 1.886857,0.348129 2.615214,0.358019 3.928679,0.0534 z"
       id="path1" /></g></svg>
