<?xml version="1.0" encoding="UTF-8" standalone="no"?>
<!-- Created with Inkscape (http://www.inkscape.org/) -->

<svg
   version="1.1"
   id="svg1"
   width="22.21875"
   height="22.21875"
   viewBox="0 0 22.21875 22.21875"
   sodipodi:docname="yesfeature.svg"
   inkscape:version="1.3 (0e150ed6c4, 2023-07-21)"
   xml:space="preserve"
   xmlns:inkscape="http://www.inkscape.org/namespaces/inkscape"
   xmlns:sodipodi="http://sodipodi.sourceforge.net/DTD/sodipodi-0.dtd"
   xmlns="http://www.w3.org/2000/svg"
   xmlns:svg="http://www.w3.org/2000/svg"><defs
     id="defs1" /><sodipodi:namedview
     id="namedview1"
     pagecolor="#ffffff"
     bordercolor="#000000"
     borderopacity="0.25"
     inkscape:showpageshadow="2"
     inkscape:pageopacity="0.0"
     inkscape:pagecheckerboard="0"
     inkscape:deskcolor="#d1d1d1"
     showgrid="false"
     inkscape:zoom="18.475387"
     inkscape:cx="5.9809303"
     inkscape:cy="8.200099"
     inkscape:window-width="1920"
     inkscape:window-height="1017"
     inkscape:window-x="-8"
     inkscape:window-y="-8"
     inkscape:window-maximized="1"
     inkscape:current-layer="g1" /><g
     inkscape:groupmode="layer"
     inkscape:label="Image"
     id="g1"><path
       style="fill:#000000;stroke-width:0.835966"
       d="M 6.9126465,21.997795 6.4944784,21.825713 3.5446073,18.705267 0.59473602,15.584822 0.35132256,15.061417 0.10790911,14.538011 l 0.002141,-0.64798 0.002141,-0.647982 0.2008741,-0.460192 0.2008741,-0.460194 0.32919826,-0.349586 C 1.024196,11.779803 1.3434052,11.532892 1.5524892,11.423386 l 0.3801529,-0.199105 0.7603055,-9.48e-4 0.7603056,-9.48e-4 0.3801528,0.195081 0.3801528,0.195079 1.6916404,1.780161 1.6916401,1.78016 0.066211,-0.07679 c 0.036414,-0.04223 2.2718851,-3.203175 4.9677147,-7.0243173 2.695832,-3.8211426 5.055244,-7.09712619 5.24314,-7.27996277 l 0.341629,-0.33243058 0.450011,-0.18038304 0.45001,-0.18038306 0.570229,0.03459646 0.570229,0.0345992 0.358654,0.16955706 c 0.197259,0.0932578 0.526412,0.33628914 0.73145,0.54007233 l 0.372797,0.3705147 0.214517,0.5036403 0.214517,0.5036408 0.0028,0.5654969 0.0028,0.5654969 -0.134572,0.4145269 -0.134553,0.4145256 -6.003975,8.5122446 c -3.302255,4.681765 -6.1149351,8.615028 -6.2504715,8.740616 -0.1355363,0.125588 -0.4174983,0.322884 -0.626582,0.438434 l -0.3801527,0.210095 -0.6462598,0.02661 -0.64626,0.02661 z m 1.497211,-1.359629 0.3187373,-0.153757 6.0222142,-8.531615 6.022215,-8.5316163 0.03581,-0.3958996 0.0358,-0.3959002 L 20.677978,2.2635957 20.511328,1.8978138 20.243074,1.7216564 19.974822,1.5454989 h -0.399517 -0.399517 l -0.244001,0.152915 -0.244004,0.152915 -5.282785,7.4845547 -5.282783,7.4845544 -0.2190276,0.09639 -0.219025,0.09639 -0.1766746,-0.05708 C 7.4103178,16.924758 6.4241501,15.942861 5.3160047,14.774162 L 3.3011946,12.649263 3.0118312,12.592486 c -0.5741029,-0.11266 -1.03525,0.07084 -1.3679639,0.544346 l -0.1461118,0.207938 -0.039033,0.367955 c -0.021468,0.202376 -0.015518,0.47009 0.013226,0.594922 l 0.052259,0.226966 2.8652881,3.05205 2.8652887,3.052048 0.2280927,0.07109 c 0.3579893,0.111583 0.5832521,0.09417 0.9269817,-0.07165 z"
       id="path1" /></g></svg>
