<?xml version="1.0" encoding="UTF-8" standalone="no"?>
<!-- Created with Inkscape (http://www.inkscape.org/) -->

<svg
   width="177.10001mm"
   height="134.5mm"
   viewBox="0 0 177.10001 134.50001"
   version="1.1"
   id="svg1"
   xml:space="preserve"
   inkscape:version="1.3 (0e150ed6c4, 2023-07-21)"
   sodipodi:docname="youtube.svg"
   xmlns:inkscape="http://www.inkscape.org/namespaces/inkscape"
   xmlns:sodipodi="http://sodipodi.sourceforge.net/DTD/sodipodi-0.dtd"
   xmlns="http://www.w3.org/2000/svg"
   xmlns:svg="http://www.w3.org/2000/svg"><sodipodi:namedview
     id="namedview1"
     pagecolor="#ffffff"
     bordercolor="#000000"
     borderopacity="0.25"
     inkscape:showpageshadow="2"
     inkscape:pageopacity="0.0"
     inkscape:pagecheckerboard="0"
     inkscape:deskcolor="#d1d1d1"
     inkscape:document-units="mm"
     inkscape:zoom="0.73139029"
     inkscape:cx="478.54067"
     inkscape:cy="506.56948"
     inkscape:window-width="1920"
     inkscape:window-height="1017"
     inkscape:window-x="-8"
     inkscape:window-y="-8"
     inkscape:window-maximized="1"
     inkscape:current-layer="layer1" /><defs
     id="defs1" /><g
     inkscape:label="Warstwa 1"
     inkscape:groupmode="layer"
     id="layer1"><path
       style="fill:#000000;stroke-width:1.22063"
       d="M 81.063245,133.81693 C 26.912474,132.54912 21.939214,132.02543 14.070505,126.76252 6.5845821,121.75562 2.6148374,113.04924 1.5218422,99.240997 0.26952002,83.419891 0.16299607,53.700968 1.3032869,38.266714 2.4297553,23.01957 5.3264449,15.215749 12.069258,9.2626628 15.90746,5.8740004 20.616438,3.6811354 25.945245,2.8009549 32.693209,1.6863534 63.119801,0.61847739 88.297474,0.61258177 113.59075,0.60647864 144.11385,1.6578396 151.11235,2.7758588 c 11.34871,1.8129699 19.22854,8.7480122 22.40865,19.7218582 2.45946,8.487115 3.08563,17.334669 3.11519,44.01697 0.0337,30.429924 -0.75254,39.362143 -4.26703,48.475513 -3.56927,9.25543 -11.06348,15.07273 -21.38245,16.59791 -7.69417,1.13723 -53.790074,2.60655 -69.923465,2.22882 z m 38.754835,-10.83199 c 14.99972,-0.47595 28.41833,-1.27084 31.18261,-1.84721 5.40869,-1.12775 9.36948,-4.2678 11.36436,-9.0095 3.2842,-7.80632 3.91768,-15.024901 3.9273,-44.752331 0.01,-28.519598 -0.57583,-36.27606 -3.30519,-43.81901 -2.00408,-5.538537 -5.77835,-8.80571 -11.82072,-10.232535 -3.47147,-0.819748 -22.36715,-1.801899 -44.18051,-2.296411 -20.940863,-0.474726 -46.392529,-0.07006 -66.916704,1.063982 -13.141828,0.726125 -15.439408,1.109866 -18.818079,3.142902 -6.074518,3.655186 -8.552997,9.68594 -9.677871,23.548615 -0.846608,10.433402 -0.849513,46.356432 -0.0046,57.012683 1.050867,13.253945 3.228106,19.166825 8.253651,22.414985 5.045425,3.26102 11.004206,3.95474 41.260656,4.80355 7.294516,0.20464 15.278013,0.41743 17.7411,0.47288 6.748518,0.15192 28.942017,-0.12023 40.994007,-0.5026 z M 71.934325,93.407081 C 69.345953,92.776946 67.471476,91.073027 66.642342,88.596598 66.36537,87.769344 66.250277,80.887595 66.250277,65.15297 V 42.880323 l 0.872625,-1.751133 c 0.545266,-1.094205 1.406539,-2.121129 2.295837,-2.73741 1.24118,-0.860138 1.737425,-0.98629 3.879818,-0.98629 h 2.456605 l 19.897347,10.851356 c 10.943541,5.968246 20.513521,11.371209 21.266621,12.006568 3.51736,2.967474 3.21014,8.577283 -0.61026,11.143647 -2.51972,1.692617 -39.544251,21.405686 -41.06078,21.862102 -1.668729,0.502214 -1.795661,0.507487 -3.313765,0.137918 z M 91.246504,73.318707 C 101.89605,67.5914 105.39222,65.559169 105.07933,65.27801 104.84905,65.071078 99.157448,61.906217 92.431329,58.245001 85.705209,54.583773 79.388169,51.133908 78.39347,50.578634 l -1.808564,-1.009603 v 15.707063 c 0,8.638888 0.09228,15.707063 0.205029,15.707063 0.112785,0 6.618216,-3.448998 14.456569,-7.66445 z"
       id="path3" /></g></svg>
